{"glyphs":{"0":{"ha":932,"x_min":38,"x_max":894,"o":"m 468 -15 q 247 49 344 -15 q 94 229 150 114 q 38 494 38 344 q 93 758 38 643 q 245 937 149 872 q 464 1001 342 1001 q 686 937 589 1001 q 839 758 783 872 q 894 492 894 643 q 839 227 894 342 q 687 49 783 113 q 468 -15 590 -15 m 465 199 q 563 233 522 199 q 624 332 603 267 q 646 493 646 397 q 624 653 646 588 q 563 752 603 718 q 464 786 522 786 q 369 753 410 786 q 308 654 329 719 q 286 494 286 589 q 308 333 286 399 q 369 233 329 267 q 465 199 410 199 z "},"1":{"ha":542,"x_min":22,"x_max":456,"o":"m 210 0 l 210 985 l 456 985 l 456 0 l 210 0 m 22 778 l 22 985 l 442 985 l 442 778 l 22 778 z "},"2":{"ha":800,"x_min":25,"x_max":760,"o":"m 31 135 l 417 528 q 463 583 444 558 q 488 628 481 607 q 496 674 496 650 q 462 757 496 726 q 372 788 428 788 q 276 758 319 788 q 188 658 233 728 l 25 803 q 178 951 85 900 q 392 1001 271 1001 q 576 963 499 1001 q 697 852 654 924 q 739 683 739 781 q 724 576 739 625 q 675 478 708 526 q 586 378 642 431 l 331 129 l 31 135 m 31 0 l 31 135 l 238 207 l 760 207 l 760 0 l 31 0 z "},"3":{"ha":790,"x_min":15,"x_max":751,"o":"m 356 -15 q 164 20 251 -15 q 15 121 76 56 l 174 276 q 248 217 199 240 q 351 194 297 194 q 433 210 397 194 q 488 256 468 226 q 508 328 508 286 q 488 399 508 369 q 428 444 467 429 q 338 460 390 460 q 280 456 310 460 q 232 446 250 453 l 340 582 q 422 601 385 593 q 488 608 458 608 q 622 573 563 608 q 717 473 682 538 q 751 321 751 408 q 703 145 751 221 q 565 27 654 69 q 356 -15 475 -15 m 232 446 l 232 582 l 461 850 l 731 850 l 494 582 l 232 446 m 83 778 l 83 985 l 731 985 l 731 850 l 543 778 l 83 778 z "},"4":{"ha":851,"x_min":25,"x_max":825,"o":"m 25 338 l 333 985 l 600 985 l 283 338 l 25 338 m 25 201 l 25 338 l 97 408 l 825 408 l 825 201 l 25 201 m 488 0 l 488 593 l 731 593 l 731 0 l 488 0 z "},"5":{"ha":789,"x_min":11,"x_max":751,"o":"m 357 -15 q 163 20 256 -15 q 11 121 71 56 l 169 276 q 244 217 194 240 q 347 194 293 194 q 431 212 396 194 q 487 260 467 229 q 507 335 507 292 q 487 410 507 378 q 429 460 467 442 q 339 478 392 478 q 252 465 292 478 q 181 428 213 451 l 204 586 q 271 624 242 608 q 333 646 300 639 q 410 653 365 653 q 598 608 522 653 q 713 488 674 563 q 751 325 751 414 q 703 148 751 225 q 566 28 654 71 q 357 -15 478 -15 m 181 428 l 83 517 l 132 985 l 354 985 l 303 532 l 181 428 m 163 778 l 132 985 l 697 985 l 697 778 l 163 778 z "},"6":{"ha":804,"x_min":29,"x_max":775,"o":"m 401 -15 q 212 30 296 -15 q 78 153 128 75 q 29 329 29 232 q 113 572 29 450 l 394 985 l 672 985 l 351 542 l 260 550 q 302 608 281 583 q 356 646 324 632 q 440 660 388 660 q 609 616 533 660 q 730 498 685 572 q 775 331 775 424 q 726 154 775 232 q 592 31 676 76 q 401 -15 508 -15 m 401 194 q 472 213 442 194 q 520 263 503 231 q 538 336 538 296 q 520 409 538 376 q 472 460 503 442 q 401 478 442 478 q 332 459 363 478 q 284 408 301 440 q 267 336 267 376 q 284 263 267 296 q 332 213 301 231 q 401 194 363 194 z "},"7":{"ha":736,"x_min":22,"x_max":713,"o":"m 150 0 l 472 849 l 713 849 l 404 0 l 150 0 m 22 778 l 22 985 l 713 985 l 713 849 l 638 778 l 22 778 z "},"8":{"ha":790,"x_min":35,"x_max":756,"o":"m 396 -15 q 205 22 286 -15 q 79 125 124 60 q 35 275 35 190 q 62 403 35 346 q 138 497 89 460 q 251 546 188 533 l 247 500 q 153 545 192 511 q 93 628 114 579 q 72 731 72 678 q 113 871 72 810 q 227 967 154 932 q 396 1001 300 1001 q 564 967 492 1001 q 677 871 636 932 q 718 731 718 810 q 697 628 718 678 q 638 545 676 579 q 543 500 599 511 l 538 546 q 652 497 603 533 q 728 403 701 460 q 756 275 756 346 q 711 125 756 190 q 585 22 667 60 q 396 -15 504 -15 m 396 192 q 460 207 432 192 q 505 249 489 222 q 521 311 521 276 q 505 372 521 346 q 460 415 489 399 q 396 431 432 431 q 331 415 358 431 q 286 372 303 399 q 269 311 269 346 q 286 249 269 276 q 331 207 303 222 q 396 192 358 192 m 396 607 q 465 633 438 607 q 492 701 492 660 q 465 772 492 744 q 396 800 438 800 q 326 773 353 800 q 299 704 299 746 q 326 635 299 663 q 396 607 353 607 z "},"9":{"ha":804,"x_min":28,"x_max":775,"o":"m 132 0 l 453 443 l 544 436 q 502 377 524 401 q 449 339 481 353 q 364 325 417 325 q 195 369 271 325 q 74 488 119 413 q 28 656 28 563 q 78 831 28 753 q 213 956 128 910 q 401 1001 297 1001 q 592 956 508 1001 q 726 832 676 910 q 775 657 775 754 q 692 413 775 536 l 410 0 l 132 0 m 401 508 q 472 526 442 508 q 520 576 503 544 q 538 649 538 608 q 520 722 538 690 q 472 772 503 754 q 401 790 442 790 q 332 772 363 790 q 284 722 301 754 q 267 649 267 690 q 284 576 267 608 q 332 526 301 544 q 401 508 363 508 z "},"A":{"ha":1031,"x_min":15,"x_max":1015,"o":"m 15 0 l 397 985 l 638 985 l 1015 0 l 756 0 l 471 828 l 561 828 l 269 0 l 15 0 m 247 172 l 247 369 l 790 369 l 790 172 l 247 172 z "},"Á":{"ha":1031,"x_min":15,"x_max":1015,"o":"m 15 0 l 397 985 l 638 985 l 1015 0 l 756 0 l 471 828 l 561 828 l 269 0 l 15 0 m 247 172 l 247 369 l 790 369 l 790 172 l 247 172 m 406 1050 l 336 1169 l 579 1367 l 694 1178 l 406 1050 z "},"Ă":{"ha":1031,"x_min":15,"x_max":1015,"o":"m 15 0 l 397 985 l 638 985 l 1015 0 l 756 0 l 471 828 l 561 828 l 269 0 l 15 0 m 247 172 l 247 369 l 790 369 l 790 172 l 247 172 m 789 1313 q 753 1176 789 1238 q 656 1078 717 1114 q 518 1042 594 1042 q 377 1078 439 1042 q 279 1175 315 1114 q 243 1313 243 1236 l 422 1313 q 449 1243 422 1271 q 518 1215 476 1215 q 565 1228 544 1215 q 597 1263 585 1240 q 608 1313 608 1285 l 789 1313 z "},"Ǎ":{"ha":1031,"x_min":15,"x_max":1015,"o":"m 15 0 l 397 985 l 638 985 l 1015 0 l 756 0 l 471 828 l 561 828 l 269 0 l 15 0 m 247 172 l 247 369 l 790 369 l 790 172 l 247 172 m 718 1342 l 788 1239 l 578 1044 l 453 1044 l 243 1239 l 313 1342 l 610 1181 l 419 1181 l 718 1342 z "},"Â":{"ha":1031,"x_min":15,"x_max":1015,"o":"m 15 0 l 397 985 l 638 985 l 1015 0 l 756 0 l 471 828 l 561 828 l 269 0 l 15 0 m 247 172 l 247 369 l 790 369 l 790 172 l 247 172 m 313 1044 l 243 1147 l 453 1342 l 579 1342 l 789 1147 l 719 1044 l 421 1207 l 611 1206 l 313 1044 z "},"Ä":{"ha":1031,"x_min":15,"x_max":1015,"o":"m 15 0 l 397 985 l 638 985 l 1015 0 l 756 0 l 471 828 l 561 828 l 269 0 l 15 0 m 247 172 l 247 369 l 790 369 l 790 172 l 247 172 m 360 1060 q 269 1097 306 1060 q 233 1189 233 1135 q 269 1281 233 1243 q 360 1318 306 1318 q 451 1281 415 1318 q 486 1189 486 1243 q 451 1097 486 1135 q 360 1060 415 1060 m 672 1060 q 582 1097 618 1060 q 546 1189 546 1135 q 582 1281 546 1243 q 672 1318 618 1318 q 763 1281 728 1318 q 799 1189 799 1243 q 763 1097 799 1135 q 672 1060 728 1060 z "},"À":{"ha":1031,"x_min":15,"x_max":1015,"o":"m 15 0 l 397 985 l 638 985 l 1015 0 l 756 0 l 471 828 l 561 828 l 269 0 l 15 0 m 247 172 l 247 369 l 790 369 l 790 172 l 247 172 m 599 1057 l 310 1185 l 426 1374 l 668 1176 l 599 1057 z "},"Ā":{"ha":1031,"x_min":15,"x_max":1015,"o":"m 15 0 l 397 985 l 638 985 l 1015 0 l 756 0 l 471 828 l 561 828 l 269 0 l 15 0 m 247 172 l 247 369 l 790 369 l 790 172 l 247 172 m 246 1279 l 785 1279 l 785 1106 l 246 1106 l 246 1279 z "},"Ą":{"ha":1031,"x_min":15,"x_max":1047,"o":"m 15 0 l 397 985 l 638 985 l 1015 0 l 756 0 l 471 828 l 561 828 l 269 0 l 15 0 m 247 172 l 247 369 l 790 369 l 790 172 l 247 172 m 892 -301 q 730 -258 790 -301 q 669 -135 669 -215 q 724 -6 669 -57 q 864 53 778 44 l 1015 0 q 928 -42 958 -17 q 897 -107 897 -67 q 910 -144 897 -132 q 946 -157 922 -157 q 972 -152 960 -157 q 999 -142 985 -147 l 1047 -264 q 977 -292 1015 -282 q 892 -301 939 -301 z "},"Å":{"ha":1031,"x_min":15,"x_max":1015,"o":"m 15 0 l 397 985 l 638 985 l 1015 0 l 756 0 l 471 828 l 561 828 l 269 0 l 15 0 m 247 172 l 247 369 l 790 369 l 790 172 l 247 172 m 517 914 q 420 939 463 914 q 353 1005 378 964 q 329 1097 329 1046 q 353 1192 329 1150 q 420 1258 378 1233 q 515 1282 463 1282 q 610 1258 568 1282 q 677 1192 653 1233 q 701 1099 701 1150 q 677 1004 701 1046 q 610 938 653 963 q 517 914 568 914 m 517 1036 q 558 1054 542 1036 q 575 1099 575 1072 q 558 1142 575 1125 q 517 1160 542 1160 q 472 1142 489 1160 q 456 1097 456 1124 q 472 1054 456 1072 q 517 1036 489 1036 z "},"Ã":{"ha":1031,"x_min":15,"x_max":1015,"o":"m 15 0 l 397 985 l 638 985 l 1015 0 l 756 0 l 471 828 l 561 828 l 269 0 l 15 0 m 247 172 l 247 369 l 790 369 l 790 172 l 247 172 m 618 1053 q 541 1068 574 1053 q 481 1098 508 1083 q 422 1113 453 1113 q 367 1099 390 1113 q 325 1057 344 1086 l 215 1168 q 302 1264 254 1235 q 413 1293 350 1293 q 490 1278 457 1293 q 550 1249 522 1264 q 607 1233 578 1233 q 663 1247 640 1233 q 704 1289 686 1261 l 814 1179 q 728 1083 775 1113 q 618 1053 681 1053 z "},"Æ":{"ha":1389,"x_min":15,"x_max":1336,"o":"m 15 0 l 397 985 l 729 985 l 729 775 l 543 775 l 269 0 l 15 0 m 247 258 l 247 456 l 749 456 l 749 258 l 247 258 m 843 0 l 843 210 l 1336 210 l 1336 0 l 843 0 m 647 0 l 647 985 l 894 985 l 894 0 l 647 0 m 843 400 l 843 604 l 1286 604 l 1286 400 l 843 400 m 843 775 l 843 985 l 1329 985 l 1329 775 l 843 775 z "},"B":{"ha":903,"x_min":88,"x_max":863,"o":"m 285 0 l 285 185 l 490 185 q 583 217 549 185 q 617 303 617 250 q 601 365 617 338 q 558 406 586 392 q 490 421 529 421 l 285 421 l 285 600 l 475 600 q 555 624 524 600 q 586 700 586 649 q 555 776 586 751 q 475 800 524 800 l 285 800 l 285 985 l 535 985 q 694 950 626 985 q 797 857 761 915 q 833 725 833 799 q 766 562 833 626 q 571 482 699 497 l 571 565 q 788 474 713 549 q 863 288 863 400 q 821 140 863 204 q 703 38 779 75 q 525 0 628 0 l 285 0 m 88 0 l 88 985 l 332 985 l 332 0 l 88 0 z "},"C":{"ha":961,"x_min":39,"x_max":942,"o":"m 565 -15 q 357 23 453 -15 q 190 130 261 61 q 78 292 118 199 q 39 493 39 385 q 78 695 39 603 q 190 856 118 788 q 356 963 261 924 q 563 1001 451 1001 q 772 965 679 1001 q 936 863 865 928 l 769 696 q 683 757 735 735 q 563 779 632 779 q 453 760 503 779 q 368 702 404 740 q 312 611 332 664 q 292 493 292 558 q 312 375 292 428 q 368 284 332 322 q 453 226 404 246 q 563 206 503 206 q 685 227 632 206 q 775 289 738 249 l 942 122 q 778 21 869 57 q 565 -15 688 -15 z "},"Ć":{"ha":961,"x_min":39,"x_max":942,"o":"m 565 -15 q 357 23 453 -15 q 190 130 261 61 q 78 292 118 199 q 39 493 39 385 q 78 695 39 603 q 190 856 118 788 q 356 963 261 924 q 563 1001 451 1001 q 772 965 679 1001 q 936 863 865 928 l 769 696 q 683 757 735 735 q 563 779 632 779 q 453 760 503 779 q 368 702 404 740 q 312 611 332 664 q 292 493 292 558 q 312 375 292 428 q 368 284 332 322 q 453 226 404 246 q 563 206 503 206 q 685 227 632 206 q 775 289 738 249 l 942 122 q 778 21 869 57 q 565 -15 688 -15 m 439 1050 l 369 1169 l 613 1367 l 728 1178 l 439 1050 z "},"Č":{"ha":961,"x_min":39,"x_max":942,"o":"m 565 -15 q 357 23 453 -15 q 190 130 261 61 q 78 292 118 199 q 39 493 39 385 q 78 695 39 603 q 190 856 118 788 q 356 963 261 924 q 563 1001 451 1001 q 772 965 679 1001 q 936 863 865 928 l 769 696 q 683 757 735 735 q 563 779 632 779 q 453 760 503 779 q 368 702 404 740 q 312 611 332 664 q 292 493 292 558 q 312 375 292 428 q 368 284 332 322 q 453 226 404 246 q 563 206 503 206 q 685 227 632 206 q 775 289 738 249 l 942 122 q 778 21 869 57 q 565 -15 688 -15 m 753 1342 l 822 1239 l 613 1044 l 486 1044 l 276 1239 l 346 1342 l 643 1181 l 453 1181 l 753 1342 z "},"Ç":{"ha":961,"x_min":39,"x_max":942,"o":"m 565 -15 q 357 23 453 -15 q 190 130 261 61 q 78 292 118 199 q 39 493 39 385 q 78 695 39 603 q 190 856 118 788 q 356 963 261 924 q 563 1001 451 1001 q 772 965 679 1001 q 936 863 865 928 l 769 696 q 683 757 735 735 q 563 779 632 779 q 453 760 503 779 q 368 702 404 740 q 312 611 332 664 q 292 493 292 558 q 312 375 292 428 q 368 284 332 322 q 453 226 404 246 q 563 206 503 206 q 685 227 632 206 q 775 289 738 249 l 942 122 q 778 21 869 57 q 565 -15 688 -15 m 493 -301 q 396 -289 435 -301 q 315 -253 357 -276 l 383 -162 q 424 -182 403 -175 q 467 -189 444 -189 q 503 -181 493 -189 q 514 -161 514 -174 q 499 -140 514 -149 q 453 -132 485 -132 l 422 -132 l 468 17 l 593 17 l 554 -86 l 490 -32 q 636 -69 586 -32 q 686 -167 686 -106 q 633 -263 686 -225 q 493 -301 581 -301 z "},"Ċ":{"ha":961,"x_min":39,"x_max":942,"o":"m 565 -15 q 357 23 453 -15 q 190 130 261 61 q 78 292 118 199 q 39 493 39 385 q 78 695 39 603 q 190 856 118 788 q 356 963 261 924 q 563 1001 451 1001 q 772 965 679 1001 q 936 863 865 928 l 769 696 q 683 757 735 735 q 563 779 632 779 q 453 760 503 779 q 368 702 404 740 q 312 611 332 664 q 292 493 292 558 q 312 375 292 428 q 368 284 332 322 q 453 226 404 246 q 563 206 503 206 q 685 227 632 206 q 775 289 738 249 l 942 122 q 778 21 869 57 q 565 -15 688 -15 m 550 1060 q 460 1097 496 1060 q 424 1189 424 1135 q 460 1281 424 1243 q 550 1318 496 1318 q 642 1281 607 1318 q 678 1189 678 1243 q 642 1097 678 1135 q 550 1060 607 1060 z "},"D":{"ha":1057,"x_min":88,"x_max":1019,"o":"m 256 0 l 256 214 l 492 214 q 637 246 575 214 q 732 341 699 278 q 765 494 765 404 q 731 645 765 583 q 636 739 697 707 q 492 771 575 771 l 244 771 l 244 985 l 493 985 q 703 949 607 985 q 869 849 799 914 q 980 693 940 783 q 1019 493 1019 603 q 980 292 1019 382 q 869 136 940 201 q 703 35 799 71 q 496 0 608 0 l 256 0 m 88 0 l 88 985 l 336 985 l 336 0 l 88 0 z "},"Ð":{"ha":1085,"x_min":28,"x_max":1047,"o":"m 28 588 l 561 588 l 561 403 l 28 403 l 28 588 m 283 0 l 283 214 l 519 214 q 665 246 603 214 q 760 341 726 278 q 793 494 793 404 q 759 645 793 583 q 664 739 725 707 q 519 771 603 771 l 272 771 l 272 985 l 521 985 q 731 949 635 985 q 897 849 826 914 q 1008 693 968 783 q 1047 493 1047 603 q 1008 292 1047 382 q 897 136 968 201 q 731 35 826 71 q 524 0 636 0 l 283 0 m 115 0 l 115 985 l 364 985 l 364 0 l 115 0 z "},"Ď":{"ha":1057,"x_min":88,"x_max":1019,"o":"m 256 0 l 256 214 l 492 214 q 637 246 575 214 q 732 341 699 278 q 765 494 765 404 q 731 645 765 583 q 636 739 697 707 q 492 771 575 771 l 244 771 l 244 985 l 493 985 q 703 949 607 985 q 869 849 799 914 q 980 693 940 783 q 1019 493 1019 603 q 980 292 1019 382 q 869 136 940 201 q 703 35 799 71 q 496 0 608 0 l 256 0 m 88 0 l 88 985 l 336 985 l 336 0 l 88 0 m 696 1342 l 765 1239 l 556 1044 l 429 1044 l 219 1239 l 289 1342 l 586 1181 l 396 1181 l 696 1342 z "},"Đ":{"ha":1099,"x_min":0,"x_max":1060,"o":"m 0 396 l 0 589 l 660 589 l 660 396 l 0 396 m 296 0 l 296 214 l 533 214 q 678 246 617 214 q 773 341 739 278 q 807 494 807 404 q 772 645 807 583 q 676 739 738 707 q 533 771 615 771 l 286 771 l 286 985 l 533 985 q 744 949 647 985 q 911 849 840 914 q 1021 693 982 783 q 1060 493 1060 603 q 1021 292 1060 382 q 911 136 982 201 q 744 35 840 71 q 536 0 649 0 l 296 0 m 129 0 l 129 985 l 378 985 l 378 0 l 129 0 z "},"E":{"ha":871,"x_min":88,"x_max":818,"o":"m 88 0 l 88 985 l 336 985 l 336 0 l 88 0 m 285 0 l 285 210 l 818 210 l 818 0 l 285 0 m 285 400 l 285 604 l 768 604 l 768 400 l 285 400 m 285 775 l 285 985 l 810 985 l 810 775 l 285 775 z "},"É":{"ha":871,"x_min":88,"x_max":818,"o":"m 88 0 l 88 985 l 336 985 l 336 0 l 88 0 m 285 0 l 285 210 l 818 210 l 818 0 l 285 0 m 285 400 l 285 604 l 768 604 l 768 400 l 285 400 m 285 775 l 285 985 l 810 985 l 810 775 l 285 775 m 353 1050 l 283 1169 l 526 1367 l 642 1178 l 353 1050 z "},"Ě":{"ha":871,"x_min":88,"x_max":818,"o":"m 88 0 l 88 985 l 336 985 l 336 0 l 88 0 m 285 0 l 285 210 l 818 210 l 818 0 l 285 0 m 285 400 l 285 604 l 768 604 l 768 400 l 285 400 m 285 775 l 285 985 l 810 985 l 810 775 l 285 775 m 667 1342 l 736 1239 l 526 1044 l 400 1044 l 190 1239 l 260 1342 l 557 1181 l 367 1181 l 667 1342 z "},"Ê":{"ha":871,"x_min":88,"x_max":818,"o":"m 88 0 l 88 985 l 336 985 l 336 0 l 88 0 m 285 0 l 285 210 l 818 210 l 818 0 l 285 0 m 285 400 l 285 604 l 768 604 l 768 400 l 285 400 m 285 775 l 285 985 l 810 985 l 810 775 l 285 775 m 260 1044 l 190 1147 l 400 1342 l 526 1342 l 736 1147 l 667 1044 l 368 1207 l 558 1206 l 260 1044 z "},"Ë":{"ha":871,"x_min":88,"x_max":818,"o":"m 88 0 l 88 985 l 336 985 l 336 0 l 88 0 m 285 0 l 285 210 l 818 210 l 818 0 l 285 0 m 285 400 l 285 604 l 768 604 l 768 400 l 285 400 m 285 775 l 285 985 l 810 985 l 810 775 l 285 775 m 308 1060 q 218 1097 254 1060 q 182 1189 182 1135 q 218 1281 182 1243 q 308 1318 254 1318 q 399 1281 364 1318 q 435 1189 435 1243 q 399 1097 435 1135 q 308 1060 364 1060 m 621 1060 q 531 1097 567 1060 q 494 1189 494 1135 q 531 1281 494 1243 q 621 1318 567 1318 q 712 1281 676 1318 q 747 1189 747 1243 q 712 1097 747 1135 q 621 1060 676 1060 z "},"Ė":{"ha":871,"x_min":88,"x_max":818,"o":"m 88 0 l 88 985 l 336 985 l 336 0 l 88 0 m 285 0 l 285 210 l 818 210 l 818 0 l 285 0 m 285 400 l 285 604 l 768 604 l 768 400 l 285 400 m 285 775 l 285 985 l 810 985 l 810 775 l 285 775 m 464 1060 q 374 1097 410 1060 q 338 1189 338 1135 q 374 1281 338 1243 q 464 1318 410 1318 q 556 1281 521 1318 q 592 1189 592 1243 q 556 1097 592 1135 q 464 1060 521 1060 z "},"È":{"ha":871,"x_min":88,"x_max":818,"o":"m 88 0 l 88 985 l 336 985 l 336 0 l 88 0 m 285 0 l 285 210 l 818 210 l 818 0 l 285 0 m 285 400 l 285 604 l 768 604 l 768 400 l 285 400 m 285 775 l 285 985 l 810 985 l 810 775 l 285 775 m 546 1057 l 257 1185 l 374 1374 l 615 1176 l 546 1057 z "},"Ē":{"ha":871,"x_min":88,"x_max":818,"o":"m 88 0 l 88 985 l 336 985 l 336 0 l 88 0 m 285 0 l 285 210 l 818 210 l 818 0 l 285 0 m 285 400 l 285 604 l 768 604 l 768 400 l 285 400 m 285 775 l 285 985 l 810 985 l 810 775 l 285 775 m 194 1279 l 733 1279 l 733 1106 l 194 1106 l 194 1279 z "},"Ę":{"ha":871,"x_min":88,"x_max":850,"o":"m 88 0 l 88 985 l 336 985 l 336 0 l 88 0 m 285 0 l 285 210 l 818 210 l 818 0 l 285 0 m 285 400 l 285 604 l 768 604 l 768 400 l 285 400 m 285 775 l 285 985 l 810 985 l 810 775 l 285 775 m 694 -301 q 533 -258 593 -301 q 472 -135 472 -215 q 526 -6 472 -57 q 667 53 581 44 l 818 0 q 731 -42 761 -17 q 700 -107 700 -67 q 713 -144 700 -132 q 749 -157 725 -157 q 775 -152 763 -157 q 801 -142 788 -147 l 850 -264 q 780 -292 818 -282 q 694 -301 742 -301 z "},"F":{"ha":836,"x_min":88,"x_max":794,"o":"m 88 0 l 88 985 l 336 985 l 336 0 l 88 0 m 285 368 l 285 578 l 772 578 l 772 368 l 285 368 m 285 775 l 285 985 l 794 985 l 794 775 l 285 775 z "},"G":{"ha":1099,"x_min":39,"x_max":1068,"o":"m 564 -15 q 356 23 451 -15 q 190 131 261 61 q 78 292 118 200 q 39 493 39 385 q 80 695 39 603 q 194 856 121 788 q 366 963 268 925 q 575 1001 464 1001 q 814 955 707 1001 q 988 826 921 908 l 821 660 q 711 749 771 719 q 572 779 651 779 q 428 744 492 779 q 328 644 365 708 q 290 494 290 581 q 326 343 290 408 q 423 242 361 278 q 565 206 485 206 q 702 236 646 206 q 788 325 758 267 q 818 464 818 383 l 986 356 l 538 367 l 538 569 l 1068 569 l 1068 532 q 1004 233 1068 356 q 827 48 940 111 q 564 -15 714 -15 z "},"Ğ":{"ha":1099,"x_min":39,"x_max":1068,"o":"m 564 -15 q 356 23 451 -15 q 190 131 261 61 q 78 292 118 200 q 39 493 39 385 q 80 695 39 603 q 194 856 121 788 q 366 963 268 925 q 575 1001 464 1001 q 814 955 707 1001 q 988 826 921 908 l 821 660 q 711 749 771 719 q 572 779 651 779 q 428 744 492 779 q 328 644 365 708 q 290 494 290 581 q 326 343 290 408 q 423 242 361 278 q 565 206 485 206 q 702 236 646 206 q 788 325 758 267 q 818 464 818 383 l 986 356 l 538 367 l 538 569 l 1068 569 l 1068 532 q 1004 233 1068 356 q 827 48 940 111 q 564 -15 714 -15 m 836 1313 q 800 1176 836 1238 q 703 1078 764 1114 q 565 1042 642 1042 q 424 1078 486 1042 q 326 1175 363 1114 q 290 1313 290 1236 l 469 1313 q 497 1243 469 1271 q 565 1215 524 1215 q 612 1228 592 1215 q 644 1263 632 1240 q 656 1313 656 1285 l 836 1313 z "},"Ģ":{"ha":1099,"x_min":39,"x_max":1068,"o":"m 564 -15 q 356 23 451 -15 q 190 131 261 61 q 78 292 118 200 q 39 493 39 385 q 80 695 39 603 q 194 856 121 788 q 366 963 268 925 q 575 1001 464 1001 q 814 955 707 1001 q 988 826 921 908 l 821 660 q 711 749 771 719 q 572 779 651 779 q 428 744 492 779 q 328 644 365 708 q 290 494 290 581 q 326 343 290 408 q 423 242 361 278 q 565 206 485 206 q 702 236 646 206 q 788 325 758 267 q 818 464 818 383 l 986 356 l 538 367 l 538 569 l 1068 569 l 1068 532 q 1004 233 1068 356 q 827 48 940 111 q 564 -15 714 -15 m 476 -574 l 379 -490 l 521 -321 l 593 -315 q 558 -347 576 -335 q 522 -354 540 -358 q 451 -301 478 -344 q 436 -204 424 -258 q 495 -114 449 -147 q 601 -93 542 -81 q 688 -155 657 -106 q 707 -262 719 -204 q 687 -316 703 -286 q 632 -389 671 -346 l 476 -574 z "},"Ġ":{"ha":1099,"x_min":39,"x_max":1068,"o":"m 564 -15 q 356 23 451 -15 q 190 131 261 61 q 78 292 118 200 q 39 493 39 385 q 80 695 39 603 q 194 856 121 788 q 366 963 268 925 q 575 1001 464 1001 q 814 955 707 1001 q 988 826 921 908 l 821 660 q 711 749 771 719 q 572 779 651 779 q 428 744 492 779 q 328 644 365 708 q 290 494 290 581 q 326 343 290 408 q 423 242 361 278 q 565 206 485 206 q 702 236 646 206 q 788 325 758 267 q 818 464 818 383 l 986 356 l 538 367 l 538 569 l 1068 569 l 1068 532 q 1004 233 1068 356 q 827 48 940 111 q 564 -15 714 -15 m 564 1060 q 474 1097 510 1060 q 438 1189 438 1135 q 474 1281 438 1243 q 564 1318 510 1318 q 656 1281 621 1318 q 692 1189 692 1243 q 656 1097 692 1135 q 564 1060 621 1060 z "},"H":{"ha":1026,"x_min":88,"x_max":939,"o":"m 88 0 l 88 985 l 336 985 l 336 0 l 88 0 m 690 0 l 690 985 l 939 985 l 939 0 l 690 0 m 229 400 l 229 608 l 781 608 l 781 400 l 229 400 z "},"Ħ":{"ha":1026,"x_min":0,"x_max":1026,"o":"m 0 692 l 0 883 l 1026 883 l 1026 692 l 0 692 m 88 0 l 88 985 l 336 985 l 336 0 l 88 0 m 690 0 l 690 985 l 939 985 l 939 0 l 690 0 m 229 400 l 229 608 l 781 608 l 781 400 l 229 400 z "},"I":{"ha":424,"x_min":88,"x_max":336,"o":"m 88 0 l 88 985 l 336 985 l 336 0 l 88 0 z "},"Ĳ":{"ha":1014,"x_min":88,"x_max":942,"o":"m 554 -15 q 387 19 457 -15 q 264 115 317 53 l 425 275 q 484 223 450 240 q 561 206 518 206 q 628 222 599 206 q 676 269 658 238 q 693 349 693 300 l 693 985 l 942 985 l 942 360 q 895 159 942 243 q 762 30 849 75 q 554 -15 675 -15 m 89 306 l 89 985 l 331 985 l 331 306 l 89 306 z "},"Í":{"ha":424,"x_min":32,"x_max":390,"o":"m 88 0 l 88 985 l 336 985 l 336 0 l 88 0 m 101 1050 l 32 1169 l 275 1367 l 390 1178 l 101 1050 z "},"Î":{"ha":424,"x_min":-61,"x_max":485,"o":"m 88 0 l 88 985 l 336 985 l 336 0 l 88 0 m 8 1044 l -61 1147 l 149 1342 l 275 1342 l 485 1147 l 415 1044 l 117 1207 l 307 1206 l 8 1044 z "},"Ï":{"ha":424,"x_min":-71,"x_max":496,"o":"m 88 0 l 88 985 l 336 985 l 336 0 l 88 0 m 57 1060 q -33 1097 3 1060 q -69 1189 -69 1135 q -33 1281 -69 1243 q 57 1318 3 1318 q 148 1281 113 1318 q 183 1189 183 1243 q 148 1097 183 1135 q 57 1060 113 1060 m 369 1060 q 279 1097 315 1060 q 243 1189 243 1135 q 279 1281 243 1243 q 369 1318 315 1318 q 460 1281 425 1318 q 496 1189 496 1243 q 460 1097 496 1135 q 369 1060 425 1060 z "},"İ":{"ha":424,"x_min":86,"x_max":339,"o":"m 88 0 l 88 985 l 336 985 l 336 0 l 88 0 m 213 1060 q 122 1097 158 1060 q 86 1189 86 1135 q 122 1281 86 1243 q 213 1318 158 1318 q 305 1281 269 1318 q 340 1189 340 1243 q 305 1097 340 1135 q 213 1060 269 1060 z "},"Ì":{"ha":424,"x_min":6,"x_max":364,"o":"m 88 0 l 88 985 l 336 985 l 336 0 l 88 0 m 294 1057 l 6 1185 l 122 1374 l 364 1176 l 294 1057 z "},"Ī":{"ha":424,"x_min":-51,"x_max":475,"o":"m -51 1279 l 475 1279 l 475 1106 l -51 1106 l -51 1279 m 88 0 l 88 985 l 336 985 l 336 0 l 88 0 z "},"Į":{"ha":424,"x_min":-10,"x_max":368,"o":"m 88 0 l 88 985 l 336 985 l 336 0 l 88 0 m 213 -301 q 51 -258 111 -301 q -10 -135 -10 -215 q 44 -6 -10 -57 q 185 53 99 44 l 336 0 q 249 -42 279 -17 q 218 -107 218 -67 q 231 -144 218 -132 q 267 -157 243 -157 q 293 -152 281 -157 q 319 -142 306 -147 l 368 -264 q 298 -292 336 -282 q 213 -301 260 -301 z "},"J":{"ha":764,"x_min":14,"x_max":692,"o":"m 304 -15 q 137 19 207 -15 q 14 115 67 53 l 175 275 q 234 223 200 240 q 311 206 268 206 q 378 222 349 206 q 426 269 408 238 q 443 349 443 300 l 443 985 l 692 985 l 692 360 q 645 159 692 243 q 512 30 599 75 q 304 -15 425 -15 z "},"K":{"ha":1001,"x_min":88,"x_max":988,"o":"m 685 0 l 313 514 l 669 985 l 972 985 l 565 474 l 565 561 l 988 0 l 685 0 m 88 0 l 88 985 l 336 985 l 336 0 l 88 0 z "},"Ķ":{"ha":1001,"x_min":88,"x_max":988,"o":"m 685 0 l 313 514 l 669 985 l 972 985 l 565 474 l 565 561 l 988 0 l 685 0 m 88 0 l 88 985 l 336 985 l 336 0 l 88 0 m 382 -574 l 285 -490 l 426 -321 l 499 -315 q 464 -347 482 -335 q 428 -354 446 -358 q 356 -301 383 -344 q 342 -204 329 -258 q 401 -114 354 -147 q 507 -93 447 -81 q 594 -155 563 -106 q 613 -262 625 -204 q 592 -316 608 -286 q 538 -389 576 -346 l 382 -574 z "},"L":{"ha":788,"x_min":88,"x_max":760,"o":"m 88 0 l 88 985 l 336 985 l 336 0 l 88 0 m 285 0 l 285 214 l 760 214 l 760 0 l 285 0 z "},"Ĺ":{"ha":788,"x_min":88,"x_max":760,"o":"m 88 0 l 88 985 l 336 985 l 336 0 l 88 0 m 285 0 l 285 214 l 760 214 l 760 0 l 285 0 m 314 1050 l 244 1169 l 488 1367 l 603 1178 l 314 1050 z "},"Ľ":{"ha":788,"x_min":88,"x_max":760,"o":"m 88 0 l 88 985 l 336 985 l 336 0 l 88 0 m 285 0 l 285 214 l 760 214 l 760 0 l 285 0 m 563 488 l 450 550 l 554 746 l 624 765 q 597 728 613 743 q 563 714 582 714 q 483 750 519 714 q 446 842 446 786 q 485 942 446 900 q 586 985 525 985 q 683 943 642 985 q 725 842 725 901 q 716 785 725 817 q 679 701 707 753 l 563 488 z "},"Ļ":{"ha":788,"x_min":88,"x_max":760,"o":"m 88 0 l 88 985 l 336 985 l 336 0 l 88 0 m 285 0 l 285 214 l 760 214 l 760 0 l 285 0 m 336 -574 l 239 -490 l 381 -321 l 453 -315 q 418 -347 436 -335 q 382 -354 400 -358 q 310 -301 338 -344 q 296 -204 283 -258 q 355 -114 308 -147 q 461 -93 401 -81 q 548 -155 517 -106 q 567 -262 579 -204 q 547 -316 563 -286 q 492 -389 531 -346 l 336 -574 z "},"Ł":{"ha":838,"x_min":71,"x_max":810,"o":"m 71 497 l 494 743 l 494 540 l 71 297 l 71 497 m 139 0 l 139 985 l 386 985 l 386 0 l 139 0 m 336 0 l 336 214 l 810 214 l 810 0 l 336 0 z "},"M":{"ha":1203,"x_min":88,"x_max":1115,"o":"m 88 0 l 88 985 l 267 985 l 644 414 l 560 414 l 936 985 l 1115 985 l 1115 0 l 869 0 l 869 574 l 908 563 l 682 222 l 521 222 l 296 563 l 335 574 l 335 0 l 88 0 z "},"N":{"ha":1039,"x_min":88,"x_max":951,"o":"m 88 0 l 88 985 l 261 985 l 336 783 l 336 0 l 88 0 m 767 0 l 192 731 l 261 985 l 838 254 l 767 0 m 767 0 l 703 207 l 703 985 l 951 985 l 951 0 l 767 0 z "},"Ń":{"ha":1039,"x_min":88,"x_max":951,"o":"m 88 0 l 88 985 l 261 985 l 336 783 l 336 0 l 88 0 m 767 0 l 192 731 l 261 985 l 838 254 l 767 0 m 767 0 l 703 207 l 703 985 l 951 985 l 951 0 l 767 0 m 410 1050 l 340 1169 l 583 1367 l 699 1178 l 410 1050 z "},"Ň":{"ha":1039,"x_min":88,"x_max":951,"o":"m 88 0 l 88 985 l 261 985 l 336 783 l 336 0 l 88 0 m 767 0 l 192 731 l 261 985 l 838 254 l 767 0 m 767 0 l 703 207 l 703 985 l 951 985 l 951 0 l 767 0 m 722 1342 l 792 1239 l 582 1044 l 456 1044 l 246 1239 l 315 1342 l 614 1181 l 424 1181 l 722 1342 z "},"Ņ":{"ha":1039,"x_min":88,"x_max":951,"o":"m 88 0 l 88 985 l 261 985 l 336 783 l 336 0 l 88 0 m 767 0 l 192 731 l 261 985 l 838 254 l 767 0 m 767 0 l 703 207 l 703 985 l 951 985 l 951 0 l 767 0 m 432 -574 l 335 -490 l 476 -321 l 549 -315 q 514 -347 532 -335 q 478 -354 496 -358 q 406 -301 433 -344 q 392 -204 379 -258 q 451 -114 404 -147 q 557 -93 497 -81 q 644 -155 613 -106 q 663 -262 675 -204 q 642 -316 658 -286 q 588 -389 626 -346 l 432 -574 z "},"Ñ":{"ha":1039,"x_min":88,"x_max":951,"o":"m 88 0 l 88 985 l 261 985 l 336 783 l 336 0 l 88 0 m 767 0 l 192 731 l 261 985 l 838 254 l 767 0 m 767 0 l 703 207 l 703 985 l 951 985 l 951 0 l 767 0 m 622 1053 q 545 1068 578 1053 q 485 1098 513 1083 q 426 1113 457 1113 q 372 1099 394 1113 q 329 1057 349 1086 l 219 1168 q 306 1264 258 1235 q 417 1293 354 1293 q 494 1278 461 1293 q 554 1249 526 1264 q 611 1233 582 1233 q 667 1247 644 1233 q 708 1289 690 1261 l 818 1179 q 732 1083 779 1113 q 622 1053 685 1053 z "},"Ŋ":{"ha":1039,"x_min":88,"x_max":951,"o":"m 88 0 l 88 985 l 261 985 l 336 783 l 336 0 l 88 0 m 767 0 l 192 731 l 261 985 l 838 254 l 767 0 m 767 0 l 703 207 l 703 985 l 951 985 l 951 0 l 767 0 m 665 -308 q 535 -283 590 -308 q 442 -214 481 -257 l 590 -65 q 619 -87 604 -81 q 649 -93 633 -93 q 693 -78 676 -93 q 710 -28 710 -62 l 710 679 l 951 679 l 951 -24 q 915 -172 951 -108 q 815 -272 879 -236 q 665 -308 750 -308 z "},"O":{"ha":1128,"x_min":38,"x_max":1090,"o":"m 567 -18 q 357 21 453 -18 q 190 129 261 60 q 78 292 118 199 q 38 494 38 386 q 77 695 38 603 q 188 857 117 788 q 354 965 258 926 q 564 1003 450 1003 q 774 965 678 1003 q 940 857 869 926 q 1051 694 1011 788 q 1090 493 1090 601 q 1051 292 1090 385 q 940 128 1011 199 q 774 20 869 58 q 567 -18 679 -18 m 564 204 q 708 240 647 204 q 803 342 769 276 q 836 494 836 407 q 817 611 836 558 q 763 702 799 664 q 676 761 726 740 q 564 782 626 782 q 419 747 481 782 q 325 646 358 711 q 292 494 292 581 q 310 374 292 428 q 365 283 329 321 q 451 224 401 244 q 564 204 501 204 z "},"Ó":{"ha":1128,"x_min":38,"x_max":1090,"o":"m 567 -18 q 357 21 453 -18 q 190 129 261 60 q 78 292 118 199 q 38 494 38 386 q 77 695 38 603 q 188 857 117 788 q 354 965 258 926 q 564 1003 450 1003 q 774 965 678 1003 q 940 857 869 926 q 1051 694 1011 788 q 1090 493 1090 601 q 1051 292 1090 385 q 940 128 1011 199 q 774 20 869 58 q 567 -18 679 -18 m 564 204 q 708 240 647 204 q 803 342 769 276 q 836 494 836 407 q 817 611 836 558 q 763 702 799 664 q 676 761 726 740 q 564 782 626 782 q 419 747 481 782 q 325 646 358 711 q 292 494 292 581 q 310 374 292 428 q 365 283 329 321 q 451 224 401 244 q 564 204 501 204 m 454 1050 l 385 1169 l 628 1367 l 743 1178 l 454 1050 z "},"Ô":{"ha":1128,"x_min":38,"x_max":1090,"o":"m 567 -18 q 357 21 453 -18 q 190 129 261 60 q 78 292 118 199 q 38 494 38 386 q 77 695 38 603 q 188 857 117 788 q 354 965 258 926 q 564 1003 450 1003 q 774 965 678 1003 q 940 857 869 926 q 1051 694 1011 788 q 1090 493 1090 601 q 1051 292 1090 385 q 940 128 1011 199 q 774 20 869 58 q 567 -18 679 -18 m 564 204 q 708 240 647 204 q 803 342 769 276 q 836 494 836 407 q 817 611 836 558 q 763 702 799 664 q 676 761 726 740 q 564 782 626 782 q 419 747 481 782 q 325 646 358 711 q 292 494 292 581 q 310 374 292 428 q 365 283 329 321 q 451 224 401 244 q 564 204 501 204 m 360 1044 l 290 1147 l 500 1342 l 626 1342 l 836 1147 l 767 1044 l 468 1207 l 658 1206 l 360 1044 z "},"Ö":{"ha":1128,"x_min":38,"x_max":1090,"o":"m 567 -18 q 357 21 453 -18 q 190 129 261 60 q 78 292 118 199 q 38 494 38 386 q 77 695 38 603 q 188 857 117 788 q 354 965 258 926 q 564 1003 450 1003 q 774 965 678 1003 q 940 857 869 926 q 1051 694 1011 788 q 1090 493 1090 601 q 1051 292 1090 385 q 940 128 1011 199 q 774 20 869 58 q 567 -18 679 -18 m 564 204 q 708 240 647 204 q 803 342 769 276 q 836 494 836 407 q 817 611 836 558 q 763 702 799 664 q 676 761 726 740 q 564 782 626 782 q 419 747 481 782 q 325 646 358 711 q 292 494 292 581 q 310 374 292 428 q 365 283 329 321 q 451 224 401 244 q 564 204 501 204 m 408 1060 q 318 1097 354 1060 q 282 1189 282 1135 q 318 1281 282 1243 q 408 1318 354 1318 q 499 1281 464 1318 q 535 1189 535 1243 q 499 1097 535 1135 q 408 1060 464 1060 m 721 1060 q 631 1097 667 1060 q 594 1189 594 1135 q 631 1281 594 1243 q 721 1318 667 1318 q 812 1281 776 1318 q 847 1189 847 1243 q 812 1097 847 1135 q 721 1060 776 1060 z "},"Ò":{"ha":1128,"x_min":38,"x_max":1090,"o":"m 567 -18 q 357 21 453 -18 q 190 129 261 60 q 78 292 118 199 q 38 494 38 386 q 77 695 38 603 q 188 857 117 788 q 354 965 258 926 q 564 1003 450 1003 q 774 965 678 1003 q 940 857 869 926 q 1051 694 1011 788 q 1090 493 1090 601 q 1051 292 1090 385 q 940 128 1011 199 q 774 20 869 58 q 567 -18 679 -18 m 564 204 q 708 240 647 204 q 803 342 769 276 q 836 494 836 407 q 817 611 836 558 q 763 702 799 664 q 676 761 726 740 q 564 782 626 782 q 419 747 481 782 q 325 646 358 711 q 292 494 292 581 q 310 374 292 428 q 365 283 329 321 q 451 224 401 244 q 564 204 501 204 m 647 1057 l 358 1185 l 475 1374 l 717 1176 l 647 1057 z "},"Ő":{"ha":1128,"x_min":38,"x_max":1090,"o":"m 567 -18 q 357 21 453 -18 q 190 129 261 60 q 78 292 118 199 q 38 494 38 386 q 77 695 38 603 q 188 857 117 788 q 354 965 258 926 q 564 1003 450 1003 q 774 965 678 1003 q 940 857 869 926 q 1051 694 1011 788 q 1090 493 1090 601 q 1051 292 1090 385 q 940 128 1011 199 q 774 20 869 58 q 567 -18 679 -18 m 564 204 q 708 240 647 204 q 803 342 769 276 q 836 494 836 407 q 817 611 836 558 q 763 702 799 664 q 676 761 726 740 q 564 782 626 782 q 419 747 481 782 q 325 646 358 711 q 292 494 292 581 q 310 374 292 428 q 365 283 329 321 q 451 224 401 244 q 564 204 501 204 m 367 1060 l 253 1138 l 390 1419 l 574 1297 l 367 1060 m 710 1060 l 596 1138 l 733 1419 l 917 1297 l 710 1060 z "},"Ō":{"ha":1128,"x_min":38,"x_max":1090,"o":"m 567 -18 q 357 21 453 -18 q 190 129 261 60 q 78 292 118 199 q 38 494 38 386 q 77 695 38 603 q 188 857 117 788 q 354 965 258 926 q 564 1003 450 1003 q 774 965 678 1003 q 940 857 869 926 q 1051 694 1011 788 q 1090 493 1090 601 q 1051 292 1090 385 q 940 128 1011 199 q 774 20 869 58 q 567 -18 679 -18 m 564 204 q 708 240 647 204 q 803 342 769 276 q 836 494 836 407 q 817 611 836 558 q 763 702 799 664 q 676 761 726 740 q 564 782 626 782 q 419 747 481 782 q 325 646 358 711 q 292 494 292 581 q 310 374 292 428 q 365 283 329 321 q 451 224 401 244 q 564 204 501 204 m 294 1279 l 833 1279 l 833 1106 l 294 1106 l 294 1279 z "},"Ø":{"ha":1128,"x_min":26,"x_max":1101,"o":"m 949 1029 l 1101 878 l 179 -44 l 26 108 l 949 1029 m 567 -18 q 357 21 453 -18 q 190 129 261 60 q 78 292 118 199 q 38 494 38 386 q 77 695 38 603 q 188 857 117 788 q 354 965 258 926 q 564 1003 450 1003 q 774 965 678 1003 q 940 857 869 926 q 1051 694 1011 788 q 1090 493 1090 601 q 1051 292 1090 385 q 940 128 1011 199 q 774 20 869 58 q 567 -18 679 -18 m 564 204 q 708 240 647 204 q 803 342 769 276 q 836 494 836 407 q 817 611 836 558 q 763 702 799 664 q 676 761 726 740 q 564 782 626 782 q 419 747 481 782 q 325 646 358 711 q 292 494 292 581 q 310 374 292 428 q 365 283 329 321 q 451 224 401 244 q 564 204 501 204 z "},"Õ":{"ha":1128,"x_min":38,"x_max":1090,"o":"m 567 -18 q 357 21 453 -18 q 190 129 261 60 q 78 292 118 199 q 38 494 38 386 q 77 695 38 603 q 188 857 117 788 q 354 965 258 926 q 564 1003 450 1003 q 774 965 678 1003 q 940 857 869 926 q 1051 694 1011 788 q 1090 493 1090 601 q 1051 292 1090 385 q 940 128 1011 199 q 774 20 869 58 q 567 -18 679 -18 m 564 204 q 708 240 647 204 q 803 342 769 276 q 836 494 836 407 q 817 611 836 558 q 763 702 799 664 q 676 761 726 740 q 564 782 626 782 q 419 747 481 782 q 325 646 358 711 q 292 494 292 581 q 310 374 292 428 q 365 283 329 321 q 451 224 401 244 q 564 204 501 204 m 667 1053 q 590 1068 622 1053 q 529 1098 557 1083 q 471 1113 501 1113 q 416 1099 439 1113 q 374 1057 393 1086 l 264 1168 q 351 1264 303 1235 q 461 1293 399 1293 q 538 1278 506 1293 q 599 1249 571 1264 q 656 1233 626 1233 q 712 1247 689 1233 q 753 1289 735 1261 l 863 1179 q 776 1083 824 1113 q 667 1053 729 1053 z "},"Œ":{"ha":1619,"x_min":38,"x_max":1567,"o":"m 556 -18 q 353 21 447 -18 q 188 129 258 60 q 78 292 118 199 q 38 494 38 386 q 77 695 38 603 q 187 857 117 788 q 351 965 257 926 q 553 1003 444 1003 q 748 965 667 1003 q 882 857 829 926 q 960 694 935 788 q 986 493 986 601 q 960 292 986 385 q 883 128 935 199 q 749 20 831 58 q 556 -18 668 -18 m 564 204 q 708 240 647 204 q 803 342 769 276 q 836 494 836 407 q 802 645 836 581 q 707 746 768 710 q 564 782 646 782 q 419 747 481 782 q 325 646 358 711 q 292 494 292 581 q 310 374 292 428 q 365 283 329 321 q 451 224 401 244 q 564 204 501 204 m 836 0 l 836 985 l 1085 985 l 1085 0 l 836 0 m 1032 0 l 1032 210 l 1567 210 l 1567 0 l 1032 0 m 1032 400 l 1032 604 l 1517 604 l 1517 400 l 1032 400 m 1032 775 l 1032 985 l 1558 985 l 1558 775 l 1032 775 z "},"P":{"ha":889,"x_min":88,"x_max":858,"o":"m 285 353 l 285 538 l 479 538 q 545 552 515 538 q 593 596 575 567 q 611 668 611 625 q 593 741 611 711 q 545 785 575 771 q 479 800 515 800 l 285 800 l 285 985 l 522 985 q 693 947 617 985 q 814 838 769 908 q 858 668 858 768 q 814 499 858 571 q 693 390 769 428 q 522 353 617 353 l 285 353 m 88 0 l 88 985 l 336 985 l 336 0 l 88 0 z "},"Þ":{"ha":889,"x_min":88,"x_max":858,"o":"m 285 185 l 285 369 l 479 369 q 545 384 515 369 q 593 428 575 399 q 611 500 611 457 q 593 573 611 543 q 545 617 575 603 q 479 632 515 632 l 285 632 l 285 817 l 522 817 q 693 778 617 817 q 814 670 769 740 q 858 500 858 600 q 814 331 858 403 q 693 222 769 260 q 522 185 617 185 l 285 185 m 88 0 l 88 985 l 336 985 l 336 0 l 88 0 z "},"Q":{"ha":1138,"x_min":39,"x_max":1138,"o":"m 567 -18 q 357 21 453 -18 q 190 129 261 60 q 78 292 118 199 q 39 494 39 386 q 78 695 39 603 q 188 857 117 788 q 354 965 258 926 q 564 1003 450 1003 q 774 965 678 1003 q 940 857 869 926 q 1051 694 1011 788 q 1090 493 1090 601 q 1051 292 1090 385 q 940 128 1011 199 q 774 20 869 58 q 567 -18 679 -18 m 1000 -85 l 531 385 l 669 522 l 1138 54 l 1000 -85 m 564 204 q 708 240 647 204 q 803 342 769 276 q 836 494 836 407 q 817 611 836 558 q 763 702 799 664 q 676 761 726 740 q 564 782 626 782 q 420 747 482 782 q 325 646 358 711 q 292 494 292 581 q 311 374 292 428 q 366 283 331 321 q 452 224 401 244 q 564 204 503 204 z "},"R":{"ha":921,"x_min":88,"x_max":908,"o":"m 285 399 l 285 576 l 472 576 q 566 606 533 576 q 599 688 599 636 q 566 769 599 738 q 472 800 533 800 l 285 800 l 285 985 l 507 985 q 683 947 607 985 q 801 844 758 910 q 844 692 844 779 q 801 538 844 604 q 679 435 757 472 q 497 399 601 399 l 285 399 m 88 0 l 88 985 l 336 985 l 336 0 l 88 0 m 621 0 l 335 422 l 558 476 l 908 0 l 621 0 z "},"Ŕ":{"ha":921,"x_min":88,"x_max":908,"o":"m 285 399 l 285 576 l 472 576 q 566 606 533 576 q 599 688 599 636 q 566 769 599 738 q 472 800 533 800 l 285 800 l 285 985 l 507 985 q 683 947 607 985 q 801 844 758 910 q 844 692 844 779 q 801 538 844 604 q 679 435 757 472 q 497 399 601 399 l 285 399 m 88 0 l 88 985 l 336 985 l 336 0 l 88 0 m 621 0 l 335 422 l 558 476 l 908 0 l 621 0 m 304 1050 l 235 1169 l 478 1367 l 593 1178 l 304 1050 z "},"Ř":{"ha":921,"x_min":88,"x_max":908,"o":"m 285 399 l 285 576 l 472 576 q 566 606 533 576 q 599 688 599 636 q 566 769 599 738 q 472 800 533 800 l 285 800 l 285 985 l 507 985 q 683 947 607 985 q 801 844 758 910 q 844 692 844 779 q 801 538 844 604 q 679 435 757 472 q 497 399 601 399 l 285 399 m 88 0 l 88 985 l 336 985 l 336 0 l 88 0 m 621 0 l 335 422 l 558 476 l 908 0 l 621 0 m 617 1342 l 686 1239 l 476 1044 l 351 1044 l 142 1239 l 211 1342 l 508 1181 l 318 1181 l 617 1342 z "},"Ŗ":{"ha":921,"x_min":88,"x_max":908,"o":"m 285 399 l 285 576 l 472 576 q 566 606 533 576 q 599 688 599 636 q 566 769 599 738 q 472 800 533 800 l 285 800 l 285 985 l 507 985 q 683 947 607 985 q 801 844 758 910 q 844 692 844 779 q 801 538 844 604 q 679 435 757 472 q 497 399 601 399 l 285 399 m 88 0 l 88 985 l 336 985 l 336 0 l 88 0 m 621 0 l 335 422 l 558 476 l 908 0 l 621 0 m 332 -574 l 235 -490 l 376 -321 l 449 -315 q 414 -347 432 -335 q 378 -354 396 -358 q 306 -301 333 -344 q 292 -204 279 -258 q 351 -114 304 -147 q 457 -93 397 -81 q 544 -155 513 -106 q 563 -262 575 -204 q 542 -316 558 -286 q 488 -389 526 -346 l 332 -574 z "},"S":{"ha":828,"x_min":15,"x_max":789,"o":"m 396 -15 q 181 22 272 -15 q 15 140 90 60 l 172 299 q 282 216 224 244 q 414 188 340 188 q 510 209 476 188 q 544 268 544 231 q 519 326 544 303 q 453 366 494 349 q 363 399 413 383 q 265 438 314 415 q 174 494 215 461 q 108 578 133 528 q 83 701 83 628 q 128 863 83 796 q 254 965 174 929 q 442 1001 335 1001 q 639 965 549 1001 q 788 865 729 929 l 629 708 q 539 775 585 753 q 439 797 493 797 q 358 779 388 797 q 329 728 329 761 q 354 674 329 694 q 420 637 379 653 q 510 604 461 621 q 608 565 560 588 q 698 508 657 543 q 764 421 739 474 q 789 293 789 368 q 685 65 789 146 q 396 -15 582 -15 z "},"Ś":{"ha":828,"x_min":15,"x_max":789,"o":"m 396 -15 q 181 22 272 -15 q 15 140 90 60 l 172 299 q 282 216 224 244 q 414 188 340 188 q 510 209 476 188 q 544 268 544 231 q 519 326 544 303 q 453 366 494 349 q 363 399 413 383 q 265 438 314 415 q 174 494 215 461 q 108 578 133 528 q 83 701 83 628 q 128 863 83 796 q 254 965 174 929 q 442 1001 335 1001 q 639 965 549 1001 q 788 865 729 929 l 629 708 q 539 775 585 753 q 439 797 493 797 q 358 779 388 797 q 329 728 329 761 q 354 674 329 694 q 420 637 379 653 q 510 604 461 621 q 608 565 560 588 q 698 508 657 543 q 764 421 739 474 q 789 293 789 368 q 685 65 789 146 q 396 -15 582 -15 m 331 1050 l 261 1169 l 504 1367 l 619 1178 l 331 1050 z "},"Š":{"ha":828,"x_min":15,"x_max":789,"o":"m 396 -15 q 181 22 272 -15 q 15 140 90 60 l 172 299 q 282 216 224 244 q 414 188 340 188 q 510 209 476 188 q 544 268 544 231 q 519 326 544 303 q 453 366 494 349 q 363 399 413 383 q 265 438 314 415 q 174 494 215 461 q 108 578 133 528 q 83 701 83 628 q 128 863 83 796 q 254 965 174 929 q 442 1001 335 1001 q 639 965 549 1001 q 788 865 729 929 l 629 708 q 539 775 585 753 q 439 797 493 797 q 358 779 388 797 q 329 728 329 761 q 354 674 329 694 q 420 637 379 653 q 510 604 461 621 q 608 565 560 588 q 698 508 657 543 q 764 421 739 474 q 789 293 789 368 q 685 65 789 146 q 396 -15 582 -15 m 644 1342 l 714 1239 l 504 1044 l 378 1044 l 168 1239 l 238 1342 l 535 1181 l 344 1181 l 644 1342 z "},"Ş":{"ha":828,"x_min":15,"x_max":789,"o":"m 396 -15 q 181 22 272 -15 q 15 140 90 60 l 172 299 q 282 216 224 244 q 414 188 340 188 q 510 209 476 188 q 544 268 544 231 q 519 326 544 303 q 453 366 494 349 q 363 399 413 383 q 265 438 314 415 q 174 494 215 461 q 108 578 133 528 q 83 701 83 628 q 128 863 83 796 q 254 965 174 929 q 442 1001 335 1001 q 639 965 549 1001 q 788 865 729 929 l 629 708 q 539 775 585 753 q 439 797 493 797 q 358 779 388 797 q 329 728 329 761 q 354 674 329 694 q 420 637 379 653 q 510 604 461 621 q 608 565 560 588 q 698 508 657 543 q 764 421 739 474 q 789 293 789 368 q 685 65 789 146 q 396 -15 582 -15 m 365 -301 q 268 -289 307 -301 q 188 -253 229 -276 l 256 -162 q 296 -182 275 -175 q 339 -189 317 -189 q 376 -181 365 -189 q 386 -161 386 -174 q 372 -140 386 -149 q 325 -132 357 -132 l 294 -132 l 340 17 l 465 17 l 426 -86 l 363 -32 q 508 -69 458 -32 q 558 -167 558 -106 q 506 -263 558 -225 q 365 -301 453 -301 z "},"Ș":{"ha":828,"x_min":15,"x_max":789,"o":"m 396 -15 q 181 22 272 -15 q 15 140 90 60 l 172 299 q 282 216 224 244 q 414 188 340 188 q 510 209 476 188 q 544 268 544 231 q 519 326 544 303 q 453 366 494 349 q 363 399 413 383 q 265 438 314 415 q 174 494 215 461 q 108 578 133 528 q 83 701 83 628 q 128 863 83 796 q 254 965 174 929 q 442 1001 335 1001 q 639 965 549 1001 q 788 865 729 929 l 629 708 q 539 775 585 753 q 439 797 493 797 q 358 779 388 797 q 329 728 329 761 q 354 674 329 694 q 420 637 379 653 q 510 604 461 621 q 608 565 560 588 q 698 508 657 543 q 764 421 739 474 q 789 293 789 368 q 685 65 789 146 q 396 -15 582 -15 m 314 -574 l 217 -490 l 358 -321 l 431 -315 q 396 -347 414 -335 q 360 -354 378 -358 q 288 -301 315 -344 q 274 -204 261 -258 q 333 -114 286 -147 q 439 -93 379 -81 q 526 -155 494 -106 q 544 -262 557 -204 q 524 -316 540 -286 q 469 -389 508 -346 l 314 -574 z "},"ẞ":{"ha":1042,"x_min":88,"x_max":1004,"o":"m 485 594 l 731 840 l 919 781 l 746 594 l 485 460 l 485 594 m 607 -3 q 506 4 551 -3 q 425 29 460 11 l 425 289 q 500 230 450 253 q 604 207 550 207 q 685 223 650 207 q 741 269 721 239 q 761 340 761 299 q 740 412 761 382 q 681 458 719 442 q 589 474 643 474 q 532 470 563 474 q 485 460 501 467 l 593 594 q 673 613 636 606 q 739 621 710 621 q 874 586 814 621 q 969 487 935 551 q 1004 333 1004 422 q 955 158 1004 233 q 817 40 906 82 q 607 -3 728 -3 m 540 1019 q 674 1007 607 1019 q 797 979 742 994 q 886 951 853 964 q 919 939 919 939 l 919 781 q 893 783 919 781 q 824 791 867 786 q 729 799 781 796 q 628 806 678 803 q 540 810 579 810 q 422 781 469 810 q 353 706 375 753 q 331 606 331 660 l 331 0 l 88 0 l 88 682 q 140 856 88 781 q 294 976 193 932 q 540 1019 396 1019 z "},"T":{"ha":901,"x_min":25,"x_max":876,"o":"m 326 0 l 326 978 l 575 978 l 575 0 l 326 0 m 25 771 l 25 985 l 876 985 l 876 771 l 25 771 z "},"Ť":{"ha":901,"x_min":25,"x_max":876,"o":"m 326 0 l 326 978 l 575 978 l 575 0 l 326 0 m 25 771 l 25 985 l 876 985 l 876 771 l 25 771 m 653 1342 l 722 1239 l 513 1044 l 388 1044 l 178 1239 l 247 1342 l 544 1181 l 354 1181 l 653 1342 z "},"Ț":{"ha":901,"x_min":25,"x_max":876,"o":"m 326 0 l 326 978 l 575 978 l 575 0 l 326 0 m 25 771 l 25 985 l 876 985 l 876 771 l 25 771 m 363 -574 l 265 -490 l 407 -321 l 479 -315 q 444 -347 463 -335 q 408 -354 426 -358 q 337 -301 364 -344 q 322 -204 310 -258 q 381 -114 335 -147 q 488 -93 428 -81 q 574 -155 543 -106 q 593 -262 606 -204 q 573 -316 589 -286 q 518 -389 557 -346 l 363 -574 z "},"U":{"ha":983,"x_min":72,"x_max":913,"o":"m 493 -15 q 273 37 368 -15 q 125 182 178 89 q 72 393 72 275 l 72 985 l 319 985 l 319 375 q 342 284 319 322 q 405 226 365 246 q 493 206 444 206 q 581 226 543 206 q 640 283 618 246 q 663 374 663 321 l 663 985 l 913 985 l 913 392 q 860 181 913 274 q 713 37 807 89 q 493 -15 619 -15 z "},"Ú":{"ha":983,"x_min":72,"x_max":913,"o":"m 493 -15 q 273 37 368 -15 q 125 182 178 89 q 72 393 72 275 l 72 985 l 319 985 l 319 375 q 342 284 319 322 q 405 226 365 246 q 493 206 444 206 q 581 226 543 206 q 640 283 618 246 q 663 374 663 321 l 663 985 l 913 985 l 913 392 q 860 181 913 274 q 713 37 807 89 q 493 -15 619 -15 m 382 1050 l 313 1169 l 556 1367 l 671 1178 l 382 1050 z "},"Ŭ":{"ha":983,"x_min":72,"x_max":913,"o":"m 493 -15 q 273 37 368 -15 q 125 182 178 89 q 72 393 72 275 l 72 985 l 319 985 l 319 375 q 342 284 319 322 q 405 226 365 246 q 493 206 444 206 q 581 226 543 206 q 640 283 618 246 q 663 374 663 321 l 663 985 l 913 985 l 913 392 q 860 181 913 274 q 713 37 807 89 q 493 -15 619 -15 m 764 1313 q 728 1176 764 1238 q 631 1078 692 1114 q 493 1042 569 1042 q 352 1078 414 1042 q 254 1175 290 1114 q 218 1313 218 1236 l 397 1313 q 424 1243 397 1271 q 493 1215 451 1215 q 540 1228 519 1215 q 572 1263 560 1240 q 583 1313 583 1285 l 764 1313 z "},"Û":{"ha":983,"x_min":72,"x_max":913,"o":"m 493 -15 q 273 37 368 -15 q 125 182 178 89 q 72 393 72 275 l 72 985 l 319 985 l 319 375 q 342 284 319 322 q 405 226 365 246 q 493 206 444 206 q 581 226 543 206 q 640 283 618 246 q 663 374 663 321 l 663 985 l 913 985 l 913 392 q 860 181 913 274 q 713 37 807 89 q 493 -15 619 -15 m 288 1044 l 218 1147 l 428 1342 l 554 1342 l 764 1147 l 694 1044 l 396 1207 l 586 1206 l 288 1044 z "},"Ü":{"ha":983,"x_min":72,"x_max":913,"o":"m 493 -15 q 273 37 368 -15 q 125 182 178 89 q 72 393 72 275 l 72 985 l 319 985 l 319 375 q 342 284 319 322 q 405 226 365 246 q 493 206 444 206 q 581 226 543 206 q 640 283 618 246 q 663 374 663 321 l 663 985 l 913 985 l 913 392 q 860 181 913 274 q 713 37 807 89 q 493 -15 619 -15 m 336 1060 q 246 1097 282 1060 q 210 1189 210 1135 q 246 1281 210 1243 q 336 1318 282 1318 q 427 1281 392 1318 q 463 1189 463 1243 q 427 1097 463 1135 q 336 1060 392 1060 m 649 1060 q 558 1097 594 1060 q 522 1189 522 1135 q 558 1281 522 1243 q 649 1318 594 1318 q 740 1281 704 1318 q 775 1189 775 1243 q 740 1097 775 1135 q 649 1060 704 1060 z "},"Ù":{"ha":983,"x_min":72,"x_max":913,"o":"m 493 -15 q 273 37 368 -15 q 125 182 178 89 q 72 393 72 275 l 72 985 l 319 985 l 319 375 q 342 284 319 322 q 405 226 365 246 q 493 206 444 206 q 581 226 543 206 q 640 283 618 246 q 663 374 663 321 l 663 985 l 913 985 l 913 392 q 860 181 913 274 q 713 37 807 89 q 493 -15 619 -15 m 575 1057 l 286 1185 l 403 1374 l 644 1176 l 575 1057 z "},"Ű":{"ha":983,"x_min":72,"x_max":913,"o":"m 493 -15 q 273 37 368 -15 q 125 182 178 89 q 72 393 72 275 l 72 985 l 319 985 l 319 375 q 342 284 319 322 q 405 226 365 246 q 493 206 444 206 q 581 226 543 206 q 640 283 618 246 q 663 374 663 321 l 663 985 l 913 985 l 913 392 q 860 181 913 274 q 713 37 807 89 q 493 -15 619 -15 m 294 1060 l 181 1138 l 318 1419 l 501 1297 l 294 1060 m 638 1060 l 524 1138 l 661 1419 l 844 1297 l 638 1060 z "},"Ū":{"ha":983,"x_min":72,"x_max":913,"o":"m 493 -15 q 273 37 368 -15 q 125 182 178 89 q 72 393 72 275 l 72 985 l 319 985 l 319 375 q 342 284 319 322 q 405 226 365 246 q 493 206 444 206 q 581 226 543 206 q 640 283 618 246 q 663 374 663 321 l 663 985 l 913 985 l 913 392 q 860 181 913 274 q 713 37 807 89 q 493 -15 619 -15 m 222 1279 l 761 1279 l 761 1106 l 222 1106 l 222 1279 z "},"Ų":{"ha":983,"x_min":72,"x_max":913,"o":"m 493 -15 q 273 37 368 -15 q 125 182 178 89 q 72 393 72 275 l 72 985 l 319 985 l 319 375 q 342 284 319 322 q 405 226 365 246 q 493 206 444 206 q 581 226 543 206 q 640 283 618 246 q 663 374 663 321 l 663 985 l 913 985 l 913 392 q 860 181 913 274 q 713 37 807 89 q 493 -15 619 -15 m 539 -287 q 377 -244 438 -287 q 317 -121 317 -201 q 371 8 317 -43 q 511 67 425 58 l 663 14 q 575 -28 606 -3 q 544 -93 544 -53 q 557 -131 544 -118 q 593 -143 569 -143 q 619 -138 607 -143 q 646 -128 632 -133 l 694 -250 q 624 -278 663 -268 q 539 -287 586 -287 z "},"Ů":{"ha":983,"x_min":72,"x_max":913,"o":"m 493 -15 q 273 37 368 -15 q 125 182 178 89 q 72 393 72 275 l 72 985 l 319 985 l 319 375 q 342 284 319 322 q 405 226 365 246 q 493 206 444 206 q 581 226 543 206 q 640 283 618 246 q 663 374 663 321 l 663 985 l 913 985 l 913 392 q 860 181 913 274 q 713 37 807 89 q 493 -15 619 -15 m 493 1042 q 397 1067 439 1042 q 330 1133 354 1092 q 306 1225 306 1174 q 330 1319 306 1278 q 397 1385 354 1361 q 492 1410 439 1410 q 587 1385 544 1410 q 653 1319 629 1361 q 678 1226 678 1278 q 653 1132 678 1174 q 587 1066 629 1090 q 493 1042 544 1042 m 493 1164 q 535 1182 518 1164 q 551 1226 551 1200 q 535 1270 551 1253 q 493 1288 518 1288 q 449 1269 465 1288 q 432 1225 432 1251 q 449 1182 432 1200 q 493 1164 465 1164 z "},"V":{"ha":1003,"x_min":15,"x_max":986,"o":"m 386 0 l 15 985 l 281 985 l 558 189 l 444 189 l 726 985 l 986 985 l 611 0 l 386 0 z "},"W":{"ha":1406,"x_min":18,"x_max":1389,"o":"m 331 0 l 18 985 l 264 985 l 489 226 l 382 226 l 604 985 l 803 985 l 1025 226 l 919 226 l 1144 985 l 1389 985 l 1075 0 l 875 0 l 653 757 l 753 757 l 532 0 l 331 0 z "},"Ẃ":{"ha":1406,"x_min":18,"x_max":1389,"o":"m 331 0 l 18 985 l 264 985 l 489 226 l 382 226 l 604 985 l 803 985 l 1025 226 l 919 226 l 1144 985 l 1389 985 l 1075 0 l 875 0 l 653 757 l 753 757 l 532 0 l 331 0 m 593 1050 l 524 1169 l 767 1367 l 882 1178 l 593 1050 z "},"Ŵ":{"ha":1406,"x_min":18,"x_max":1389,"o":"m 331 0 l 18 985 l 264 985 l 489 226 l 382 226 l 604 985 l 803 985 l 1025 226 l 919 226 l 1144 985 l 1389 985 l 1075 0 l 875 0 l 653 757 l 753 757 l 532 0 l 331 0 m 499 1044 l 429 1147 l 639 1342 l 765 1342 l 975 1147 l 906 1044 l 607 1207 l 797 1206 l 499 1044 z "},"Ẅ":{"ha":1406,"x_min":18,"x_max":1389,"o":"m 331 0 l 18 985 l 264 985 l 489 226 l 382 226 l 604 985 l 803 985 l 1025 226 l 919 226 l 1144 985 l 1389 985 l 1075 0 l 875 0 l 653 757 l 753 757 l 532 0 l 331 0 m 547 1060 q 457 1097 493 1060 q 421 1189 421 1135 q 457 1281 421 1243 q 547 1318 493 1318 q 638 1281 603 1318 q 674 1189 674 1243 q 638 1097 674 1135 q 547 1060 603 1060 m 860 1060 q 769 1097 806 1060 q 733 1189 733 1135 q 769 1281 733 1243 q 860 1318 806 1318 q 951 1281 915 1318 q 986 1189 986 1243 q 951 1097 986 1135 q 860 1060 915 1060 z "},"Ẁ":{"ha":1406,"x_min":18,"x_max":1389,"o":"m 331 0 l 18 985 l 264 985 l 489 226 l 382 226 l 604 985 l 803 985 l 1025 226 l 919 226 l 1144 985 l 1389 985 l 1075 0 l 875 0 l 653 757 l 753 757 l 532 0 l 331 0 m 786 1057 l 497 1185 l 614 1374 l 856 1176 l 786 1057 z "},"X":{"ha":1006,"x_min":15,"x_max":990,"o":"m 699 0 l 432 439 l 407 439 l 32 985 l 328 985 l 589 571 l 614 571 l 990 0 l 699 0 m 15 0 l 374 526 l 569 433 l 299 0 l 15 0 m 619 461 l 424 556 l 689 985 l 972 985 l 619 461 z "},"Y":{"ha":964,"x_min":13,"x_max":951,"o":"m 389 353 l 13 985 l 297 985 l 585 472 l 385 472 l 672 985 l 951 985 l 572 353 l 389 353 m 360 0 l 360 454 l 608 454 l 608 0 l 360 0 z "},"Ý":{"ha":964,"x_min":13,"x_max":951,"o":"m 389 353 l 13 985 l 297 985 l 585 472 l 385 472 l 672 985 l 951 985 l 572 353 l 389 353 m 360 0 l 360 454 l 608 454 l 608 0 l 360 0 m 372 1050 l 303 1169 l 546 1367 l 661 1178 l 372 1050 z "},"Ŷ":{"ha":964,"x_min":13,"x_max":951,"o":"m 389 353 l 13 985 l 297 985 l 585 472 l 385 472 l 672 985 l 951 985 l 572 353 l 389 353 m 360 0 l 360 454 l 608 454 l 608 0 l 360 0 m 279 1044 l 210 1147 l 419 1342 l 546 1342 l 756 1147 l 686 1044 l 388 1207 l 578 1206 l 279 1044 z "},"Ÿ":{"ha":964,"x_min":13,"x_max":951,"o":"m 389 353 l 13 985 l 297 985 l 585 472 l 385 472 l 672 985 l 951 985 l 572 353 l 389 353 m 360 0 l 360 454 l 608 454 l 608 0 l 360 0 m 326 1060 q 236 1097 272 1060 q 200 1189 200 1135 q 236 1281 200 1243 q 326 1318 272 1318 q 417 1281 382 1318 q 453 1189 453 1243 q 417 1097 453 1135 q 326 1060 382 1060 m 639 1060 q 549 1097 585 1060 q 513 1189 513 1135 q 549 1281 513 1243 q 639 1318 585 1318 q 730 1281 694 1318 q 765 1189 765 1243 q 730 1097 765 1135 q 639 1060 694 1060 z "},"Ỳ":{"ha":964,"x_min":13,"x_max":951,"o":"m 389 353 l 13 985 l 297 985 l 585 472 l 385 472 l 672 985 l 951 985 l 572 353 l 389 353 m 360 0 l 360 454 l 608 454 l 608 0 l 360 0 m 565 1057 l 276 1185 l 393 1374 l 635 1176 l 565 1057 z "},"Z":{"ha":857,"x_min":39,"x_max":814,"o":"m 39 172 l 514 813 l 814 813 l 339 172 l 39 172 m 39 0 l 39 172 l 188 208 l 803 208 l 803 0 l 39 0 m 64 776 l 64 985 l 814 985 l 814 813 l 664 776 l 64 776 z "},"Ź":{"ha":857,"x_min":39,"x_max":814,"o":"m 39 172 l 514 813 l 814 813 l 339 172 l 39 172 m 39 0 l 39 172 l 188 208 l 803 208 l 803 0 l 39 0 m 64 776 l 64 985 l 814 985 l 814 813 l 664 776 l 64 776 m 325 1050 l 256 1169 l 499 1367 l 614 1178 l 325 1050 z "},"Ž":{"ha":857,"x_min":39,"x_max":814,"o":"m 39 172 l 514 813 l 814 813 l 339 172 l 39 172 m 39 0 l 39 172 l 188 208 l 803 208 l 803 0 l 39 0 m 64 776 l 64 985 l 814 985 l 814 813 l 664 776 l 64 776 m 638 1342 l 707 1239 l 497 1044 l 372 1044 l 163 1239 l 232 1342 l 529 1181 l 339 1181 l 638 1342 z "},"Ż":{"ha":857,"x_min":39,"x_max":814,"o":"m 39 172 l 514 813 l 814 813 l 339 172 l 39 172 m 39 0 l 39 172 l 188 208 l 803 208 l 803 0 l 39 0 m 64 776 l 64 985 l 814 985 l 814 813 l 664 776 l 64 776 m 435 1060 q 344 1097 381 1060 q 308 1189 308 1135 q 344 1281 308 1243 q 435 1318 381 1318 q 527 1281 492 1318 q 563 1189 563 1243 q 527 1097 563 1135 q 435 1060 492 1060 z "},"a":{"ha":838,"x_min":29,"x_max":767,"o":"m 354 -14 q 186 32 260 -14 q 71 158 113 78 q 29 339 29 238 q 71 522 29 442 q 186 648 113 603 q 354 693 260 693 q 471 670 418 693 q 558 606 524 647 q 599 511 592 564 l 599 169 q 558 74 592 115 q 471 10 524 33 q 354 -14 418 -14 m 406 201 q 502 240 465 201 q 539 340 539 279 q 522 411 539 381 q 476 460 506 442 q 407 478 446 478 q 338 460 368 478 q 291 410 308 442 q 274 340 274 379 q 290 269 274 300 q 338 219 307 238 q 406 201 368 201 m 529 0 l 529 182 l 564 349 l 529 513 l 529 679 l 767 679 l 767 0 l 529 0 z "},"á":{"ha":838,"x_min":29,"x_max":767,"o":"m 354 -14 q 186 32 260 -14 q 71 158 113 78 q 29 339 29 238 q 71 522 29 442 q 186 648 113 603 q 354 693 260 693 q 471 670 418 693 q 558 606 524 647 q 599 511 592 564 l 599 169 q 558 74 592 115 q 471 10 524 33 q 354 -14 418 -14 m 406 201 q 502 240 465 201 q 539 340 539 279 q 522 411 539 381 q 476 460 506 442 q 407 478 446 478 q 338 460 368 478 q 291 410 308 442 q 274 340 274 379 q 290 269 274 300 q 338 219 307 238 q 406 201 368 201 m 529 0 l 529 182 l 564 349 l 529 513 l 529 679 l 767 679 l 767 0 l 529 0 m 318 744 l 249 864 l 492 1061 l 607 872 l 318 744 z "},"ă":{"ha":838,"x_min":29,"x_max":767,"o":"m 354 -14 q 186 32 260 -14 q 71 158 113 78 q 29 339 29 238 q 71 522 29 442 q 186 648 113 603 q 354 693 260 693 q 471 670 418 693 q 558 606 524 647 q 599 511 592 564 l 599 169 q 558 74 592 115 q 471 10 524 33 q 354 -14 418 -14 m 406 201 q 502 240 465 201 q 539 340 539 279 q 522 411 539 381 q 476 460 506 442 q 407 478 446 478 q 338 460 368 478 q 291 410 308 442 q 274 340 274 379 q 290 269 274 300 q 338 219 307 238 q 406 201 368 201 m 529 0 l 529 182 l 564 349 l 529 513 l 529 679 l 767 679 l 767 0 l 529 0 m 701 1007 q 665 870 701 932 q 568 772 629 808 q 431 736 507 736 q 290 772 351 736 q 192 869 228 808 q 156 1007 156 931 l 335 1007 q 362 938 335 965 q 431 910 389 910 q 477 922 457 910 q 509 957 497 935 q 521 1007 521 979 l 701 1007 z "},"ǎ":{"ha":838,"x_min":29,"x_max":767,"o":"m 354 -14 q 186 32 260 -14 q 71 158 113 78 q 29 339 29 238 q 71 522 29 442 q 186 648 113 603 q 354 693 260 693 q 471 670 418 693 q 558 606 524 647 q 599 511 592 564 l 599 169 q 558 74 592 115 q 471 10 524 33 q 354 -14 418 -14 m 406 201 q 502 240 465 201 q 539 340 539 279 q 522 411 539 381 q 476 460 506 442 q 407 478 446 478 q 338 460 368 478 q 291 410 308 442 q 274 340 274 379 q 290 269 274 300 q 338 219 307 238 q 406 201 368 201 m 529 0 l 529 182 l 564 349 l 529 513 l 529 679 l 767 679 l 767 0 l 529 0 m 632 1036 l 701 933 l 492 739 l 365 739 l 156 933 l 225 1036 l 522 875 l 332 875 l 632 1036 z "},"â":{"ha":838,"x_min":29,"x_max":767,"o":"m 354 -14 q 186 32 260 -14 q 71 158 113 78 q 29 339 29 238 q 71 522 29 442 q 186 648 113 603 q 354 693 260 693 q 471 670 418 693 q 558 606 524 647 q 599 511 592 564 l 599 169 q 558 74 592 115 q 471 10 524 33 q 354 -14 418 -14 m 406 201 q 502 240 465 201 q 539 340 539 279 q 522 411 539 381 q 476 460 506 442 q 407 478 446 478 q 338 460 368 478 q 291 410 308 442 q 274 340 274 379 q 290 269 274 300 q 338 219 307 238 q 406 201 368 201 m 529 0 l 529 182 l 564 349 l 529 513 l 529 679 l 767 679 l 767 0 l 529 0 m 225 739 l 156 842 l 365 1036 l 492 1036 l 701 842 l 632 739 l 333 901 l 524 900 l 225 739 z "},"ä":{"ha":838,"x_min":29,"x_max":767,"o":"m 354 -14 q 186 32 260 -14 q 71 158 113 78 q 29 339 29 238 q 71 522 29 442 q 186 648 113 603 q 354 693 260 693 q 471 670 418 693 q 558 606 524 647 q 599 511 592 564 l 599 169 q 558 74 592 115 q 471 10 524 33 q 354 -14 418 -14 m 406 201 q 502 240 465 201 q 539 340 539 279 q 522 411 539 381 q 476 460 506 442 q 407 478 446 478 q 338 460 368 478 q 291 410 308 442 q 274 340 274 379 q 290 269 274 300 q 338 219 307 238 q 406 201 368 201 m 529 0 l 529 182 l 564 349 l 529 513 l 529 679 l 767 679 l 767 0 l 529 0 m 274 754 q 183 792 219 754 q 147 883 147 829 q 183 975 147 938 q 274 1013 219 1013 q 365 975 329 1013 q 400 883 400 938 q 365 792 400 829 q 274 754 329 754 m 586 754 q 496 792 532 754 q 460 883 460 829 q 496 975 460 938 q 586 1013 532 1013 q 677 975 642 1013 q 713 883 713 938 q 677 792 713 829 q 586 754 642 754 z "},"à":{"ha":838,"x_min":29,"x_max":767,"o":"m 354 -14 q 186 32 260 -14 q 71 158 113 78 q 29 339 29 238 q 71 522 29 442 q 186 648 113 603 q 354 693 260 693 q 471 670 418 693 q 558 606 524 647 q 599 511 592 564 l 599 169 q 558 74 592 115 q 471 10 524 33 q 354 -14 418 -14 m 406 201 q 502 240 465 201 q 539 340 539 279 q 522 411 539 381 q 476 460 506 442 q 407 478 446 478 q 338 460 368 478 q 291 410 308 442 q 274 340 274 379 q 290 269 274 300 q 338 219 307 238 q 406 201 368 201 m 529 0 l 529 182 l 564 349 l 529 513 l 529 679 l 767 679 l 767 0 l 529 0 m 511 751 l 222 879 l 339 1068 l 581 871 l 511 751 z "},"ā":{"ha":838,"x_min":29,"x_max":767,"o":"m 354 -14 q 186 32 260 -14 q 71 158 113 78 q 29 339 29 238 q 71 522 29 442 q 186 648 113 603 q 354 693 260 693 q 471 670 418 693 q 558 606 524 647 q 599 511 592 564 l 599 169 q 558 74 592 115 q 471 10 524 33 q 354 -14 418 -14 m 406 201 q 502 240 465 201 q 539 340 539 279 q 522 411 539 381 q 476 460 506 442 q 407 478 446 478 q 338 460 368 478 q 291 410 308 442 q 274 340 274 379 q 290 269 274 300 q 338 219 307 238 q 406 201 368 201 m 529 0 l 529 182 l 564 349 l 529 513 l 529 679 l 767 679 l 767 0 l 529 0 m 160 974 l 699 974 l 699 800 l 160 800 l 160 974 z "},"ą":{"ha":838,"x_min":29,"x_max":799,"o":"m 354 -14 q 186 32 260 -14 q 71 158 113 78 q 29 339 29 238 q 71 522 29 442 q 186 648 113 603 q 354 693 260 693 q 471 670 418 693 q 558 606 524 647 q 599 511 592 564 l 599 169 q 558 74 592 115 q 471 10 524 33 q 354 -14 418 -14 m 406 201 q 502 240 465 201 q 539 340 539 279 q 522 411 539 381 q 476 460 506 442 q 407 478 446 478 q 338 460 368 478 q 291 410 308 442 q 274 340 274 379 q 290 269 274 300 q 338 219 307 238 q 406 201 368 201 m 529 0 l 529 182 l 564 349 l 529 513 l 529 679 l 767 679 l 767 0 l 529 0 m 643 -301 q 481 -258 542 -301 q 421 -135 421 -215 q 475 -6 421 -57 q 615 53 529 44 l 767 0 q 679 -42 710 -17 q 649 -107 649 -67 q 661 -144 649 -132 q 697 -157 674 -157 q 724 -152 711 -157 q 750 -142 736 -147 l 799 -264 q 728 -292 767 -282 q 643 -301 690 -301 z "},"å":{"ha":838,"x_min":29,"x_max":767,"o":"m 354 -14 q 186 32 260 -14 q 71 158 113 78 q 29 339 29 238 q 71 522 29 442 q 186 648 113 603 q 354 693 260 693 q 471 670 418 693 q 558 606 524 647 q 599 511 592 564 l 599 169 q 558 74 592 115 q 471 10 524 33 q 354 -14 418 -14 m 406 201 q 502 240 465 201 q 539 340 539 279 q 522 411 539 381 q 476 460 506 442 q 407 478 446 478 q 338 460 368 478 q 291 410 308 442 q 274 340 274 379 q 290 269 274 300 q 338 219 307 238 q 406 201 368 201 m 529 0 l 529 182 l 564 349 l 529 513 l 529 679 l 767 679 l 767 0 l 529 0 m 431 736 q 334 761 376 736 q 267 827 292 786 q 243 919 243 868 q 267 1014 243 972 q 334 1080 292 1056 q 429 1104 376 1104 q 524 1080 482 1104 q 591 1014 567 1056 q 615 921 615 972 q 591 826 615 868 q 524 760 567 785 q 431 736 482 736 m 431 858 q 472 876 456 858 q 489 921 489 894 q 472 965 489 947 q 431 982 456 982 q 386 964 403 982 q 369 919 369 946 q 386 876 369 894 q 431 858 403 858 z "},"ã":{"ha":838,"x_min":29,"x_max":767,"o":"m 354 -14 q 186 32 260 -14 q 71 158 113 78 q 29 339 29 238 q 71 522 29 442 q 186 648 113 603 q 354 693 260 693 q 471 670 418 693 q 558 606 524 647 q 599 511 592 564 l 599 169 q 558 74 592 115 q 471 10 524 33 q 354 -14 418 -14 m 406 201 q 502 240 465 201 q 539 340 539 279 q 522 411 539 381 q 476 460 506 442 q 407 478 446 478 q 338 460 368 478 q 291 410 308 442 q 274 340 274 379 q 290 269 274 300 q 338 219 307 238 q 406 201 368 201 m 529 0 l 529 182 l 564 349 l 529 513 l 529 679 l 767 679 l 767 0 l 529 0 m 532 747 q 455 763 488 747 q 394 792 422 778 q 336 807 367 807 q 281 794 304 807 q 239 751 258 781 l 129 863 q 216 958 168 929 q 326 988 264 988 q 403 973 371 988 q 464 943 436 958 q 521 928 492 928 q 577 942 554 928 q 618 983 600 956 l 728 874 q 642 777 689 807 q 532 747 594 747 z "},"æ":{"ha":1308,"x_min":29,"x_max":1286,"o":"m 953 -15 q 751 30 839 -15 q 614 156 664 75 q 564 340 564 236 q 613 523 564 443 q 745 649 661 603 q 935 696 829 696 q 1117 652 1038 696 q 1242 531 1197 608 q 1288 356 1288 454 q 1285 313 1288 335 q 1276 264 1283 292 l 678 261 l 678 417 l 1181 421 l 1072 353 q 1056 447 1071 410 q 1011 503 1040 483 q 938 522 982 522 q 858 500 892 522 q 807 438 825 478 q 789 340 789 397 q 808 241 789 282 q 864 179 828 200 q 953 158 900 158 q 1041 175 1003 158 q 1110 226 1079 192 l 1236 100 q 1115 14 1186 43 q 953 -15 1043 -15 m 354 -14 q 186 32 260 -14 q 71 158 113 78 q 29 339 29 238 q 71 522 29 442 q 186 648 113 603 q 354 693 260 693 q 471 670 418 693 q 558 606 524 647 q 599 511 592 564 l 599 169 q 558 74 592 115 q 471 10 524 33 q 354 -14 418 -14 m 406 201 q 502 240 465 201 q 539 340 539 279 q 522 411 539 381 q 476 460 506 442 q 407 478 446 478 q 338 460 368 478 q 291 410 308 442 q 274 340 274 379 q 290 269 274 300 q 338 219 307 238 q 406 201 368 201 m 529 0 l 529 182 l 564 349 l 529 513 l 529 679 l 767 679 l 767 0 l 529 0 z "},"b":{"ha":838,"x_min":71,"x_max":808,"o":"m 475 -14 q 354 12 410 -14 q 263 82 299 38 q 218 179 226 126 l 218 511 q 263 606 226 564 q 356 670 300 647 q 475 693 411 693 q 649 648 574 693 q 766 522 724 603 q 808 339 808 442 q 766 158 808 238 q 649 32 724 78 q 475 -14 574 -14 m 71 0 l 71 1013 l 313 1013 l 313 513 l 272 349 l 307 182 l 307 0 l 71 0 m 432 201 q 501 219 471 201 q 547 269 531 238 q 564 340 564 300 q 547 410 564 379 q 500 460 531 442 q 431 478 469 478 q 362 460 392 478 q 315 411 332 442 q 299 340 299 381 q 315 267 299 299 q 363 219 332 236 q 432 201 393 201 z "},"c":{"ha":696,"x_min":25,"x_max":679,"o":"m 407 -15 q 212 31 299 -15 q 75 157 125 76 q 25 339 25 238 q 76 522 25 442 q 213 649 126 603 q 410 696 300 696 q 554 669 489 696 q 674 590 619 643 l 521 438 q 473 469 500 458 q 410 479 446 479 q 340 462 371 479 q 290 414 308 444 q 271 340 271 383 q 290 267 271 299 q 340 218 308 236 q 410 200 371 200 q 476 213 449 200 q 525 249 504 225 l 679 96 q 556 13 622 40 q 407 -15 490 -15 z "},"ć":{"ha":696,"x_min":25,"x_max":679,"o":"m 407 -15 q 212 31 299 -15 q 75 157 125 76 q 25 339 25 238 q 76 522 25 442 q 213 649 126 603 q 410 696 300 696 q 554 669 489 696 q 674 590 619 643 l 521 438 q 473 469 500 458 q 410 479 446 479 q 340 462 371 479 q 290 414 308 444 q 271 340 271 383 q 290 267 271 299 q 340 218 308 236 q 410 200 371 200 q 476 213 449 200 q 525 249 504 225 l 679 96 q 556 13 622 40 q 407 -15 490 -15 m 290 744 l 221 864 l 464 1061 l 579 872 l 290 744 z "},"č":{"ha":696,"x_min":25,"x_max":679,"o":"m 407 -15 q 212 31 299 -15 q 75 157 125 76 q 25 339 25 238 q 76 522 25 442 q 213 649 126 603 q 410 696 300 696 q 554 669 489 696 q 674 590 619 643 l 521 438 q 473 469 500 458 q 410 479 446 479 q 340 462 371 479 q 290 414 308 444 q 271 340 271 383 q 290 267 271 299 q 340 218 308 236 q 410 200 371 200 q 476 213 449 200 q 525 249 504 225 l 679 96 q 556 13 622 40 q 407 -15 490 -15 m 603 1036 l 672 933 l 463 739 l 336 739 l 126 933 l 196 1036 l 494 875 l 304 875 l 603 1036 z "},"ç":{"ha":696,"x_min":25,"x_max":679,"o":"m 407 -15 q 212 31 299 -15 q 75 157 125 76 q 25 339 25 238 q 76 522 25 442 q 213 649 126 603 q 410 696 300 696 q 554 669 489 696 q 674 590 619 643 l 521 438 q 473 469 500 458 q 410 479 446 479 q 340 462 371 479 q 290 414 308 444 q 271 340 271 383 q 290 267 271 299 q 340 218 308 236 q 410 200 371 200 q 476 213 449 200 q 525 249 504 225 l 679 96 q 556 13 622 40 q 407 -15 490 -15 m 351 -301 q 254 -289 293 -301 q 174 -253 215 -276 l 242 -162 q 282 -182 261 -175 q 325 -189 303 -189 q 362 -181 351 -189 q 372 -161 372 -174 q 358 -140 372 -149 q 311 -132 343 -132 l 281 -132 l 326 17 l 451 17 l 413 -86 l 349 -32 q 494 -69 444 -32 q 544 -167 544 -106 q 492 -263 544 -225 q 351 -301 439 -301 z "},"ċ":{"ha":696,"x_min":25,"x_max":679,"o":"m 407 -15 q 212 31 299 -15 q 75 157 125 76 q 25 339 25 238 q 76 522 25 442 q 213 649 126 603 q 410 696 300 696 q 554 669 489 696 q 674 590 619 643 l 521 438 q 473 469 500 458 q 410 479 446 479 q 340 462 371 479 q 290 414 308 444 q 271 340 271 383 q 290 267 271 299 q 340 218 308 236 q 410 200 371 200 q 476 213 449 200 q 525 249 504 225 l 679 96 q 556 13 622 40 q 407 -15 490 -15 m 400 754 q 310 792 346 754 q 274 883 274 829 q 310 975 274 938 q 400 1013 346 1013 q 492 975 457 1013 q 528 883 528 938 q 492 792 528 829 q 400 754 457 754 z "},"d":{"ha":838,"x_min":29,"x_max":767,"o":"m 363 -14 q 189 32 264 -14 q 72 158 114 78 q 29 339 29 238 q 72 522 29 442 q 188 648 114 603 q 363 693 263 693 q 482 670 426 693 q 575 606 538 647 q 619 511 613 564 l 619 179 q 575 82 613 126 q 482 12 538 38 q 363 -14 426 -14 m 406 201 q 475 219 446 201 q 522 267 504 236 q 539 340 539 299 q 522 411 539 381 q 476 460 506 442 q 407 478 446 478 q 338 460 368 478 q 291 410 308 442 q 274 340 274 379 q 290 269 274 300 q 338 219 307 238 q 406 201 368 201 m 767 0 l 529 0 l 529 182 l 564 349 l 525 513 l 525 1013 l 767 1013 l 767 0 z "},"ð":{"ha":804,"x_min":29,"x_max":775,"o":"m 403 -15 q 213 31 297 -15 q 78 154 128 76 q 29 331 29 232 q 74 498 29 424 q 196 616 119 572 q 364 660 272 660 q 449 646 418 660 q 502 608 481 632 q 544 550 524 583 l 453 542 l 132 985 l 410 985 l 692 572 q 775 329 775 450 q 726 153 775 232 q 592 30 676 75 q 403 -15 508 -15 m 403 194 q 472 213 442 194 q 520 263 503 231 q 538 336 538 296 q 520 408 538 376 q 472 459 503 440 q 403 478 442 478 q 333 460 364 478 q 284 409 301 442 q 267 336 267 376 q 284 263 267 296 q 332 213 301 231 q 403 194 363 194 m 128 658 l 79 783 l 628 985 l 676 861 l 128 658 z "},"ď":{"ha":1165,"x_min":29,"x_max":1113,"o":"m 363 -14 q 189 32 264 -14 q 72 158 114 78 q 29 339 29 238 q 72 522 29 442 q 188 648 114 603 q 363 693 263 693 q 482 670 426 693 q 575 606 538 647 q 619 511 613 564 l 619 179 q 575 82 613 126 q 482 12 538 38 q 363 -14 426 -14 m 406 201 q 475 219 446 201 q 522 267 504 236 q 539 340 539 299 q 522 411 539 381 q 476 460 506 442 q 407 478 446 478 q 338 460 368 478 q 291 410 308 442 q 274 340 274 379 q 290 269 274 300 q 338 219 307 238 q 406 201 368 201 m 767 0 l 529 0 l 529 182 l 564 349 l 525 513 l 525 1013 l 767 1013 l 767 0 m 950 488 l 838 550 l 942 746 l 1011 765 q 985 728 1000 743 q 950 714 969 714 q 870 750 907 714 q 833 842 833 786 q 873 942 833 900 q 974 985 913 985 q 1071 943 1029 985 q 1113 842 1113 901 q 1103 785 1113 817 q 1067 701 1094 753 l 950 488 z "},"đ":{"ha":833,"x_min":29,"x_max":833,"o":"m 332 747 l 332 954 l 833 954 l 833 747 l 332 747 m 363 -14 q 189 32 264 -14 q 72 158 114 78 q 29 339 29 238 q 72 522 29 442 q 188 648 114 603 q 363 693 263 693 q 482 670 426 693 q 575 606 538 647 q 619 511 613 564 l 619 179 q 575 82 613 126 q 482 12 538 38 q 363 -14 426 -14 m 406 201 q 475 219 446 201 q 522 267 504 236 q 539 340 539 299 q 522 411 539 381 q 476 460 506 442 q 407 478 446 478 q 338 460 368 478 q 291 410 308 442 q 274 340 274 379 q 290 269 274 300 q 338 219 307 238 q 406 201 368 201 m 767 0 l 529 0 l 529 182 l 564 349 l 525 513 l 525 1013 l 767 1013 l 767 0 z "},"e":{"ha":769,"x_min":25,"x_max":749,"o":"m 414 -15 q 213 30 300 -15 q 75 156 125 75 q 25 340 25 236 q 74 523 25 443 q 206 649 122 603 q 396 696 290 696 q 578 652 499 696 q 703 531 658 608 q 749 356 749 454 q 747 313 749 335 q 738 264 744 292 l 139 261 l 139 417 l 642 421 l 533 353 q 517 447 532 410 q 472 503 501 483 q 399 522 443 522 q 319 500 353 522 q 268 438 286 478 q 250 340 250 397 q 269 241 250 282 q 325 179 289 200 q 414 158 361 158 q 502 175 464 158 q 571 226 540 192 l 697 100 q 576 14 647 43 q 414 -15 504 -15 z "},"é":{"ha":769,"x_min":25,"x_max":749,"o":"m 414 -15 q 213 30 300 -15 q 75 156 125 75 q 25 340 25 236 q 74 523 25 443 q 206 649 122 603 q 396 696 290 696 q 578 652 499 696 q 703 531 658 608 q 749 356 749 454 q 747 313 749 335 q 738 264 744 292 l 139 261 l 139 417 l 642 421 l 533 353 q 517 447 532 410 q 472 503 501 483 q 399 522 443 522 q 319 500 353 522 q 268 438 286 478 q 250 340 250 397 q 269 241 250 282 q 325 179 289 200 q 414 158 361 158 q 502 175 464 158 q 571 226 540 192 l 697 100 q 576 14 647 43 q 414 -15 504 -15 m 288 744 l 218 864 l 461 1061 l 576 872 l 288 744 z "},"ě":{"ha":769,"x_min":25,"x_max":749,"o":"m 414 -15 q 213 30 300 -15 q 75 156 125 75 q 25 340 25 236 q 74 523 25 443 q 206 649 122 603 q 396 696 290 696 q 578 652 499 696 q 703 531 658 608 q 749 356 749 454 q 747 313 749 335 q 738 264 744 292 l 139 261 l 139 417 l 642 421 l 533 353 q 517 447 532 410 q 472 503 501 483 q 399 522 443 522 q 319 500 353 522 q 268 438 286 478 q 250 340 250 397 q 269 241 250 282 q 325 179 289 200 q 414 158 361 158 q 502 175 464 158 q 571 226 540 192 l 697 100 q 576 14 647 43 q 414 -15 504 -15 m 600 1036 l 669 933 l 460 739 l 333 739 l 124 933 l 193 1036 l 492 875 l 301 875 l 600 1036 z "},"ê":{"ha":769,"x_min":25,"x_max":749,"o":"m 414 -15 q 213 30 300 -15 q 75 156 125 75 q 25 340 25 236 q 74 523 25 443 q 206 649 122 603 q 396 696 290 696 q 578 652 499 696 q 703 531 658 608 q 749 356 749 454 q 747 313 749 335 q 738 264 744 292 l 139 261 l 139 417 l 642 421 l 533 353 q 517 447 532 410 q 472 503 501 483 q 399 522 443 522 q 319 500 353 522 q 268 438 286 478 q 250 340 250 397 q 269 241 250 282 q 325 179 289 200 q 414 158 361 158 q 502 175 464 158 q 571 226 540 192 l 697 100 q 576 14 647 43 q 414 -15 504 -15 m 193 739 l 124 842 l 333 1036 l 460 1036 l 669 842 l 600 739 l 301 901 l 492 900 l 193 739 z "},"ë":{"ha":769,"x_min":25,"x_max":749,"o":"m 414 -15 q 213 30 300 -15 q 75 156 125 75 q 25 340 25 236 q 74 523 25 443 q 206 649 122 603 q 396 696 290 696 q 578 652 499 696 q 703 531 658 608 q 749 356 749 454 q 747 313 749 335 q 738 264 744 292 l 139 261 l 139 417 l 642 421 l 533 353 q 517 447 532 410 q 472 503 501 483 q 399 522 443 522 q 319 500 353 522 q 268 438 286 478 q 250 340 250 397 q 269 241 250 282 q 325 179 289 200 q 414 158 361 158 q 502 175 464 158 q 571 226 540 192 l 697 100 q 576 14 647 43 q 414 -15 504 -15 m 242 754 q 151 792 188 754 q 115 883 115 829 q 151 975 115 938 q 242 1013 188 1013 q 333 975 297 1013 q 368 883 368 938 q 333 792 368 829 q 242 754 297 754 m 554 754 q 464 792 500 754 q 428 883 428 829 q 464 975 428 938 q 554 1013 500 1013 q 645 975 610 1013 q 681 883 681 938 q 645 792 681 829 q 554 754 610 754 z "},"ė":{"ha":769,"x_min":25,"x_max":749,"o":"m 414 -15 q 213 30 300 -15 q 75 156 125 75 q 25 340 25 236 q 74 523 25 443 q 206 649 122 603 q 396 696 290 696 q 578 652 499 696 q 703 531 658 608 q 749 356 749 454 q 747 313 749 335 q 738 264 744 292 l 139 261 l 139 417 l 642 421 l 533 353 q 517 447 532 410 q 472 503 501 483 q 399 522 443 522 q 319 500 353 522 q 268 438 286 478 q 250 340 250 397 q 269 241 250 282 q 325 179 289 200 q 414 158 361 158 q 502 175 464 158 q 571 226 540 192 l 697 100 q 576 14 647 43 q 414 -15 504 -15 m 397 754 q 307 792 343 754 q 271 883 271 829 q 307 975 271 938 q 397 1013 343 1013 q 490 975 454 1013 q 525 883 525 938 q 490 792 525 829 q 397 754 454 754 z "},"è":{"ha":769,"x_min":25,"x_max":749,"o":"m 414 -15 q 213 30 300 -15 q 75 156 125 75 q 25 340 25 236 q 74 523 25 443 q 206 649 122 603 q 396 696 290 696 q 578 652 499 696 q 703 531 658 608 q 749 356 749 454 q 747 313 749 335 q 738 264 744 292 l 139 261 l 139 417 l 642 421 l 533 353 q 517 447 532 410 q 472 503 501 483 q 399 522 443 522 q 319 500 353 522 q 268 438 286 478 q 250 340 250 397 q 269 241 250 282 q 325 179 289 200 q 414 158 361 158 q 502 175 464 158 q 571 226 540 192 l 697 100 q 576 14 647 43 q 414 -15 504 -15 m 481 751 l 192 879 l 308 1068 l 550 871 l 481 751 z "},"ē":{"ha":769,"x_min":25,"x_max":749,"o":"m 414 -15 q 213 30 300 -15 q 75 156 125 75 q 25 340 25 236 q 74 523 25 443 q 206 649 122 603 q 396 696 290 696 q 578 652 499 696 q 703 531 658 608 q 749 356 749 454 q 747 313 749 335 q 738 264 744 292 l 139 261 l 139 417 l 642 421 l 533 353 q 517 447 532 410 q 472 503 501 483 q 399 522 443 522 q 319 500 353 522 q 268 438 286 478 q 250 340 250 397 q 269 241 250 282 q 325 179 289 200 q 414 158 361 158 q 502 175 464 158 q 571 226 540 192 l 697 100 q 576 14 647 43 q 414 -15 504 -15 m 128 974 l 667 974 l 667 800 l 128 800 l 128 974 z "},"ę":{"ha":769,"x_min":25,"x_max":749,"o":"m 414 -15 q 213 30 300 -15 q 75 156 125 75 q 25 340 25 236 q 74 523 25 443 q 206 649 122 603 q 396 696 290 696 q 578 652 499 696 q 703 531 658 608 q 749 356 749 454 q 747 313 749 335 q 738 264 744 292 l 139 261 l 139 417 l 642 421 l 533 353 q 517 447 532 410 q 472 503 501 483 q 399 522 443 522 q 319 500 353 522 q 268 438 286 478 q 250 340 250 397 q 269 241 250 282 q 325 179 289 200 q 414 158 361 158 q 502 175 464 158 q 571 226 540 192 l 697 100 q 576 14 647 43 q 414 -15 504 -15 m 450 -287 q 288 -244 349 -287 q 228 -121 228 -201 q 282 8 228 -43 q 422 67 336 58 l 574 14 q 486 -28 517 -3 q 456 -93 456 -53 q 468 -131 456 -118 q 504 -143 481 -143 q 531 -138 518 -143 q 557 -128 543 -133 l 606 -250 q 535 -278 574 -268 q 450 -287 497 -287 z "},"f":{"ha":628,"x_min":10,"x_max":693,"o":"m 154 0 l 154 722 q 192 877 154 808 q 299 988 229 946 q 468 1029 369 1029 q 597 1005 542 1029 q 693 940 653 981 l 542 789 q 515 808 531 801 q 478 814 499 814 q 418 792 440 814 q 396 732 396 769 l 396 0 l 154 0 m 10 478 l 10 679 l 588 679 l 588 478 l 10 478 z "},"g":{"ha":817,"x_min":25,"x_max":747,"o":"m 360 -308 q 160 -270 247 -308 q 25 -162 74 -232 l 171 -18 q 247 -77 206 -56 q 349 -99 289 -99 q 463 -63 421 -99 q 506 39 506 -28 l 506 215 l 544 363 l 510 508 l 510 679 l 747 679 l 747 47 q 697 -141 747 -61 q 558 -265 646 -221 q 360 -308 471 -308 m 349 25 q 181 69 254 25 q 67 189 108 113 q 25 360 25 265 q 67 529 25 454 q 181 649 108 604 q 349 693 254 693 q 466 670 413 693 q 553 606 519 647 q 594 511 586 565 l 594 207 q 552 112 586 153 q 465 48 518 71 q 349 25 413 25 m 393 235 q 460 252 432 235 q 504 298 489 269 q 519 360 519 326 q 504 422 519 394 q 461 467 489 450 q 394 485 433 485 q 328 467 357 485 q 285 422 300 450 q 269 360 269 393 q 285 299 269 328 q 328 253 300 271 q 393 235 356 235 z "},"ğ":{"ha":817,"x_min":25,"x_max":747,"o":"m 360 -308 q 160 -270 247 -308 q 25 -162 74 -232 l 171 -18 q 247 -77 206 -56 q 349 -99 289 -99 q 463 -63 421 -99 q 506 39 506 -28 l 506 215 l 544 363 l 510 508 l 510 679 l 747 679 l 747 47 q 697 -141 747 -61 q 558 -265 646 -221 q 360 -308 471 -308 m 349 25 q 181 69 254 25 q 67 189 108 113 q 25 360 25 265 q 67 529 25 454 q 181 649 108 604 q 349 693 254 693 q 466 670 413 693 q 553 606 519 647 q 594 511 586 565 l 594 207 q 552 112 586 153 q 465 48 518 71 q 349 25 413 25 m 393 235 q 460 252 432 235 q 504 298 489 269 q 519 360 519 326 q 504 422 519 394 q 461 467 489 450 q 394 485 433 485 q 328 467 357 485 q 285 422 300 450 q 269 360 269 393 q 285 299 269 328 q 328 253 300 271 q 393 235 356 235 m 701 1007 q 665 870 701 932 q 568 772 629 808 q 431 736 507 736 q 290 772 351 736 q 192 869 228 808 q 156 1007 156 931 l 335 1007 q 362 938 335 965 q 431 910 389 910 q 477 922 457 910 q 509 957 497 935 q 521 1007 521 979 l 701 1007 z "},"ģ":{"ha":817,"x_min":25,"x_max":747,"o":"m 360 -308 q 160 -270 247 -308 q 25 -162 74 -232 l 171 -18 q 247 -77 206 -56 q 349 -99 289 -99 q 463 -63 421 -99 q 506 39 506 -28 l 506 215 l 544 363 l 510 508 l 510 679 l 747 679 l 747 47 q 697 -141 747 -61 q 558 -265 646 -221 q 360 -308 471 -308 m 349 25 q 181 69 254 25 q 67 189 108 113 q 25 360 25 265 q 67 529 25 454 q 181 649 108 604 q 349 693 254 693 q 466 670 413 693 q 553 606 519 647 q 594 511 586 565 l 594 207 q 552 112 586 153 q 465 48 518 71 q 349 25 413 25 m 393 235 q 460 252 432 235 q 504 298 489 269 q 519 360 519 326 q 504 422 519 394 q 461 467 489 450 q 394 485 433 485 q 328 467 357 485 q 285 422 300 450 q 269 360 269 393 q 285 299 269 328 q 328 253 300 271 q 393 235 356 235 m 599 1136 l 457 965 l 385 961 q 419 992 401 981 q 456 999 438 1003 q 526 947 499 990 q 542 849 553 903 q 482 760 529 793 q 376 739 435 726 q 289 801 321 751 q 271 908 257 850 q 292 961 276 932 q 346 1035 307 990 l 501 1219 l 599 1136 z "},"ġ":{"ha":817,"x_min":25,"x_max":747,"o":"m 360 -308 q 160 -270 247 -308 q 25 -162 74 -232 l 171 -18 q 247 -77 206 -56 q 349 -99 289 -99 q 463 -63 421 -99 q 506 39 506 -28 l 506 215 l 544 363 l 510 508 l 510 679 l 747 679 l 747 47 q 697 -141 747 -61 q 558 -265 646 -221 q 360 -308 471 -308 m 349 25 q 181 69 254 25 q 67 189 108 113 q 25 360 25 265 q 67 529 25 454 q 181 649 108 604 q 349 693 254 693 q 466 670 413 693 q 553 606 519 647 q 594 511 586 565 l 594 207 q 552 112 586 153 q 465 48 518 71 q 349 25 413 25 m 393 235 q 460 252 432 235 q 504 298 489 269 q 519 360 519 326 q 504 422 519 394 q 461 467 489 450 q 394 485 433 485 q 328 467 357 485 q 285 422 300 450 q 269 360 269 393 q 285 299 269 328 q 328 253 300 271 q 393 235 356 235 m 429 754 q 339 792 375 754 q 303 883 303 829 q 339 975 303 938 q 429 1013 375 1013 q 522 975 486 1013 q 557 883 557 938 q 522 792 557 829 q 429 754 486 754 z "},"h":{"ha":810,"x_min":71,"x_max":753,"o":"m 511 0 l 511 383 q 483 458 511 431 q 413 485 456 485 q 360 472 383 485 q 325 438 338 460 q 313 383 313 415 l 218 428 q 252 569 218 510 q 346 660 286 628 q 485 693 406 693 q 627 660 567 693 q 720 571 688 628 q 753 439 753 514 l 753 0 l 511 0 m 71 0 l 71 1013 l 313 1013 l 313 0 l 71 0 z "},"ħ":{"ha":810,"x_min":0,"x_max":753,"o":"m 0 747 l 0 954 l 503 954 l 503 747 l 0 747 m 511 0 l 511 383 q 483 458 511 431 q 413 485 456 485 q 360 472 383 485 q 325 438 338 460 q 313 383 313 415 l 218 428 q 252 569 218 510 q 346 660 286 628 q 485 693 406 693 q 627 660 567 693 q 720 571 688 628 q 753 439 753 514 l 753 0 l 511 0 m 71 0 l 71 1013 l 313 1013 l 313 0 l 71 0 z "},"i":{"ha":382,"x_min":64,"x_max":318,"o":"m 69 0 l 69 679 l 313 679 l 313 0 l 69 0 m 190 758 q 100 795 136 758 q 64 888 64 832 q 100 979 64 942 q 190 1017 136 1017 q 283 979 247 1017 q 318 888 318 942 q 283 795 318 832 q 190 758 247 758 z "},"ı":{"ha":383,"x_min":71,"x_max":313,"o":"m 71 0 l 71 679 l 313 679 l 313 0 l 71 0 z "},"í":{"ha":383,"x_min":11,"x_max":369,"o":"m 71 0 l 71 679 l 313 679 l 313 0 l 71 0 m 81 744 l 11 864 l 254 1061 l 369 872 l 81 744 z "},"î":{"ha":383,"x_min":-82,"x_max":464,"o":"m 71 0 l 71 679 l 313 679 l 313 0 l 71 0 m -12 739 l -82 842 l 128 1036 l 254 1036 l 464 842 l 394 739 l 96 901 l 286 900 l -12 739 z "},"ï":{"ha":383,"x_min":-92,"x_max":475,"o":"m 71 0 l 71 679 l 313 679 l 313 0 l 71 0 m 36 754 q -54 792 -18 754 q -90 883 -90 829 q -54 975 -90 938 q 36 1013 -18 1013 q 127 975 92 1013 q 163 883 163 938 q 127 792 163 829 q 36 754 92 754 m 349 754 q 258 792 294 754 q 222 883 222 829 q 258 975 222 938 q 349 1013 294 1013 q 440 975 404 1013 q 475 883 475 938 q 440 792 475 829 q 349 754 404 754 z "},"ì":{"ha":383,"x_min":-15,"x_max":343,"o":"m 71 0 l 71 679 l 313 679 l 313 0 l 71 0 m 274 751 l -15 879 l 101 1068 l 343 871 l 274 751 z "},"ĳ":{"ha":781,"x_min":64,"x_max":718,"o":"m 69 0 l 69 679 l 313 679 l 313 0 l 69 0 m 190 758 q 100 795 136 758 q 64 888 64 832 q 100 979 64 942 q 190 1017 136 1017 q 283 979 247 1017 q 318 888 318 942 q 283 795 318 832 q 190 758 247 758 m 426 -308 q 297 -283 351 -308 q 203 -214 242 -257 l 351 -65 q 380 -87 365 -81 q 410 -93 394 -93 q 454 -78 438 -93 q 471 -28 471 -62 l 471 679 l 713 679 l 713 -24 q 676 -172 713 -108 q 576 -272 640 -236 q 426 -308 511 -308 m 592 758 q 501 795 538 758 q 465 888 465 832 q 501 979 465 942 q 592 1017 538 1017 q 684 979 649 1017 q 719 888 719 942 q 684 795 719 832 q 592 758 649 758 z "},"ī":{"ha":383,"x_min":-72,"x_max":454,"o":"m -72 974 l 454 974 l 454 800 l -72 800 l -72 974 m 71 0 l 71 679 l 313 679 l 313 0 l 71 0 z "},"į":{"ha":382,"x_min":-33,"x_max":344,"o":"m 69 0 l 69 679 l 313 679 l 313 0 l 69 0 m 190 758 q 100 795 136 758 q 64 888 64 832 q 100 979 64 942 q 190 1017 136 1017 q 283 979 247 1017 q 318 888 318 942 q 283 795 318 832 q 190 758 247 758 m 189 -301 q 27 -258 88 -301 q -33 -135 -33 -215 q 21 -6 -33 -57 q 161 53 75 44 l 313 0 q 225 -42 256 -17 q 194 -107 194 -67 q 207 -144 194 -132 q 243 -157 219 -157 q 269 -152 257 -157 q 296 -142 282 -147 l 344 -264 q 274 -292 313 -282 q 189 -301 236 -301 z "},"j":{"ha":400,"x_min":-179,"x_max":338,"o":"m 44 -308 q -85 -283 -31 -308 q -179 -214 -140 -257 l -31 -65 q -2 -87 -17 -81 q 28 -93 13 -93 q 72 -78 56 -93 q 89 -28 89 -62 l 89 679 l 331 679 l 331 -24 q 294 -172 331 -108 q 194 -272 258 -236 q 44 -308 129 -308 m 210 758 q 119 795 156 758 q 83 888 83 832 q 119 979 83 942 q 210 1017 156 1017 q 302 979 267 1017 q 338 888 338 942 q 302 795 338 832 q 210 758 267 758 z "},"ȷ":{"ha":400,"x_min":-179,"x_max":331,"o":"m 44 -308 q -85 -283 -31 -308 q -179 -214 -140 -257 l -31 -65 q -2 -87 -17 -81 q 28 -93 13 -93 q 72 -78 56 -93 q 89 -28 89 -62 l 89 679 l 331 679 l 331 -24 q 294 -172 331 -108 q 194 -272 258 -236 q 44 -308 129 -308 z "},"k":{"ha":782,"x_min":71,"x_max":785,"o":"m 507 0 l 293 356 l 506 679 l 771 679 l 507 314 l 514 403 l 785 0 l 507 0 m 71 0 l 71 1013 l 313 1013 l 313 0 l 71 0 z "},"ķ":{"ha":782,"x_min":71,"x_max":785,"o":"m 507 0 l 293 356 l 506 679 l 771 679 l 507 314 l 514 403 l 785 0 l 507 0 m 71 0 l 71 1013 l 313 1013 l 313 0 l 71 0 m 317 -574 l 219 -490 l 361 -321 l 433 -315 q 399 -347 417 -335 q 363 -354 381 -358 q 291 -301 318 -344 q 276 -204 264 -258 q 335 -114 289 -147 q 442 -93 382 -81 q 528 -155 497 -106 q 547 -262 560 -204 q 527 -316 543 -286 q 472 -389 511 -346 l 317 -574 z "},"l":{"ha":383,"x_min":71,"x_max":313,"o":"m 71 0 l 71 1013 l 313 1013 l 313 0 l 71 0 z "},"ĺ":{"ha":383,"x_min":71,"x_max":474,"o":"m 71 0 l 71 1013 l 313 1013 l 313 0 l 71 0 m 185 1050 l 115 1169 l 358 1367 l 474 1178 l 185 1050 z "},"ľ":{"ha":711,"x_min":71,"x_max":658,"o":"m 71 0 l 71 1013 l 313 1013 l 313 0 l 71 0 m 496 488 l 383 550 l 488 746 l 557 765 q 531 728 546 743 q 496 714 515 714 q 416 750 453 714 q 379 842 379 786 q 419 942 379 900 q 519 985 458 985 q 617 943 575 985 q 658 842 658 901 q 649 785 658 817 q 613 701 640 753 l 496 488 z "},"ļ":{"ha":383,"x_min":7,"x_max":347,"o":"m 71 0 l 71 1013 l 313 1013 l 313 0 l 71 0 m 104 -574 l 7 -490 l 149 -321 l 221 -315 q 186 -347 204 -335 q 150 -354 168 -358 q 78 -301 106 -344 q 64 -204 51 -258 q 123 -114 76 -147 q 229 -93 169 -81 q 316 -155 285 -106 q 335 -262 347 -204 q 315 -316 331 -286 q 260 -389 299 -346 l 104 -574 z "},"ł":{"ha":519,"x_min":71,"x_max":450,"o":"m 71 497 l 450 718 l 450 515 l 71 297 l 71 497 m 139 0 l 139 1013 l 381 1013 l 381 0 l 139 0 z "},"m":{"ha":1221,"x_min":71,"x_max":1165,"o":"m 71 0 l 71 679 l 313 679 l 313 0 l 71 0 m 497 0 l 497 393 q 471 460 497 436 q 406 485 444 485 q 357 474 378 485 q 324 442 336 463 q 313 393 313 422 l 218 431 q 254 571 218 513 q 351 661 290 629 q 490 693 413 693 q 616 660 560 693 q 706 569 672 628 q 739 432 739 511 l 739 0 l 497 0 m 924 0 l 924 393 q 897 460 924 436 q 832 485 871 485 q 784 474 806 485 q 751 442 763 463 q 739 393 739 422 l 597 400 q 638 557 600 492 q 741 658 675 622 q 890 693 807 693 q 1032 660 969 693 q 1130 563 1094 626 q 1165 413 1165 500 l 1165 0 l 924 0 z "},"n":{"ha":810,"x_min":71,"x_max":753,"o":"m 511 0 l 511 383 q 483 458 511 431 q 413 485 456 485 q 360 472 383 485 q 325 438 338 460 q 313 383 313 415 l 218 428 q 254 569 218 510 q 353 660 290 628 q 497 693 417 693 q 628 659 571 693 q 719 568 686 625 q 753 439 753 511 l 753 0 l 511 0 m 71 0 l 71 679 l 313 679 l 313 0 l 71 0 z "},"ń":{"ha":810,"x_min":71,"x_max":753,"o":"m 511 0 l 511 383 q 483 458 511 431 q 413 485 456 485 q 360 472 383 485 q 325 438 338 460 q 313 383 313 415 l 218 428 q 254 569 218 510 q 353 660 290 628 q 497 693 417 693 q 628 659 571 693 q 719 568 686 625 q 753 439 753 511 l 753 0 l 511 0 m 71 0 l 71 679 l 313 679 l 313 0 l 71 0 m 294 744 l 225 864 l 468 1061 l 583 872 l 294 744 z "},"ň":{"ha":810,"x_min":71,"x_max":753,"o":"m 511 0 l 511 383 q 483 458 511 431 q 413 485 456 485 q 360 472 383 485 q 325 438 338 460 q 313 383 313 415 l 218 428 q 254 569 218 510 q 353 660 290 628 q 497 693 417 693 q 628 659 571 693 q 719 568 686 625 q 753 439 753 511 l 753 0 l 511 0 m 71 0 l 71 679 l 313 679 l 313 0 l 71 0 m 608 1036 l 678 933 l 468 739 l 342 739 l 132 933 l 201 1036 l 499 875 l 308 875 l 608 1036 z "},"ņ":{"ha":810,"x_min":71,"x_max":753,"o":"m 511 0 l 511 383 q 483 458 511 431 q 413 485 456 485 q 360 472 383 485 q 325 438 338 460 q 313 383 313 415 l 218 428 q 254 569 218 510 q 353 660 290 628 q 497 693 417 693 q 628 659 571 693 q 719 568 686 625 q 753 439 753 511 l 753 0 l 511 0 m 71 0 l 71 679 l 313 679 l 313 0 l 71 0 m 318 -574 l 221 -490 l 363 -321 l 435 -315 q 400 -347 418 -335 q 364 -354 382 -358 q 292 -301 319 -344 q 278 -204 265 -258 q 337 -114 290 -147 q 443 -93 383 -81 q 530 -155 499 -106 q 549 -262 561 -204 q 528 -316 544 -286 q 474 -389 513 -346 l 318 -574 z "},"ñ":{"ha":810,"x_min":71,"x_max":753,"o":"m 511 0 l 511 383 q 483 458 511 431 q 413 485 456 485 q 360 472 383 485 q 325 438 338 460 q 313 383 313 415 l 218 428 q 254 569 218 510 q 353 660 290 628 q 497 693 417 693 q 628 659 571 693 q 719 568 686 625 q 753 439 753 511 l 753 0 l 511 0 m 71 0 l 71 679 l 313 679 l 313 0 l 71 0 m 508 747 q 431 763 464 747 q 371 792 399 778 q 313 807 343 807 q 258 794 281 807 q 215 751 235 781 l 106 863 q 192 958 144 929 q 303 988 240 988 q 380 973 347 988 q 440 943 413 958 q 497 928 468 928 q 553 942 531 928 q 594 983 576 956 l 704 874 q 618 777 665 807 q 508 747 571 747 z "},"ŋ":{"ha":810,"x_min":71,"x_max":753,"o":"m 467 -308 q 337 -283 392 -308 q 243 -214 282 -257 l 392 -65 q 420 -87 406 -81 q 450 -93 435 -93 q 494 -78 478 -93 q 511 -28 511 -62 l 511 171 l 753 171 l 753 -24 q 717 -172 753 -108 q 616 -272 681 -236 q 467 -308 551 -308 m 511 0 l 511 383 q 483 458 511 431 q 413 485 456 485 q 360 472 383 485 q 325 438 338 460 q 313 383 313 415 l 218 428 q 254 569 218 510 q 353 660 290 628 q 497 693 417 693 q 628 659 571 693 q 719 568 686 625 q 753 439 753 511 l 753 0 l 511 0 m 71 0 l 71 679 l 313 679 l 313 0 l 71 0 z "},"o":{"ha":808,"x_min":25,"x_max":783,"o":"m 406 -15 q 210 31 296 -15 q 75 159 125 78 q 25 342 25 240 q 74 523 25 443 q 210 649 124 603 q 404 696 296 696 q 598 649 513 696 q 733 523 683 603 q 783 342 783 443 q 734 159 783 240 q 599 31 685 78 q 406 -15 514 -15 m 404 200 q 474 217 444 200 q 521 267 504 235 q 538 340 538 299 q 520 413 538 382 q 474 462 503 444 q 404 479 444 479 q 335 461 365 479 q 288 412 304 443 q 271 339 271 381 q 288 267 271 299 q 335 217 304 235 q 404 200 365 200 z "},"ó":{"ha":808,"x_min":25,"x_max":783,"o":"m 406 -15 q 210 31 296 -15 q 75 159 125 78 q 25 342 25 240 q 74 523 25 443 q 210 649 124 603 q 404 696 296 696 q 598 649 513 696 q 733 523 683 603 q 783 342 783 443 q 734 159 783 240 q 599 31 685 78 q 406 -15 514 -15 m 404 200 q 474 217 444 200 q 521 267 504 235 q 538 340 538 299 q 520 413 538 382 q 474 462 503 444 q 404 479 444 479 q 335 461 365 479 q 288 412 304 443 q 271 339 271 381 q 288 267 271 299 q 335 217 304 235 q 404 200 365 200 m 294 744 l 225 864 l 468 1061 l 583 872 l 294 744 z "},"ô":{"ha":808,"x_min":25,"x_max":783,"o":"m 406 -15 q 210 31 296 -15 q 75 159 125 78 q 25 342 25 240 q 74 523 25 443 q 210 649 124 603 q 404 696 296 696 q 598 649 513 696 q 733 523 683 603 q 783 342 783 443 q 734 159 783 240 q 599 31 685 78 q 406 -15 514 -15 m 404 200 q 474 217 444 200 q 521 267 504 235 q 538 340 538 299 q 520 413 538 382 q 474 462 503 444 q 404 479 444 479 q 335 461 365 479 q 288 412 304 443 q 271 339 271 381 q 288 267 271 299 q 335 217 304 235 q 404 200 365 200 m 200 739 l 131 842 l 340 1036 l 467 1036 l 676 842 l 607 739 l 308 901 l 499 900 l 200 739 z "},"ö":{"ha":808,"x_min":25,"x_max":783,"o":"m 406 -15 q 210 31 296 -15 q 75 159 125 78 q 25 342 25 240 q 74 523 25 443 q 210 649 124 603 q 404 696 296 696 q 598 649 513 696 q 733 523 683 603 q 783 342 783 443 q 734 159 783 240 q 599 31 685 78 q 406 -15 514 -15 m 404 200 q 474 217 444 200 q 521 267 504 235 q 538 340 538 299 q 520 413 538 382 q 474 462 503 444 q 404 479 444 479 q 335 461 365 479 q 288 412 304 443 q 271 339 271 381 q 288 267 271 299 q 335 217 304 235 q 404 200 365 200 m 249 754 q 158 792 194 754 q 122 883 122 829 q 158 975 122 938 q 249 1013 194 1013 q 340 975 304 1013 q 375 883 375 938 q 340 792 375 829 q 249 754 304 754 m 561 754 q 471 792 507 754 q 435 883 435 829 q 471 975 435 938 q 561 1013 507 1013 q 652 975 617 1013 q 688 883 688 938 q 652 792 688 829 q 561 754 617 754 z "},"ò":{"ha":808,"x_min":25,"x_max":783,"o":"m 406 -15 q 210 31 296 -15 q 75 159 125 78 q 25 342 25 240 q 74 523 25 443 q 210 649 124 603 q 404 696 296 696 q 598 649 513 696 q 733 523 683 603 q 783 342 783 443 q 734 159 783 240 q 599 31 685 78 q 406 -15 514 -15 m 404 200 q 474 217 444 200 q 521 267 504 235 q 538 340 538 299 q 520 413 538 382 q 474 462 503 444 q 404 479 444 479 q 335 461 365 479 q 288 412 304 443 q 271 339 271 381 q 288 267 271 299 q 335 217 304 235 q 404 200 365 200 m 488 751 l 199 879 l 315 1068 l 557 871 l 488 751 z "},"ő":{"ha":808,"x_min":25,"x_max":783,"o":"m 406 -15 q 210 31 296 -15 q 75 159 125 78 q 25 342 25 240 q 74 523 25 443 q 210 649 124 603 q 404 696 296 696 q 598 649 513 696 q 733 523 683 603 q 783 342 783 443 q 734 159 783 240 q 599 31 685 78 q 406 -15 514 -15 m 404 200 q 474 217 444 200 q 521 267 504 235 q 538 340 538 299 q 520 413 538 382 q 474 462 503 444 q 404 479 444 479 q 335 461 365 479 q 288 412 304 443 q 271 339 271 381 q 288 267 271 299 q 335 217 304 235 q 404 200 365 200 m 207 754 l 93 832 l 231 1114 l 414 992 l 207 754 m 550 754 l 436 832 l 574 1114 l 757 992 l 550 754 z "},"ō":{"ha":808,"x_min":25,"x_max":783,"o":"m 406 -15 q 210 31 296 -15 q 75 159 125 78 q 25 342 25 240 q 74 523 25 443 q 210 649 124 603 q 404 696 296 696 q 598 649 513 696 q 733 523 683 603 q 783 342 783 443 q 734 159 783 240 q 599 31 685 78 q 406 -15 514 -15 m 404 200 q 474 217 444 200 q 521 267 504 235 q 538 340 538 299 q 520 413 538 382 q 474 462 503 444 q 404 479 444 479 q 335 461 365 479 q 288 412 304 443 q 271 339 271 381 q 288 267 271 299 q 335 217 304 235 q 404 200 365 200 m 135 974 l 674 974 l 674 800 l 135 800 l 135 974 z "},"ø":{"ha":808,"x_min":25,"x_max":785,"o":"m 125 -42 l 25 58 l 685 718 l 785 618 l 125 -42 m 403 -15 q 210 31 296 -15 q 74 159 124 78 q 25 342 25 240 q 74 523 25 443 q 210 649 124 603 q 404 696 296 696 q 598 649 513 696 q 733 523 683 603 q 783 342 783 443 q 733 159 783 240 q 598 31 683 78 q 403 -15 513 -15 m 403 168 q 490 190 453 168 q 547 249 526 211 q 568 339 568 288 q 547 430 568 392 q 490 490 526 468 q 403 511 453 511 q 317 490 354 511 q 259 430 279 468 q 239 340 239 392 q 259 250 239 289 q 317 190 279 211 q 403 168 354 168 z "},"õ":{"ha":808,"x_min":25,"x_max":783,"o":"m 406 -15 q 210 31 296 -15 q 75 159 125 78 q 25 342 25 240 q 74 523 25 443 q 210 649 124 603 q 404 696 296 696 q 598 649 513 696 q 733 523 683 603 q 783 342 783 443 q 734 159 783 240 q 599 31 685 78 q 406 -15 514 -15 m 404 200 q 474 217 444 200 q 521 267 504 235 q 538 340 538 299 q 520 413 538 382 q 474 462 503 444 q 404 479 444 479 q 335 461 365 479 q 288 412 304 443 q 271 339 271 381 q 288 267 271 299 q 335 217 304 235 q 404 200 365 200 m 507 747 q 430 763 463 747 q 369 792 397 778 q 311 807 342 807 q 256 794 279 807 q 214 751 233 781 l 104 863 q 191 958 143 929 q 301 988 239 988 q 378 973 346 988 q 439 943 411 958 q 496 928 467 928 q 552 942 529 928 q 593 983 575 956 l 703 874 q 617 777 664 807 q 507 747 569 747 z "},"œ":{"ha":1301,"x_min":25,"x_max":1281,"o":"m 406 -15 q 210 31 296 -15 q 75 159 125 78 q 25 342 25 240 q 74 523 25 443 q 210 649 124 603 q 404 696 296 696 q 598 649 513 696 q 733 523 683 603 q 783 342 783 443 q 734 159 783 240 q 599 31 685 78 q 406 -15 514 -15 m 404 200 q 474 217 444 200 q 521 267 504 235 q 538 340 538 299 q 520 413 538 382 q 474 462 503 444 q 404 479 444 479 q 335 461 365 479 q 288 412 304 443 q 271 339 271 381 q 288 267 271 299 q 335 217 304 235 q 404 200 365 200 m 946 -15 q 744 30 832 -15 q 607 156 657 75 q 557 340 557 236 q 606 523 557 443 q 738 649 654 603 q 928 696 822 696 q 1110 652 1031 696 q 1235 531 1190 608 q 1281 356 1281 454 q 1278 313 1281 335 q 1269 264 1276 292 l 671 261 l 671 417 l 1174 421 l 1065 353 q 1049 447 1064 410 q 1004 503 1033 483 q 931 522 975 522 q 851 500 885 522 q 800 438 818 478 q 782 340 782 397 q 801 241 782 282 q 857 179 821 200 q 946 158 893 158 q 1034 175 996 158 q 1103 226 1072 192 l 1229 100 q 1108 14 1179 43 q 946 -15 1036 -15 z "},"p":{"ha":838,"x_min":71,"x_max":808,"o":"m 475 -14 q 354 10 410 -14 q 263 74 299 33 q 218 169 226 115 l 218 500 q 263 598 226 554 q 355 667 300 642 q 475 693 410 693 q 649 648 574 693 q 766 522 724 603 q 808 339 808 442 q 766 158 808 238 q 649 32 724 78 q 475 -14 574 -14 m 71 -287 l 71 679 l 313 679 l 313 508 l 272 344 l 307 179 l 307 -287 l 71 -287 m 429 201 q 500 219 469 201 q 547 269 531 238 q 564 340 564 300 q 547 411 564 381 q 500 460 531 442 q 431 478 469 478 q 363 460 393 478 q 315 412 332 443 q 299 340 299 381 q 315 269 299 300 q 362 219 332 238 q 429 201 392 201 z "},"þ":{"ha":838,"x_min":71,"x_max":808,"o":"m 475 -14 q 354 10 410 -14 q 263 74 299 33 q 218 169 226 115 l 218 500 q 263 598 226 554 q 355 667 300 642 q 475 693 410 693 q 649 648 574 693 q 766 522 724 603 q 808 339 808 442 q 766 158 808 238 q 649 32 724 78 q 475 -14 574 -14 m 71 -287 l 71 1013 l 313 1013 l 313 508 l 272 344 l 307 179 l 307 -287 l 71 -287 m 431 201 q 499 219 469 201 q 547 268 529 236 q 564 340 564 300 q 547 411 564 381 q 500 460 531 442 q 431 478 469 478 q 363 460 393 478 q 315 412 332 443 q 299 340 299 381 q 315 269 299 300 q 362 219 332 238 q 431 201 392 201 z "},"q":{"ha":838,"x_min":29,"x_max":767,"o":"m 354 -14 q 186 32 260 -14 q 71 158 113 78 q 29 339 29 238 q 71 522 29 442 q 186 648 113 603 q 354 693 260 693 q 471 670 418 693 q 558 606 524 647 q 599 511 592 564 l 599 169 q 558 74 592 115 q 471 10 524 33 q 354 -14 418 -14 m 406 201 q 502 240 465 201 q 539 340 539 279 q 522 411 539 381 q 476 460 506 442 q 407 478 446 478 q 338 460 368 478 q 291 410 308 442 q 274 340 274 379 q 290 269 274 300 q 338 219 307 238 q 406 201 368 201 m 529 -287 l 529 179 l 564 344 l 529 508 l 529 679 l 767 679 l 767 -287 l 529 -287 z "},"r":{"ha":629,"x_min":71,"x_max":629,"o":"m 71 0 l 71 679 l 313 679 l 313 0 l 71 0 m 313 369 l 204 461 q 311 635 244 576 q 485 693 378 693 q 569 681 533 693 q 629 642 604 668 l 489 454 q 458 474 478 467 q 413 482 438 482 q 339 453 365 482 q 313 369 313 425 z "},"ŕ":{"ha":629,"x_min":71,"x_max":629,"o":"m 71 0 l 71 679 l 313 679 l 313 0 l 71 0 m 313 369 l 204 461 q 311 635 244 576 q 485 693 378 693 q 569 681 533 693 q 629 642 604 668 l 489 454 q 458 474 478 467 q 413 482 438 482 q 339 453 365 482 q 313 369 313 425 m 218 744 l 149 864 l 392 1061 l 507 872 l 218 744 z "},"ř":{"ha":629,"x_min":54,"x_max":629,"o":"m 71 0 l 71 679 l 313 679 l 313 0 l 71 0 m 313 369 l 204 461 q 311 635 244 576 q 485 693 378 693 q 569 681 533 693 q 629 642 604 668 l 489 454 q 458 474 478 467 q 413 482 438 482 q 339 454 365 482 q 313 369 313 426 m 531 1036 l 600 933 l 390 739 l 264 739 l 54 933 l 124 1036 l 422 875 l 232 875 l 531 1036 z "},"ŗ":{"ha":629,"x_min":7,"x_max":629,"o":"m 71 0 l 71 679 l 313 679 l 313 0 l 71 0 m 313 369 l 204 461 q 311 635 244 576 q 485 693 378 693 q 569 681 533 693 q 629 642 604 668 l 489 454 q 458 474 478 467 q 413 482 438 482 q 339 453 365 482 q 313 369 313 425 m 104 -574 l 7 -490 l 149 -321 l 221 -315 q 186 -347 204 -335 q 150 -354 168 -358 q 78 -301 106 -344 q 64 -204 51 -258 q 123 -114 76 -147 q 229 -93 169 -81 q 316 -155 285 -106 q 335 -262 347 -204 q 315 -316 331 -286 q 260 -389 299 -346 l 104 -574 z "},"s":{"ha":654,"x_min":6,"x_max":638,"o":"m 329 -19 q 206 -3 267 -19 q 94 42 146 14 q 6 108 42 71 l 138 243 q 217 189 171 208 q 317 169 264 169 q 363 178 347 169 q 379 201 379 186 q 356 235 379 224 q 297 256 333 247 q 219 278 260 265 q 142 314 179 292 q 81 376 104 336 q 58 479 58 417 q 94 594 58 544 q 193 672 129 643 q 343 700 257 700 q 510 670 431 700 q 638 581 589 640 l 504 446 q 431 498 471 483 q 357 513 390 513 q 311 503 325 513 q 297 479 297 494 q 320 450 297 461 q 380 430 343 439 q 456 407 417 421 q 533 369 496 393 q 592 304 569 344 q 615 200 615 264 q 538 40 615 99 q 329 -19 460 -19 z "},"ś":{"ha":654,"x_min":6,"x_max":638,"o":"m 329 -19 q 206 -3 267 -19 q 94 42 146 14 q 6 108 42 71 l 138 243 q 217 189 171 208 q 317 169 264 169 q 363 178 347 169 q 379 201 379 186 q 356 235 379 224 q 297 256 333 247 q 219 278 260 265 q 142 314 179 292 q 81 376 104 336 q 58 479 58 417 q 94 594 58 544 q 193 672 129 643 q 343 700 257 700 q 510 670 431 700 q 638 581 589 640 l 504 446 q 431 498 471 483 q 357 513 390 513 q 311 503 325 513 q 297 479 297 494 q 320 450 297 461 q 380 430 343 439 q 456 407 417 421 q 533 369 496 393 q 592 304 569 344 q 615 200 615 264 q 538 40 615 99 q 329 -19 460 -19 m 233 744 l 164 864 l 407 1061 l 522 872 l 233 744 z "},"š":{"ha":654,"x_min":6,"x_max":638,"o":"m 329 -19 q 206 -3 267 -19 q 94 42 146 14 q 6 108 42 71 l 138 243 q 217 189 171 208 q 317 169 264 169 q 363 178 347 169 q 379 201 379 186 q 356 235 379 224 q 297 256 333 247 q 219 278 260 265 q 142 314 179 292 q 81 376 104 336 q 58 479 58 417 q 94 594 58 544 q 193 672 129 643 q 343 700 257 700 q 510 670 431 700 q 638 581 589 640 l 504 446 q 431 498 471 483 q 357 513 390 513 q 311 503 325 513 q 297 479 297 494 q 320 450 297 461 q 380 430 343 439 q 456 407 417 421 q 533 369 496 393 q 592 304 569 344 q 615 200 615 264 q 538 40 615 99 q 329 -19 460 -19 m 546 1036 l 615 933 l 406 739 l 279 739 l 69 933 l 139 1036 l 438 875 l 247 875 l 546 1036 z "},"ş":{"ha":654,"x_min":6,"x_max":638,"o":"m 329 -19 q 206 -3 267 -19 q 94 42 146 14 q 6 108 42 71 l 138 243 q 217 189 171 208 q 317 169 264 169 q 363 178 347 169 q 379 201 379 186 q 356 235 379 224 q 297 256 333 247 q 219 278 260 265 q 142 314 179 292 q 81 376 104 336 q 58 479 58 417 q 94 594 58 544 q 193 672 129 643 q 343 700 257 700 q 510 670 431 700 q 638 581 589 640 l 504 446 q 431 498 471 483 q 357 513 390 513 q 311 503 325 513 q 297 479 297 494 q 320 450 297 461 q 380 430 343 439 q 456 407 417 421 q 533 369 496 393 q 592 304 569 344 q 615 200 615 264 q 538 40 615 99 q 329 -19 460 -19 m 296 -301 q 199 -289 238 -301 q 118 -253 160 -276 l 186 -162 q 226 -182 206 -175 q 269 -189 247 -189 q 306 -181 296 -189 q 317 -161 317 -174 q 302 -140 317 -149 q 256 -132 288 -132 l 225 -132 l 271 17 l 396 17 l 357 -86 l 293 -32 q 439 -69 389 -32 q 489 -167 489 -106 q 436 -263 489 -225 q 296 -301 383 -301 z "},"ș":{"ha":654,"x_min":6,"x_max":638,"o":"m 329 -19 q 206 -3 267 -19 q 94 42 146 14 q 6 108 42 71 l 138 243 q 217 189 171 208 q 317 169 264 169 q 363 178 347 169 q 379 201 379 186 q 356 235 379 224 q 297 256 333 247 q 219 278 260 265 q 142 314 179 292 q 81 376 104 336 q 58 479 58 417 q 94 594 58 544 q 193 672 129 643 q 343 700 257 700 q 510 670 431 700 q 638 581 589 640 l 504 446 q 431 498 471 483 q 357 513 390 513 q 311 503 325 513 q 297 479 297 494 q 320 450 297 461 q 380 430 343 439 q 456 407 417 421 q 533 369 496 393 q 592 304 569 344 q 615 200 615 264 q 538 40 615 99 q 329 -19 460 -19 m 243 -574 l 146 -490 l 288 -321 l 360 -315 q 325 -347 343 -335 q 289 -354 307 -358 q 217 -301 244 -344 q 203 -204 190 -258 q 262 -114 215 -147 q 368 -93 308 -81 q 455 -155 424 -106 q 474 -262 486 -204 q 453 -316 469 -286 q 399 -389 438 -346 l 243 -574 z "},"ß":{"ha":831,"x_min":71,"x_max":808,"o":"m 475 -12 q 395 -3 428 -12 q 333 25 363 7 l 396 204 q 418 195 406 199 q 449 192 431 192 q 510 206 483 192 q 551 248 536 221 q 565 310 565 275 q 548 373 565 346 q 500 417 531 400 q 429 433 469 433 l 379 433 l 379 622 l 410 622 q 460 635 438 622 q 494 670 482 647 q 506 722 506 693 q 494 772 506 750 q 460 807 482 794 q 408 819 439 819 q 335 792 363 819 q 307 710 307 764 l 307 0 l 71 0 l 71 696 q 112 862 71 788 q 230 980 153 936 q 415 1024 307 1024 q 591 983 519 1024 q 699 877 663 942 q 736 742 736 813 q 708 617 736 672 q 617 528 679 561 l 597 579 q 716 517 669 557 q 785 421 763 476 q 808 299 808 365 q 785 185 808 240 q 717 85 761 129 q 613 14 674 40 q 475 -12 551 -12 z "},"t":{"ha":569,"x_min":14,"x_max":556,"o":"m 164 0 l 164 960 l 406 960 l 406 0 l 164 0 m 14 478 l 14 679 l 556 679 l 556 478 l 14 478 z "},"ť":{"ha":778,"x_min":14,"x_max":724,"o":"m 164 0 l 164 960 l 406 960 l 406 0 l 164 0 m 14 478 l 14 679 l 556 679 l 556 478 l 14 478 m 561 722 l 449 785 l 553 981 l 622 1000 q 596 963 611 978 q 561 949 581 949 q 481 985 518 949 q 444 1076 444 1021 q 484 1177 444 1135 q 585 1219 524 1219 q 682 1178 640 1219 q 724 1076 724 1136 q 715 1019 724 1051 q 678 936 706 988 l 561 722 z "},"ț":{"ha":569,"x_min":14,"x_max":556,"o":"m 164 0 l 164 960 l 406 960 l 406 0 l 164 0 m 14 478 l 14 679 l 556 679 l 556 478 l 14 478 m 197 -574 l 100 -490 l 242 -321 l 314 -315 q 279 -347 297 -335 q 243 -354 261 -358 q 172 -301 199 -344 q 157 -204 144 -258 q 216 -114 169 -147 q 322 -93 263 -81 q 409 -155 378 -106 q 428 -262 440 -204 q 408 -316 424 -286 q 353 -389 392 -346 l 197 -574 z "},"u":{"ha":764,"x_min":53,"x_max":711,"o":"m 382 -15 q 212 23 286 -15 q 95 130 138 61 q 53 286 53 199 l 53 679 l 294 679 l 294 286 q 306 238 294 258 q 336 206 317 217 q 382 194 356 194 q 445 219 421 194 q 469 286 469 244 l 469 679 l 711 679 l 711 286 q 669 129 711 197 q 553 23 628 61 q 382 -15 479 -15 z "},"ú":{"ha":764,"x_min":53,"x_max":711,"o":"m 382 -15 q 212 23 286 -15 q 95 130 138 61 q 53 286 53 199 l 53 679 l 294 679 l 294 286 q 306 238 294 258 q 336 206 317 217 q 382 194 356 194 q 445 219 421 194 q 469 286 469 244 l 469 679 l 711 679 l 711 286 q 669 129 711 197 q 553 23 628 61 q 382 -15 479 -15 m 272 744 l 203 864 l 446 1061 l 561 872 l 272 744 z "},"ŭ":{"ha":764,"x_min":53,"x_max":711,"o":"m 382 -15 q 212 23 286 -15 q 95 130 138 61 q 53 286 53 199 l 53 679 l 294 679 l 294 286 q 306 238 294 258 q 336 206 317 217 q 382 194 356 194 q 445 219 421 194 q 469 286 469 244 l 469 679 l 711 679 l 711 286 q 669 129 711 197 q 553 23 628 61 q 382 -15 479 -15 m 656 1007 q 619 870 656 932 q 522 772 583 808 q 385 736 461 736 q 244 772 306 736 q 146 869 182 808 q 110 1007 110 931 l 289 1007 q 316 938 289 965 q 385 910 343 910 q 431 922 411 910 q 463 957 451 935 q 475 1007 475 979 l 656 1007 z "},"û":{"ha":764,"x_min":53,"x_max":711,"o":"m 382 -15 q 212 23 286 -15 q 95 130 138 61 q 53 286 53 199 l 53 679 l 294 679 l 294 286 q 306 238 294 258 q 336 206 317 217 q 382 194 356 194 q 445 219 421 194 q 469 286 469 244 l 469 679 l 711 679 l 711 286 q 669 129 711 197 q 553 23 628 61 q 382 -15 479 -15 m 179 739 l 110 842 l 319 1036 l 446 1036 l 656 842 l 586 739 l 288 901 l 478 900 l 179 739 z "},"ü":{"ha":764,"x_min":53,"x_max":711,"o":"m 382 -15 q 212 23 286 -15 q 95 130 138 61 q 53 286 53 199 l 53 679 l 294 679 l 294 286 q 306 238 294 258 q 336 206 317 217 q 382 194 356 194 q 445 219 421 194 q 469 286 469 244 l 469 679 l 711 679 l 711 286 q 669 129 711 197 q 553 23 628 61 q 382 -15 479 -15 m 226 754 q 136 792 172 754 q 100 883 100 829 q 136 975 100 938 q 226 1013 172 1013 q 317 975 282 1013 q 353 883 353 938 q 317 792 353 829 q 226 754 282 754 m 539 754 q 449 792 485 754 q 413 883 413 829 q 449 975 413 938 q 539 1013 485 1013 q 630 975 594 1013 q 665 883 665 938 q 630 792 665 829 q 539 754 594 754 z "},"ù":{"ha":764,"x_min":53,"x_max":711,"o":"m 382 -15 q 212 23 286 -15 q 95 130 138 61 q 53 286 53 199 l 53 679 l 294 679 l 294 286 q 306 238 294 258 q 336 206 317 217 q 382 194 356 194 q 445 219 421 194 q 469 286 469 244 l 469 679 l 711 679 l 711 286 q 669 129 711 197 q 553 23 628 61 q 382 -15 479 -15 m 465 751 l 176 879 l 293 1068 l 535 871 l 465 751 z "},"ű":{"ha":764,"x_min":53,"x_max":736,"o":"m 382 -15 q 212 23 286 -15 q 95 130 138 61 q 53 286 53 199 l 53 679 l 294 679 l 294 286 q 306 238 294 258 q 336 206 317 217 q 382 194 356 194 q 445 219 421 194 q 469 286 469 244 l 469 679 l 711 679 l 711 286 q 669 129 711 197 q 553 23 628 61 q 382 -15 479 -15 m 186 754 l 72 832 l 208 1114 l 393 992 l 186 754 m 529 754 l 415 832 l 551 1114 l 736 992 l 529 754 z "},"ū":{"ha":764,"x_min":53,"x_max":711,"o":"m 382 -15 q 212 23 286 -15 q 95 130 138 61 q 53 286 53 199 l 53 679 l 294 679 l 294 286 q 306 238 294 258 q 336 206 317 217 q 382 194 356 194 q 445 219 421 194 q 469 286 469 244 l 469 679 l 711 679 l 711 286 q 669 129 711 197 q 553 23 628 61 q 382 -15 479 -15 m 114 974 l 653 974 l 653 800 l 114 800 l 114 974 z "},"ų":{"ha":764,"x_min":53,"x_max":711,"o":"m 382 -15 q 212 23 286 -15 q 95 130 138 61 q 53 286 53 199 l 53 679 l 294 679 l 294 286 q 306 238 294 258 q 336 206 317 217 q 382 194 356 194 q 445 219 421 194 q 469 286 469 244 l 469 679 l 711 679 l 711 286 q 669 129 711 197 q 553 23 628 61 q 382 -15 479 -15 m 410 -287 q 248 -244 308 -287 q 188 -121 188 -201 q 242 8 188 -43 q 382 67 296 58 l 533 14 q 446 -28 476 -3 q 415 -93 415 -53 q 428 -131 415 -118 q 464 -143 440 -143 q 490 -138 478 -143 q 517 -128 503 -133 l 565 -250 q 495 -278 533 -268 q 410 -287 457 -287 z "},"ů":{"ha":764,"x_min":53,"x_max":711,"o":"m 382 -15 q 212 23 286 -15 q 95 130 138 61 q 53 286 53 199 l 53 679 l 294 679 l 294 286 q 306 238 294 258 q 336 206 317 217 q 382 194 356 194 q 445 219 421 194 q 469 286 469 244 l 469 679 l 711 679 l 711 286 q 669 129 711 197 q 553 23 628 61 q 382 -15 479 -15 m 383 736 q 287 761 329 736 q 220 827 244 786 q 196 919 196 868 q 220 1014 196 972 q 287 1080 244 1056 q 382 1104 329 1104 q 477 1080 435 1104 q 544 1014 519 1056 q 568 921 568 972 q 544 826 568 868 q 477 760 519 785 q 383 736 435 736 m 383 858 q 425 876 408 858 q 442 921 442 894 q 425 965 442 947 q 383 982 408 982 q 339 964 356 982 q 322 919 322 946 q 339 876 322 894 q 383 858 356 858 z "},"v":{"ha":764,"x_min":-1,"x_max":765,"o":"m 275 0 l -1 679 l 257 679 l 433 107 l 335 107 l 510 679 l 765 679 l 489 0 l 275 0 z "},"w":{"ha":1111,"x_min":4,"x_max":1107,"o":"m 219 0 l 4 679 l 238 679 l 365 185 l 296 183 l 447 679 l 663 679 l 814 183 l 744 185 l 874 679 l 1107 679 l 892 0 l 674 0 l 529 469 l 583 469 l 435 0 l 219 0 z "},"ẃ":{"ha":1111,"x_min":4,"x_max":1107,"o":"m 219 0 l 4 679 l 238 679 l 365 185 l 296 183 l 447 679 l 663 679 l 814 183 l 744 185 l 874 679 l 1107 679 l 892 0 l 674 0 l 529 469 l 583 469 l 435 0 l 219 0 m 446 744 l 376 864 l 619 1061 l 735 872 l 446 744 z "},"ŵ":{"ha":1111,"x_min":4,"x_max":1107,"o":"m 219 0 l 4 679 l 238 679 l 365 185 l 296 183 l 447 679 l 663 679 l 814 183 l 744 185 l 874 679 l 1107 679 l 892 0 l 674 0 l 529 469 l 583 469 l 435 0 l 219 0 m 353 739 l 283 842 l 493 1036 l 619 1036 l 829 842 l 760 739 l 461 901 l 651 900 l 353 739 z "},"ẅ":{"ha":1111,"x_min":4,"x_max":1107,"o":"m 219 0 l 4 679 l 238 679 l 365 185 l 296 183 l 447 679 l 663 679 l 814 183 l 744 185 l 874 679 l 1107 679 l 892 0 l 674 0 l 529 469 l 583 469 l 435 0 l 219 0 m 400 754 q 310 792 346 754 q 274 883 274 829 q 310 975 274 938 q 400 1013 346 1013 q 491 975 456 1013 q 526 883 526 938 q 491 792 526 829 q 400 754 456 754 m 713 754 q 622 792 658 754 q 586 883 586 829 q 622 975 586 938 q 713 1013 658 1013 q 803 975 768 1013 q 839 883 839 938 q 803 792 839 829 q 713 754 768 754 z "},"ẁ":{"ha":1111,"x_min":4,"x_max":1107,"o":"m 219 0 l 4 679 l 238 679 l 365 185 l 296 183 l 447 679 l 663 679 l 814 183 l 744 185 l 874 679 l 1107 679 l 892 0 l 674 0 l 529 469 l 583 469 l 435 0 l 219 0 m 639 751 l 350 879 l 467 1068 l 708 871 l 639 751 z "},"x":{"ha":764,"x_min":1,"x_max":763,"o":"m 485 0 l 339 251 l 283 285 l 15 679 l 294 679 l 438 435 l 490 404 l 763 0 l 485 0 m 1 0 l 281 401 l 418 253 l 260 0 l 1 0 m 482 285 l 344 433 l 490 679 l 749 679 l 482 285 z "},"y":{"ha":751,"x_min":1,"x_max":751,"o":"m 274 -1 l 1 679 l 260 679 l 426 119 l 325 119 l 493 679 l 751 679 l 472 -1 l 274 -1 m 113 -287 l 314 156 l 472 -1 l 356 -287 l 113 -287 z "},"ý":{"ha":751,"x_min":1,"x_max":751,"o":"m 274 -1 l 1 679 l 260 679 l 426 119 l 325 119 l 493 679 l 751 679 l 472 -1 l 274 -1 m 113 -287 l 314 156 l 472 -1 l 356 -287 l 113 -287 m 267 744 l 197 864 l 440 1061 l 556 872 l 267 744 z "},"ŷ":{"ha":751,"x_min":1,"x_max":751,"o":"m 274 -1 l 1 679 l 260 679 l 426 119 l 325 119 l 493 679 l 751 679 l 472 -1 l 274 -1 m 113 -287 l 314 156 l 472 -1 l 356 -287 l 113 -287 m 172 739 l 103 842 l 313 1036 l 439 1036 l 649 842 l 579 739 l 281 901 l 471 900 l 172 739 z "},"ÿ":{"ha":751,"x_min":1,"x_max":751,"o":"m 274 -1 l 1 679 l 260 679 l 426 119 l 325 119 l 493 679 l 751 679 l 472 -1 l 274 -1 m 113 -287 l 314 156 l 472 -1 l 356 -287 l 113 -287 m 221 754 q 131 792 167 754 q 94 883 94 829 q 131 975 94 938 q 221 1013 167 1013 q 312 975 276 1013 q 347 883 347 938 q 312 792 347 829 q 221 754 276 754 m 533 754 q 443 792 479 754 q 407 883 407 829 q 443 975 407 938 q 533 1013 479 1013 q 624 975 589 1013 q 660 883 660 938 q 624 792 660 829 q 533 754 589 754 z "},"ỳ":{"ha":751,"x_min":1,"x_max":751,"o":"m 274 -1 l 1 679 l 260 679 l 426 119 l 325 119 l 493 679 l 751 679 l 472 -1 l 274 -1 m 113 -287 l 314 156 l 472 -1 l 356 -287 l 113 -287 m 460 751 l 171 879 l 288 1068 l 529 871 l 460 751 z "},"z":{"ha":688,"x_min":31,"x_max":651,"o":"m 31 144 l 353 535 l 651 535 l 329 144 l 31 144 m 31 0 l 31 144 l 188 197 l 643 197 l 643 0 l 31 0 m 54 482 l 54 679 l 651 679 l 651 535 l 494 482 l 54 482 z "},"ź":{"ha":688,"x_min":31,"x_max":651,"o":"m 31 144 l 353 535 l 651 535 l 329 144 l 31 144 m 31 0 l 31 144 l 188 197 l 643 197 l 643 0 l 31 0 m 54 482 l 54 679 l 651 679 l 651 535 l 494 482 l 54 482 m 249 744 l 179 864 l 422 1061 l 538 872 l 249 744 z "},"ž":{"ha":688,"x_min":31,"x_max":651,"o":"m 31 144 l 353 535 l 651 535 l 329 144 l 31 144 m 31 0 l 31 144 l 188 197 l 643 197 l 643 0 l 31 0 m 54 482 l 54 679 l 651 679 l 651 535 l 494 482 l 54 482 m 561 1036 l 631 933 l 421 739 l 296 739 l 86 933 l 156 1036 l 453 875 l 263 875 l 561 1036 z "},"ż":{"ha":688,"x_min":31,"x_max":651,"o":"m 31 144 l 353 535 l 651 535 l 329 144 l 31 144 m 31 0 l 31 144 l 188 197 l 643 197 l 643 0 l 31 0 m 54 482 l 54 679 l 651 679 l 651 535 l 494 482 l 54 482 m 358 754 q 268 792 304 754 q 232 883 232 829 q 268 975 232 938 q 358 1013 304 1013 q 451 975 415 1013 q 486 883 486 938 q 451 792 486 829 q 358 754 415 754 z "},"ﬁ":{"ha":925,"x_min":10,"x_max":857,"o":"m 154 0 l 154 729 q 190 880 154 813 q 295 988 226 947 q 460 1029 364 1029 q 542 1018 504 1029 q 619 983 581 1007 l 510 800 q 485 810 497 807 q 460 814 474 814 q 413 795 429 814 q 396 746 396 776 l 396 0 l 154 0 m 10 478 l 10 679 l 704 679 l 704 478 l 10 478 m 615 0 l 615 679 l 857 679 l 857 0 l 615 0 m 736 724 q 651 758 685 724 q 617 844 617 793 q 651 931 617 896 q 736 967 685 967 q 822 931 789 967 q 856 844 856 896 q 822 758 856 793 q 736 724 789 724 z "},"ﬂ":{"ha":907,"x_min":10,"x_max":836,"o":"m 154 0 l 154 718 q 192 874 154 803 q 302 987 229 944 q 478 1029 375 1029 l 476 814 q 418 790 440 814 q 396 728 396 765 l 396 0 l 154 0 m 10 478 l 10 679 l 700 679 l 700 478 l 10 478 m 594 0 l 594 1013 l 836 1013 l 836 0 l 594 0 z "},"ª":{"ha":506,"x_min":15,"x_max":465,"o":"m 211 567 q 110 594 154 567 q 41 670 67 622 q 15 781 15 718 q 40 890 15 842 q 110 965 65 938 q 211 993 154 993 q 308 964 267 993 q 357 890 349 935 l 357 669 q 308 597 349 626 q 211 567 267 567 m 246 704 q 299 725 279 704 q 319 781 319 746 q 299 835 319 814 q 246 857 278 857 q 193 835 214 857 q 172 781 172 813 q 193 725 172 746 q 246 704 214 704 m 314 575 l 314 685 l 336 785 l 314 883 l 314 985 l 465 985 l 465 575 l 314 575 z "},"º":{"ha":488,"x_min":14,"x_max":474,"o":"m 244 564 q 126 592 179 564 q 44 669 74 619 q 14 779 14 718 q 44 889 14 840 q 126 965 74 938 q 244 993 178 993 q 363 965 311 993 q 444 889 414 938 q 474 779 474 840 q 444 669 474 718 q 363 592 414 621 q 244 564 311 564 m 244 701 q 297 723 278 701 q 317 779 317 744 q 297 835 317 814 q 244 856 276 856 q 191 834 211 856 q 171 778 171 813 q 191 723 171 744 q 244 701 211 701 z "},"⁄":{"ha":967,"x_min":19,"x_max":928,"o":"m 390 450 l 476 356 l 167 -15 l 19 132 l 390 450 m 557 538 l 471 631 l 781 1003 l 928 856 l 557 538 z "},"½":{"ha":967,"x_min":19,"x_max":928,"o":"m 379 439 l 465 356 l 167 -15 l 19 132 l 379 439 m 557 547 l 471 631 l 781 1003 l 928 856 l 557 547 m 171 485 l 171 985 l 342 985 l 342 485 l 171 485 m 82 844 l 82 985 l 335 985 l 335 844 l 82 844 m 513 89 l 718 292 q 730 308 726 299 q 733 324 733 317 q 722 353 733 342 q 689 364 711 364 q 654 351 671 364 q 614 306 638 339 l 504 407 q 589 482 536 457 q 706 507 642 507 q 850 460 797 507 q 903 333 903 414 q 885 256 903 293 q 832 185 868 218 l 715 81 l 513 89 m 513 -1 l 513 89 l 656 138 l 913 138 l 913 -1 l 513 -1 z "},"¼":{"ha":968,"x_min":19,"x_max":932,"o":"m 390 439 l 476 356 l 167 -15 l 19 132 l 390 439 m 557 547 l 471 631 l 781 1003 l 928 856 l 557 547 m 171 485 l 171 985 l 342 985 l 342 485 l 171 485 m 82 844 l 82 985 l 335 985 l 335 844 l 82 844 m 506 165 l 643 499 l 813 499 l 672 165 l 506 165 m 506 76 l 506 165 l 549 215 l 932 215 l 932 76 l 506 76 m 746 -1 l 746 285 l 903 285 l 903 -1 l 746 -1 z "},"¾":{"ha":963,"x_min":19,"x_max":931,"o":"m 363 451 l 449 369 l 167 -15 l 19 132 l 363 451 m 599 535 l 513 617 l 783 1003 l 931 856 l 599 535 m 239 475 q 135 493 183 475 q 53 543 88 511 l 160 647 q 192 624 169 633 q 236 615 215 615 q 277 626 260 615 q 294 657 294 636 q 276 688 294 676 q 226 699 258 699 q 192 697 208 699 q 171 692 176 694 l 246 783 q 297 792 276 789 q 331 796 318 796 q 423 758 386 796 q 460 653 460 721 q 399 524 460 574 q 239 475 339 475 m 171 692 l 171 782 l 265 894 l 444 894 l 347 783 l 171 692 m 96 844 l 96 985 l 444 985 l 444 894 l 322 844 l 96 844 m 485 165 l 621 499 l 792 499 l 651 165 l 485 165 m 485 76 l 485 165 l 526 215 l 910 215 l 910 76 l 485 76 m 725 -1 l 725 285 l 882 285 l 882 -1 l 725 -1 z "},"¹":{"ha":368,"x_min":22,"x_max":282,"o":"m 113 485 l 113 985 l 282 985 l 282 485 l 113 485 m 22 844 l 22 985 l 275 985 l 275 844 l 22 844 z "},"²":{"ha":471,"x_min":24,"x_max":431,"o":"m 32 575 l 238 778 q 249 794 246 785 q 253 810 253 803 q 241 839 253 828 q 208 850 229 850 q 174 838 190 850 q 133 792 157 825 l 24 893 q 108 968 56 943 q 225 993 160 993 q 369 947 317 993 q 421 819 421 900 q 404 742 421 779 q 350 671 388 704 l 235 567 l 32 575 m 32 485 l 32 575 l 175 624 l 431 624 l 431 485 l 32 485 z "},"³":{"ha":460,"x_min":15,"x_max":422,"o":"m 201 475 q 98 493 146 475 q 15 543 50 511 l 122 647 q 155 624 132 633 q 199 615 178 615 q 240 626 222 615 q 257 657 257 636 q 239 688 257 676 q 189 699 221 699 q 155 697 171 699 q 133 692 139 694 l 208 783 q 260 792 239 789 q 293 796 281 796 q 385 758 349 796 q 422 653 422 721 q 362 524 422 574 q 201 475 301 475 m 133 692 l 133 782 l 228 894 l 407 894 l 310 783 l 133 692 m 58 844 l 58 985 l 407 985 l 407 894 l 285 844 l 58 844 z "},"⁴":{"ha":476,"x_min":25,"x_max":450,"o":"m 25 651 l 161 985 l 332 985 l 192 651 l 25 651 m 25 563 l 25 651 l 67 701 l 450 701 l 450 563 l 25 563 m 265 485 l 265 771 l 422 771 l 422 485 l 265 485 z "},"\r":{"ha":833,"x_min":0,"x_max":0,"o":""}," ":{"ha":257,"x_min":0,"x_max":0,"o":""}," ":{"ha":257,"x_min":0,"x_max":0,"o":""},".":{"ha":422,"x_min":74,"x_max":350,"o":"m 213 -15 q 113 25 151 -15 q 74 125 74 65 q 113 225 74 185 q 213 265 151 265 q 311 225 272 265 q 350 125 350 185 q 311 25 350 65 q 213 -15 272 -15 z "},",":{"ha":399,"x_min":65,"x_max":344,"o":"m 69 -169 l 174 26 l 243 46 q 217 9 232 24 q 182 -6 201 -6 q 102 31 139 -6 q 65 122 65 67 q 105 224 65 182 q 206 265 144 265 q 303 224 261 265 q 344 122 344 182 q 335 66 344 99 q 299 -17 326 33 l 182 -231 l 69 -169 z "},":":{"ha":417,"x_min":69,"x_max":346,"o":"m 208 -15 q 109 25 149 -15 q 69 124 69 65 q 109 225 69 185 q 208 265 149 265 q 307 225 268 265 q 346 124 346 185 q 307 25 346 65 q 208 -15 268 -15 m 208 386 q 109 427 149 386 q 69 526 69 468 q 109 627 69 586 q 208 668 149 668 q 307 627 268 668 q 346 526 346 586 q 307 427 346 468 q 208 386 268 386 z "},";":{"ha":397,"x_min":63,"x_max":342,"o":"m 67 -169 l 171 26 l 240 46 q 214 9 229 24 q 179 -6 199 -6 q 99 31 135 -6 q 63 122 63 67 q 102 223 63 181 q 201 265 142 265 q 300 224 258 265 q 342 122 342 182 q 333 66 342 99 q 296 -17 324 33 l 179 -231 l 67 -169 m 201 386 q 102 427 142 386 q 63 526 63 468 q 102 627 63 586 q 201 668 142 668 q 300 627 261 668 q 339 526 339 586 q 300 427 339 468 q 201 386 261 386 z "},"…":{"ha":1214,"x_min":74,"x_max":1142,"o":"m 608 -15 q 508 25 547 -15 q 469 125 469 65 q 508 225 469 185 q 608 265 547 265 q 707 225 668 265 q 746 125 746 185 q 707 25 746 65 q 608 -15 668 -15 m 1004 -15 q 904 25 943 -15 q 865 125 865 65 q 904 225 865 185 q 1004 265 943 265 q 1103 225 1064 265 q 1142 125 1142 185 q 1103 25 1142 65 q 1004 -15 1064 -15 m 213 -15 q 113 25 151 -15 q 74 125 74 65 q 113 225 74 185 q 213 265 151 265 q 311 225 272 265 q 350 125 350 185 q 311 25 350 65 q 213 -15 272 -15 z "},"!":{"ha":413,"x_min":67,"x_max":343,"o":"m 115 375 l 74 1013 l 338 1013 l 296 375 l 115 375 m 206 -15 q 106 25 146 -15 q 67 125 67 65 q 106 225 67 185 q 206 265 146 265 q 304 225 265 265 q 343 125 343 185 q 304 25 343 65 q 206 -15 265 -15 z "},"¡":{"ha":411,"x_min":67,"x_max":344,"o":"m 74 -287 l 115 301 l 296 301 l 338 -287 l 74 -287 m 206 411 q 106 453 146 411 q 67 553 67 494 q 106 653 67 613 q 206 693 146 693 q 306 653 267 693 q 344 553 344 613 q 306 453 344 494 q 206 411 267 411 z "},"?":{"ha":689,"x_min":24,"x_max":650,"o":"m 267 371 l 251 635 l 321 635 q 372 645 350 635 q 406 675 394 656 q 418 719 418 694 q 406 765 418 746 q 374 793 394 783 q 326 803 354 803 q 239 774 279 803 q 172 701 199 744 l 24 846 q 145 977 65 925 q 338 1029 225 1029 q 500 990 429 1029 q 610 884 571 950 q 650 738 650 818 q 616 593 650 651 q 526 500 582 535 q 403 450 469 465 l 464 539 l 453 371 l 267 371 m 360 -15 q 260 25 300 -15 q 221 125 221 65 q 260 225 221 185 q 360 265 300 265 q 458 225 419 265 q 497 125 497 185 q 458 25 497 65 q 360 -15 419 -15 z "},"¿":{"ha":682,"x_min":39,"x_max":663,"o":"m 350 -304 q 188 -268 258 -304 q 78 -169 118 -232 q 39 -26 39 -107 q 74 108 39 51 q 167 203 108 165 q 297 256 225 240 l 225 186 l 236 307 l 422 307 l 438 89 l 368 89 q 298 67 325 89 q 271 4 271 44 q 283 -40 271 -21 q 315 -68 294 -58 q 361 -78 335 -78 q 449 -49 408 -78 q 514 24 489 -21 l 663 -121 q 542 -252 621 -200 q 350 -304 463 -304 m 329 411 q 231 453 271 411 q 192 553 192 494 q 231 653 192 613 q 329 693 271 693 q 428 653 389 693 q 468 553 468 613 q 428 453 468 494 q 329 411 389 411 z "},"·":{"ha":276,"x_min":0,"x_max":276,"o":"m 140 375 q 40 415 79 375 q 1 515 1 456 q 40 615 1 575 q 140 656 79 656 q 239 615 200 656 q 278 515 278 575 q 239 415 278 456 q 140 375 200 375 z "},"•":{"ha":493,"x_min":67,"x_max":426,"o":"m 247 333 q 153 358 194 333 q 90 424 113 382 q 67 514 67 465 q 90 605 67 564 q 153 670 113 646 q 247 694 194 694 q 340 670 299 694 q 403 605 381 646 q 426 514 426 564 q 403 424 426 465 q 340 358 381 382 q 247 333 299 333 z "},"*":{"ha":679,"x_min":36,"x_max":635,"o":"m 288 418 l 289 635 l 122 510 l 36 676 l 233 740 l 69 860 l 201 993 l 317 826 l 381 1026 l 547 940 l 422 769 l 635 771 l 604 585 l 406 654 l 474 450 l 288 418 z "},"#":{"ha":935,"x_min":43,"x_max":892,"o":"m 442 0 l 610 985 l 804 985 l 636 0 l 442 0 m 43 274 l 43 440 l 843 440 l 843 274 l 43 274 m 122 0 l 290 985 l 483 985 l 317 0 l 122 0 m 92 565 l 92 731 l 892 731 l 892 565 l 92 565 z "},"/":{"ha":522,"x_min":0,"x_max":522,"o":"m 0 -86 l 317 1060 l 522 1060 l 206 -86 l 0 -86 z "},"\\":{"ha":522,"x_min":0,"x_max":522,"o":"m 317 -86 l 0 1060 l 206 1060 l 522 -86 l 317 -86 z "},"-":{"ha":643,"x_min":71,"x_max":572,"o":"m 71 251 l 71 458 l 572 458 l 572 251 l 71 251 z "},"–":{"ha":800,"x_min":71,"x_max":729,"o":"m 71 258 l 71 451 l 729 451 l 729 258 l 71 258 z "},"—":{"ha":1208,"x_min":71,"x_max":1136,"o":"m 71 258 l 71 450 l 1136 450 l 1136 258 l 71 258 z "},"_":{"ha":718,"x_min":0,"x_max":718,"o":"m 0 -237 l 0 -54 l 718 -54 l 718 -237 l 0 -237 z "},"(":{"ha":438,"x_min":38,"x_max":422,"o":"m 292 -183 q 154 -17 211 -112 q 67 194 97 79 q 38 436 38 310 q 67 677 38 563 q 154 888 97 792 q 292 1054 211 985 l 422 926 q 290 715 335 838 q 244 436 244 593 q 290 157 244 281 q 422 -54 335 33 l 292 -183 z "},")":{"ha":438,"x_min":15,"x_max":400,"o":"m 146 -183 l 15 -54 q 148 157 103 33 q 193 436 193 281 q 148 715 193 593 q 15 926 103 838 l 146 1054 q 284 888 228 985 q 370 677 340 792 q 400 436 400 563 q 370 194 400 310 q 284 -17 340 79 q 146 -183 228 -112 z "},"{":{"ha":485,"x_min":21,"x_max":442,"o":"m 354 -133 q 163 -70 229 -133 q 108 124 96 -7 l 124 285 q 113 341 128 325 q 60 357 99 357 l 21 357 l 21 526 l 60 526 q 113 543 99 526 q 124 599 128 560 l 107 756 q 162 948 94 883 q 354 1013 229 1013 l 442 1013 l 442 840 l 396 840 q 319 817 338 840 q 304 751 300 793 l 315 622 q 310 524 321 564 q 263 457 299 483 q 157 414 226 431 l 157 467 q 263 427 226 453 q 310 361 299 401 q 315 263 321 321 l 304 129 q 319 63 301 86 q 396 40 338 40 l 442 40 l 442 -133 l 354 -133 z "},"}":{"ha":485,"x_min":33,"x_max":454,"o":"m 121 -133 l 33 -133 l 33 40 l 79 40 q 156 63 138 40 q 171 129 174 86 l 160 263 q 165 361 154 321 q 213 427 176 401 q 318 467 249 453 l 318 414 q 213 457 249 431 q 165 524 176 483 q 160 622 154 564 l 171 751 q 156 817 175 793 q 79 840 138 840 l 33 840 l 33 1013 l 121 1013 q 313 948 246 1013 q 368 756 381 883 l 351 599 q 362 543 347 560 q 415 526 376 526 l 454 526 l 454 357 l 415 357 q 362 341 376 357 q 351 285 347 325 l 367 124 q 313 -70 381 -7 q 121 -133 246 -133 z "},"[":{"ha":489,"x_min":85,"x_max":446,"o":"m 85 -133 l 85 1013 l 278 1013 l 278 -133 l 85 -133 m 181 -133 l 181 40 l 446 40 l 446 -133 l 181 -133 m 181 840 l 181 1013 l 446 1013 l 446 840 l 181 840 z "},"]":{"ha":489,"x_min":43,"x_max":404,"o":"m 213 -133 l 213 1013 l 404 1013 l 404 -133 l 213 -133 m 43 -133 l 43 40 l 308 40 l 308 -133 l 43 -133 m 43 840 l 43 1013 l 308 1013 l 308 840 l 43 840 z "},"‚":{"ha":399,"x_min":65,"x_max":344,"o":"m 69 -169 l 174 26 l 243 46 q 217 9 232 24 q 182 -6 201 -6 q 102 31 139 -6 q 65 122 65 67 q 105 224 65 182 q 206 265 144 265 q 303 224 261 265 q 344 122 344 182 q 335 66 344 99 q 299 -17 326 33 l 182 -231 l 69 -169 z "},"„":{"ha":726,"x_min":65,"x_max":672,"o":"m 399 -169 l 503 26 l 572 46 q 546 9 561 24 q 511 -6 531 -6 q 431 31 467 -6 q 394 122 394 67 q 434 223 394 181 q 533 265 474 265 q 632 224 590 265 q 674 122 674 182 q 665 65 674 97 q 628 -18 656 33 l 511 -232 l 399 -169 m 69 -169 l 175 26 l 244 46 q 217 9 232 24 q 182 -6 201 -6 q 103 31 139 -6 q 67 122 67 67 q 106 223 67 181 q 206 265 146 265 q 304 224 263 265 q 346 122 346 182 q 336 65 346 97 q 299 -18 326 33 l 183 -232 l 69 -169 z "},"“":{"ha":697,"x_min":39,"x_max":646,"o":"m 314 965 l 210 768 l 140 750 q 167 786 151 771 q 201 801 183 801 q 282 765 246 801 q 318 672 318 729 q 278 572 318 614 q 179 529 239 529 q 81 571 122 529 q 39 672 39 613 q 48 729 39 697 q 85 813 57 761 l 201 1026 l 314 965 m 643 965 l 538 768 l 468 750 q 496 786 481 771 q 531 801 511 801 q 610 765 575 801 q 646 672 646 729 q 606 572 646 614 q 507 529 567 529 q 408 571 450 529 q 367 672 367 613 q 376 729 367 697 q 414 813 386 761 l 529 1026 l 643 965 z "},"”":{"ha":697,"x_min":51,"x_max":658,"o":"m 383 564 l 488 760 l 557 779 q 531 742 546 757 q 496 728 515 728 q 415 764 451 728 q 379 856 379 800 q 419 956 379 914 q 518 999 458 999 q 617 957 575 999 q 658 856 658 915 q 649 799 658 831 q 613 715 640 767 l 496 501 l 383 564 m 54 564 l 160 760 l 229 779 q 201 742 217 757 q 167 728 186 728 q 88 764 124 728 q 51 856 51 800 q 91 956 51 914 q 190 999 131 999 q 289 957 247 999 q 331 856 331 915 q 321 799 331 831 q 283 715 311 767 l 168 501 l 54 564 z "},"‘":{"ha":369,"x_min":39,"x_max":318,"o":"m 314 965 l 210 768 l 140 750 q 167 786 151 771 q 201 801 183 801 q 282 765 246 801 q 318 672 318 729 q 278 572 318 614 q 179 529 239 529 q 81 571 122 529 q 39 672 39 613 q 48 729 39 697 q 85 813 57 761 l 201 1026 l 314 965 z "},"’":{"ha":369,"x_min":51,"x_max":331,"o":"m 54 564 l 160 760 l 229 779 q 201 742 217 757 q 167 728 186 728 q 88 764 124 728 q 51 856 51 800 q 91 956 51 914 q 190 999 131 999 q 289 957 247 999 q 331 856 331 915 q 321 799 331 831 q 283 715 311 767 l 168 501 l 54 564 z "},"«":{"ha":732,"x_min":26,"x_max":707,"o":"m 167 93 l 26 342 l 167 590 l 388 590 l 240 342 l 388 93 l 167 93 m 486 93 l 346 342 l 486 590 l 707 590 l 560 342 l 707 93 l 486 93 z "},"»":{"ha":732,"x_min":25,"x_max":706,"o":"m 344 93 l 492 342 l 344 590 l 565 590 l 706 342 l 565 93 l 344 93 m 25 93 l 172 342 l 25 590 l 246 590 l 386 342 l 246 93 l 25 93 z "},"‹":{"ha":413,"x_min":26,"x_max":388,"o":"m 167 93 l 26 342 l 167 590 l 388 590 l 240 342 l 388 93 l 167 93 z "},"›":{"ha":413,"x_min":25,"x_max":386,"o":"m 25 93 l 172 342 l 25 590 l 246 590 l 386 342 l 246 93 l 25 93 z "},"\"":{"ha":654,"x_min":67,"x_max":588,"o":"m 404 579 l 364 1013 l 588 1013 l 546 579 l 404 579 m 108 579 l 67 1013 l 292 1013 l 250 579 l 108 579 z "},"'":{"ha":353,"x_min":64,"x_max":289,"o":"m 106 579 l 64 1013 l 289 1013 l 247 579 l 106 579 z "},"✓":{"ha":1190,"x_min":25,"x_max":1165,"o":"m 383 83 l 25 433 l 178 585 l 507 261 l 415 260 l 1013 940 l 1165 786 l 528 83 l 383 83 z "},"@":{"ha":1064,"x_min":50,"x_max":1013,"o":"m 539 -165 q 347 -129 435 -165 q 192 -28 258 -93 q 88 123 125 36 q 50 311 50 210 q 88 499 50 413 q 194 651 126 586 q 351 753 261 717 q 547 789 442 789 q 790 731 685 789 q 953 567 894 672 q 1013 325 1013 463 q 999 201 1013 256 q 957 104 986 147 l 781 104 q 817 165 803 131 q 839 241 832 200 q 846 326 846 282 q 810 494 846 428 q 708 595 774 561 q 551 629 642 629 q 384 592 458 629 q 268 483 310 554 q 226 310 226 413 q 267 140 226 211 q 377 31 307 68 q 536 -6 447 -6 q 650 12 600 -6 q 743 63 700 29 l 856 -51 q 710 -137 792 -108 q 539 -165 628 -165 m 508 100 q 410 128 457 100 q 335 203 364 156 q 307 311 307 251 q 335 422 307 372 q 410 499 364 471 q 508 528 457 528 q 614 499 575 528 q 653 397 653 469 l 653 228 q 615 128 653 157 q 508 100 576 100 m 521 240 q 570 262 553 240 q 588 313 588 283 q 569 363 588 343 q 521 383 551 383 q 472 363 490 383 q 454 313 454 342 q 472 261 454 282 q 521 240 490 240 m 683 104 l 683 235 l 957 235 l 957 104 l 683 104 m 610 104 l 610 217 l 626 317 l 610 417 l 610 517 l 751 517 l 751 104 l 610 104 z "},"&":{"ha":974,"x_min":47,"x_max":975,"o":"m 693 0 l 249 490 q 174 601 197 549 q 151 717 151 654 q 190 856 151 792 q 297 961 229 921 q 456 1001 365 1001 q 581 981 526 1001 q 675 931 636 961 q 733 868 714 900 l 576 714 q 522 765 550 750 q 461 781 494 781 q 401 760 425 781 q 378 710 378 739 q 389 666 378 686 q 419 622 400 646 l 975 0 l 693 0 m 378 -15 q 203 25 278 -15 q 88 134 129 65 q 47 288 47 203 q 95 453 47 381 q 243 572 143 526 l 344 411 q 289 369 307 397 q 271 306 271 340 q 284 254 271 278 q 322 217 297 231 q 382 203 347 203 q 445 219 417 203 q 496 269 474 235 l 663 106 q 598 50 640 78 q 499 3 556 22 q 378 -15 443 -15 z "},"¶":{"ha":997,"x_min":46,"x_max":957,"o":"m 561 353 l 382 353 q 212 390 289 353 q 90 499 135 428 q 46 668 46 571 q 90 838 46 768 q 212 947 135 908 q 382 985 289 985 l 957 985 l 957 800 l 393 800 q 328 785 358 800 q 279 741 297 771 q 261 668 261 711 q 279 596 261 625 q 328 552 297 567 q 393 538 358 538 l 561 538 l 561 353 m 608 -139 l 418 -139 l 418 985 l 608 985 l 608 -139 m 865 -139 l 675 -139 l 675 985 l 865 985 l 865 -139 z "},"§":{"ha":764,"x_min":46,"x_max":718,"o":"m 392 203 l 382 351 q 442 365 419 351 q 464 406 464 379 q 438 453 464 436 q 370 482 411 469 q 283 510 329 494 q 197 551 238 525 q 130 624 156 578 q 104 743 104 669 q 141 877 104 819 q 247 967 178 935 q 407 999 315 999 q 583 963 500 999 q 718 858 667 928 l 582 718 q 502 782 547 763 q 417 801 457 801 q 360 788 378 801 q 342 749 342 774 q 367 707 342 722 q 433 679 393 692 q 519 651 474 667 q 606 611 565 636 q 673 542 647 586 q 699 431 699 499 q 660 313 699 364 q 553 232 622 261 q 392 203 485 203 m 357 -169 q 180 -133 264 -169 q 46 -29 96 -97 l 182 111 q 262 48 217 67 q 347 29 307 29 q 403 44 385 29 q 422 81 422 58 q 397 124 422 108 q 330 151 371 139 q 244 178 289 164 q 158 219 199 193 q 91 288 117 244 q 65 400 65 332 q 103 517 65 467 q 210 598 142 568 q 371 628 279 628 l 382 478 q 322 465 344 478 q 300 425 300 451 q 326 377 300 394 q 393 348 353 360 q 480 321 433 336 q 567 278 526 306 q 633 206 607 251 q 660 86 660 161 q 623 -47 660 11 q 518 -137 586 -104 q 357 -169 450 -169 z "},"©":{"ha":1117,"x_min":56,"x_max":1061,"o":"m 560 -14 q 357 26 449 -14 q 197 134 265 65 q 92 296 129 203 q 56 497 56 389 q 92 696 56 604 q 195 856 128 788 q 354 964 263 925 q 557 1003 446 1003 q 761 964 668 1003 q 922 856 854 925 q 1025 695 989 788 q 1061 494 1061 603 q 1025 296 1061 389 q 922 133 989 203 q 762 25 854 64 q 560 -14 669 -14 m 576 208 q 418 246 489 208 q 306 347 347 283 q 265 494 265 411 q 307 642 265 576 q 420 744 349 707 q 581 781 492 781 q 697 760 644 781 q 793 699 749 740 l 657 563 q 625 585 643 578 q 581 592 607 592 q 531 579 553 592 q 496 546 508 567 q 483 496 483 525 q 497 444 483 467 q 532 410 510 422 q 581 397 554 397 q 628 406 608 397 q 663 433 647 415 l 799 297 q 697 229 750 250 q 576 208 643 208 m 557 67 q 776 124 681 67 q 924 278 871 181 q 978 497 978 375 q 924 713 978 617 q 776 865 871 808 q 557 922 681 922 q 338 866 432 922 q 191 714 243 810 q 139 497 139 618 q 192 278 139 375 q 339 124 244 181 q 557 67 433 67 z "},"®":{"ha":750,"x_min":63,"x_max":688,"o":"m 375 369 q 215 411 285 369 q 103 525 144 453 q 63 686 63 597 q 103 846 63 775 q 213 958 143 917 q 374 999 282 999 q 536 957 465 999 q 647 844 607 915 q 688 685 688 774 q 647 525 688 597 q 537 411 607 453 q 375 369 467 369 m 269 538 l 269 840 l 346 840 l 346 538 l 269 538 m 433 538 l 344 668 l 417 681 l 521 538 l 433 538 m 374 436 q 502 469 447 436 q 588 558 557 501 q 619 686 619 615 q 588 811 619 756 q 502 899 557 867 q 374 932 447 932 q 247 899 301 932 q 163 811 193 867 q 132 686 132 756 q 163 558 132 615 q 248 469 193 501 q 374 436 303 436 m 328 660 l 328 715 l 388 715 q 416 724 406 715 q 426 750 426 733 q 416 774 426 765 q 388 783 406 783 l 328 783 l 328 840 l 397 840 q 472 815 442 840 q 501 750 501 790 q 472 685 501 710 q 394 660 442 660 l 328 660 z "},"™":{"ha":1039,"x_min":33,"x_max":1006,"o":"m 185 443 l 185 932 l 308 932 l 308 443 l 185 443 m 33 829 l 33 936 l 460 936 l 460 829 l 33 829 m 490 443 l 490 936 l 579 936 l 769 650 l 726 650 l 917 936 l 1006 936 l 1006 443 l 882 443 l 882 729 l 903 725 l 789 554 l 707 554 l 594 725 l 614 729 l 614 443 l 490 443 z "},"°":{"ha":551,"x_min":38,"x_max":514,"o":"m 276 531 q 152 562 206 531 q 68 645 99 593 q 38 764 38 697 q 68 883 38 831 q 152 967 99 936 q 276 999 206 999 q 400 967 347 999 q 483 883 453 936 q 514 764 514 831 q 483 645 514 697 q 400 562 453 593 q 276 531 347 531 m 276 694 q 325 715 306 694 q 344 764 344 735 q 325 814 344 794 q 276 833 306 833 q 228 814 247 833 q 208 764 208 794 q 227 715 208 735 q 276 694 246 694 z "},"|":{"ha":428,"x_min":106,"x_max":322,"o":"m 106 -181 l 106 1082 l 322 1082 l 322 -181 l 106 -181 z "},"¦":{"ha":428,"x_min":106,"x_max":322,"o":"m 106 551 l 106 1082 l 322 1082 l 322 551 l 106 551 m 106 -181 l 106 351 l 322 351 l 322 -181 l 106 -181 z "},"℠":{"ha":1015,"x_min":33,"x_max":982,"o":"m 224 435 q 117 454 161 435 q 33 514 72 474 l 113 592 q 167 551 138 565 q 233 538 196 538 q 282 549 265 538 q 299 578 299 560 q 286 606 299 594 q 253 626 274 618 q 208 643 232 635 q 158 663 183 651 q 113 690 133 674 q 81 733 93 707 q 68 794 68 758 q 91 874 68 842 q 154 925 114 907 q 247 943 194 943 q 346 925 300 943 q 421 876 392 907 l 342 797 q 297 831 319 821 q 244 842 274 842 q 206 833 221 842 q 190 807 190 824 q 203 781 190 792 q 236 761 215 769 q 281 745 257 753 q 331 726 306 738 q 376 697 356 714 q 408 653 396 679 q 421 589 421 628 q 369 476 421 517 q 224 435 318 435 m 467 443 l 467 936 l 556 936 l 746 650 l 703 650 l 893 936 l 982 936 l 982 443 l 858 443 l 858 729 l 879 725 l 765 554 l 683 554 l 571 725 l 590 729 l 590 443 l 467 443 z "},"¢":{"ha":710,"x_min":32,"x_max":685,"o":"m 413 138 q 218 183 304 138 q 82 310 132 229 q 32 492 32 390 q 82 675 32 594 q 219 802 132 756 q 415 849 307 849 q 561 822 496 849 q 679 743 626 796 l 526 590 q 478 622 506 611 q 415 632 451 632 q 345 615 376 632 q 295 567 314 597 q 276 493 276 536 q 295 420 276 451 q 346 371 314 389 q 415 353 378 353 q 483 365 456 353 q 532 401 511 378 l 685 249 q 563 165 628 193 q 413 138 497 138 m 308 14 l 308 971 l 482 971 l 482 14 l 308 14 z "},"¤":{"ha":835,"x_min":64,"x_max":771,"o":"m 418 203 q 256 240 328 203 q 143 344 185 278 q 101 493 101 410 q 142 641 101 576 q 255 743 183 706 q 418 781 326 781 q 581 743 510 781 q 693 641 653 706 q 733 493 733 576 q 693 344 733 410 q 581 241 653 279 q 418 203 510 203 m 188 139 l 64 261 l 218 417 l 342 293 l 188 139 m 418 401 q 465 412 444 401 q 497 443 485 422 q 508 492 508 464 q 497 541 508 521 q 465 572 485 561 q 418 582 444 582 q 372 570 392 582 q 339 538 351 558 q 326 490 326 518 q 339 444 326 464 q 372 413 351 424 q 418 401 392 401 m 649 139 l 494 293 l 617 417 l 771 261 l 649 139 m 218 569 l 64 724 l 188 846 l 342 692 l 218 569 m 617 569 l 494 692 l 649 846 l 771 724 l 617 569 z "},"$":{"ha":851,"x_min":40,"x_max":790,"o":"m 407 -15 q 201 22 289 -15 q 40 140 114 60 l 193 297 q 299 215 243 244 q 425 186 356 186 q 519 208 486 186 q 553 268 553 229 q 528 326 553 303 q 463 366 503 349 q 376 399 424 383 q 280 438 328 415 q 192 494 232 461 q 128 578 153 528 q 104 701 104 628 q 148 863 104 796 q 270 965 192 929 q 451 1001 349 1001 q 642 965 554 1001 q 786 865 729 929 l 632 708 q 544 776 589 754 q 449 799 500 799 q 369 781 399 799 q 340 728 340 764 q 365 674 340 694 q 429 637 389 653 q 517 604 469 621 q 613 565 565 588 q 701 508 661 543 q 765 421 740 474 q 790 293 790 368 q 690 65 790 146 q 407 -15 589 -15 m 349 -140 l 349 1126 l 522 1126 l 522 -140 l 349 -140 z "},"€":{"ha":986,"x_min":-21,"x_max":946,"o":"m 575 -15 q 376 23 468 -15 q 217 130 285 61 q 110 292 149 199 q 72 493 72 385 q 110 695 72 603 q 215 856 147 788 q 374 963 283 924 q 572 1001 465 1001 q 778 965 686 1001 q 940 863 869 928 l 774 696 q 688 758 739 736 q 571 781 638 781 q 443 745 499 781 q 356 645 388 710 q 324 493 324 581 q 356 341 324 406 q 443 240 388 276 q 574 204 499 204 q 690 226 639 204 q 779 289 742 247 l 946 122 q 784 21 874 57 q 575 -15 694 -15 m -21 525 l -21 661 l 647 661 l 617 525 l -21 525 m -21 314 l -21 449 l 600 449 l 571 314 l -21 314 z "},"£":{"ha":879,"x_min":72,"x_max":829,"o":"m 206 0 l 206 690 q 250 862 206 788 q 372 978 294 936 q 547 1019 449 1019 q 713 983 639 1019 q 829 886 786 947 l 675 732 q 626 784 650 768 q 563 800 601 800 q 505 786 529 800 q 467 747 481 772 q 454 686 454 722 l 454 0 l 206 0 m 72 0 l 72 214 l 800 214 l 800 0 l 72 0 m 72 399 l 72 576 l 690 576 l 690 399 l 72 399 z "},"¥":{"ha":953,"x_min":63,"x_max":892,"o":"m 383 349 l 63 985 l 328 985 l 549 463 l 411 463 l 632 985 l 892 985 l 567 349 l 383 349 m 354 0 l 354 447 l 603 447 l 603 0 l 354 0 m 329 661 l 364 525 l 88 525 l 88 661 l 329 661 m 88 314 l 88 449 l 865 449 l 865 314 l 88 314 m 613 525 l 661 661 l 865 661 l 865 525 l 613 525 z "},"∕":{"ha":522,"x_min":0,"x_max":522,"o":"m 0 -86 l 317 1060 l 522 1060 l 206 -86 l 0 -86 z "},"+":{"ha":793,"x_min":65,"x_max":728,"o":"m 65 367 l 65 563 l 728 563 l 728 367 l 65 367 m 297 814 l 497 814 l 497 118 l 297 118 l 297 814 z "},"−":{"ha":793,"x_min":65,"x_max":728,"o":"m 65 367 l 65 563 l 728 563 l 728 367 l 65 367 z "},"×":{"ha":793,"x_min":60,"x_max":735,"o":"m 201 128 l 60 269 l 593 803 l 735 661 l 201 128 m 581 139 l 69 649 l 211 790 l 722 281 l 581 139 z "},"÷":{"ha":793,"x_min":65,"x_max":728,"o":"m 65 367 l 65 563 l 728 563 l 728 367 l 65 367 m 397 611 q 310 647 344 611 q 276 733 276 682 q 310 822 276 786 q 397 858 344 858 q 484 822 450 858 q 518 733 518 786 q 484 647 518 682 q 397 611 450 611 m 397 72 q 310 108 344 72 q 276 196 276 144 q 310 283 276 247 q 397 319 344 319 q 484 283 450 319 q 518 196 518 247 q 484 108 518 144 q 397 72 450 72 z "},"=":{"ha":793,"x_min":65,"x_max":728,"o":"m 65 532 l 65 726 l 728 726 l 728 532 l 65 532 m 65 192 l 65 386 l 728 386 l 728 192 l 65 192 z "},">":{"ha":793,"x_min":64,"x_max":731,"o":"m 64 608 l 64 819 l 731 547 l 731 383 l 64 111 l 64 322 l 560 514 l 560 417 l 64 608 z "},"<":{"ha":793,"x_min":64,"x_max":731,"o":"m 731 111 l 64 383 l 64 547 l 731 819 l 731 608 l 233 417 l 233 514 l 731 322 l 731 111 z "},"±":{"ha":793,"x_min":65,"x_max":728,"o":"m 65 475 l 65 669 l 728 669 l 728 475 l 65 475 m 297 807 l 497 807 l 497 340 l 297 340 l 297 807 m 65 103 l 65 299 l 728 299 l 728 103 l 65 103 z "},"~":{"ha":793,"x_min":32,"x_max":763,"o":"m 515 361 q 436 373 468 361 q 380 399 404 385 q 332 426 356 414 q 275 438 308 438 q 210 422 239 438 q 153 374 182 406 l 32 494 q 144 599 88 565 q 274 633 201 633 q 348 622 317 633 q 404 594 379 610 q 455 567 429 579 q 513 556 481 556 q 580 570 550 556 q 639 621 610 585 l 763 499 q 647 394 706 426 q 515 361 589 361 z "},"¬":{"ha":793,"x_min":65,"x_max":728,"o":"m 65 447 l 65 642 l 728 642 l 728 447 l 65 447 m 528 604 l 728 604 l 728 236 l 528 236 l 528 604 z "},"^":{"ha":658,"x_min":39,"x_max":619,"o":"m 436 625 l 286 917 l 374 917 l 221 625 l 39 625 l 257 1013 l 401 1013 l 619 625 l 436 625 z "},"µ":{"ha":836,"x_min":106,"x_max":764,"o":"m 106 -274 l 106 679 l 349 679 l 349 -274 l 106 -274 m 493 -14 q 310 63 371 -14 q 250 263 250 140 l 349 292 q 376 217 349 239 q 436 194 403 194 q 496 217 469 194 q 522 292 522 239 l 522 679 l 764 679 l 764 254 q 728 114 764 174 q 631 20 692 54 q 493 -14 569 -14 z "},"%":{"ha":969,"x_min":42,"x_max":928,"o":"m 93 0 l 663 985 l 876 985 l 307 0 l 93 0 m 718 -14 q 612 14 660 -14 q 536 90 564 42 q 508 196 508 138 q 536 301 508 254 q 611 375 564 347 q 717 403 658 403 q 824 375 776 403 q 900 301 872 347 q 928 196 928 254 q 900 90 928 138 q 825 14 872 42 q 718 -14 778 -14 m 718 144 q 755 158 740 144 q 769 194 769 172 q 755 231 769 217 q 718 246 740 246 q 682 231 696 246 q 668 194 668 217 q 683 158 668 172 q 718 144 697 144 m 250 582 q 145 610 193 582 q 69 685 97 638 q 42 792 42 733 q 69 897 42 850 q 144 971 97 943 q 250 999 192 999 q 358 971 310 999 q 433 897 406 943 q 461 792 461 850 q 433 685 461 733 q 357 610 404 638 q 250 582 310 582 m 250 739 q 288 753 274 739 q 301 790 301 768 q 287 827 301 813 q 250 842 272 842 q 215 827 229 842 q 201 790 201 813 q 215 753 201 768 q 250 739 229 739 z "},"↑":{"ha":914,"x_min":88,"x_max":826,"o":"m 354 643 l 561 643 l 561 32 l 354 32 l 354 643 m 826 249 l 457 618 l 88 249 l 88 539 l 457 908 l 826 539 l 826 249 z "},"↗":{"ha":914,"x_min":89,"x_max":828,"o":"m 567 724 l 714 578 l 236 100 l 89 246 l 567 724 m 628 117 l 622 633 l 104 638 l 306 839 l 828 839 l 828 317 l 628 117 z "},"→":{"ha":914,"x_min":19,"x_max":896,"o":"m 631 574 l 631 367 l 19 367 l 19 574 l 631 574 m 236 100 l 606 469 l 236 839 l 526 839 l 896 469 l 526 100 l 236 100 z "},"↘":{"ha":914,"x_min":89,"x_max":828,"o":"m 713 361 l 567 214 l 89 692 l 235 839 l 713 361 m 104 300 l 622 306 l 626 824 l 828 622 l 828 100 l 306 100 l 104 300 z "},"↓":{"ha":914,"x_min":88,"x_max":826,"o":"m 561 296 l 354 296 l 354 907 l 561 907 l 561 296 m 88 690 l 457 321 l 826 690 l 826 400 l 457 31 l 88 400 l 88 690 z "},"↙":{"ha":914,"x_min":89,"x_max":828,"o":"m 349 215 l 203 361 l 679 839 l 828 693 l 349 215 m 289 824 l 293 306 l 811 301 l 611 100 l 89 100 l 89 622 l 289 824 z "},"←":{"ha":914,"x_min":18,"x_max":894,"o":"m 283 367 l 283 574 l 894 574 l 894 367 l 283 367 m 678 839 l 308 469 l 678 100 l 388 100 l 18 469 l 388 839 l 678 839 z "},"↖":{"ha":914,"x_min":89,"x_max":828,"o":"m 204 579 l 350 725 l 828 249 l 682 100 l 204 579 m 811 639 l 294 635 l 290 117 l 89 317 l 89 839 l 611 839 l 811 639 z "},"̈":{"ha":0,"x_min":74,"x_max":639,"o":"m 200 754 q 110 792 146 754 q 74 883 74 829 q 110 975 74 938 q 200 1013 146 1013 q 291 975 256 1013 q 326 883 326 938 q 291 792 326 829 q 200 754 256 754 m 513 754 q 422 792 458 754 q 386 883 386 829 q 422 975 386 938 q 513 1013 458 1013 q 603 975 568 1013 q 639 883 639 938 q 603 792 639 829 q 513 754 568 754 z "},"̇":{"ha":0,"x_min":125,"x_max":379,"o":"m 251 754 q 161 792 197 754 q 125 883 125 829 q 161 975 125 938 q 251 1013 197 1013 q 344 975 308 1013 q 379 883 379 938 q 344 792 379 829 q 251 754 308 754 z "},"̀":{"ha":0,"x_min":56,"x_max":414,"o":"m 344 751 l 56 879 l 172 1068 l 414 871 l 344 751 z "},"́":{"ha":0,"x_min":56,"x_max":414,"o":"m 125 744 l 56 864 l 299 1061 l 414 872 l 125 744 z "},"̋":{"ha":0,"x_min":56,"x_max":719,"o":"m 169 714 l 56 792 l 193 1074 l 376 951 l 169 714 m 513 714 l 399 792 l 536 1074 l 719 951 l 513 714 z "},"̂":{"ha":0,"x_min":56,"x_max":601,"o":"m 125 739 l 56 842 l 265 1036 l 392 1036 l 601 842 l 532 739 l 233 901 l 424 900 l 125 739 z "},"̌":{"ha":0,"x_min":56,"x_max":601,"o":"m 532 1036 l 601 933 l 392 739 l 265 739 l 56 933 l 125 1036 l 422 875 l 232 875 l 532 1036 z "},"̆":{"ha":0,"x_min":56,"x_max":601,"o":"m 601 1007 q 565 870 601 932 q 468 772 529 808 q 331 736 407 736 q 190 772 251 736 q 92 869 128 808 q 56 1007 56 931 l 235 1007 q 262 938 235 965 q 331 910 289 910 q 377 922 357 910 q 409 957 397 935 q 421 1007 421 979 l 601 1007 z "},"̊":{"ha":0,"x_min":56,"x_max":428,"o":"m 243 736 q 147 761 189 736 q 80 827 104 786 q 56 919 56 868 q 80 1014 56 972 q 147 1080 104 1056 q 242 1104 189 1104 q 337 1080 294 1104 q 403 1014 379 1056 q 428 921 428 972 q 403 826 428 868 q 337 760 379 785 q 243 736 294 736 m 243 858 q 285 876 268 858 q 301 921 301 894 q 285 965 301 947 q 243 982 268 982 q 199 964 215 982 q 182 919 182 946 q 199 876 182 894 q 243 858 215 858 z "},"̃":{"ha":0,"x_min":56,"x_max":654,"o":"m 458 747 q 381 763 414 747 q 321 792 349 778 q 263 807 293 807 q 208 794 231 807 q 165 751 185 781 l 56 863 q 142 958 94 929 q 253 988 190 988 q 330 973 297 988 q 390 943 363 958 q 447 928 418 928 q 503 942 481 928 q 544 983 526 956 l 654 874 q 568 777 615 807 q 458 747 521 747 z "},"̄":{"ha":0,"x_min":56,"x_max":594,"o":"m 56 974 l 594 974 l 594 800 l 56 800 l 56 974 z "},"̒":{"ha":0,"x_min":25,"x_max":367,"o":"m 367 1136 l 225 965 l 153 961 q 188 992 169 981 q 224 999 206 1003 q 294 947 267 990 q 310 849 321 903 q 250 760 297 793 q 144 739 203 726 q 57 801 89 751 q 39 908 25 850 q 60 961 44 932 q 114 1035 75 990 l 269 1219 l 367 1136 z "},"̦":{"ha":0,"x_min":28,"x_max":368,"o":"m 125 -574 l 28 -490 l 169 -321 l 242 -315 q 207 -347 225 -335 q 171 -354 189 -358 q 99 -301 126 -344 q 85 -204 72 -258 q 144 -114 97 -147 q 250 -93 190 -81 q 337 -155 306 -106 q 356 -262 368 -204 q 335 -316 351 -286 q 281 -389 319 -346 l 125 -574 z "},"̧":{"ha":0,"x_min":35,"x_max":406,"o":"m 213 -301 q 115 -289 154 -301 q 35 -253 76 -276 l 103 -162 q 143 -182 122 -175 q 186 -189 164 -189 q 223 -181 213 -189 q 233 -161 233 -174 q 219 -140 233 -149 q 172 -132 204 -132 l 142 -132 l 188 17 l 313 17 l 274 -86 l 210 -32 q 356 -69 306 -32 q 406 -167 406 -106 q 353 -263 406 -225 q 213 -301 300 -301 z "},"̨":{"ha":0,"x_min":56,"x_max":433,"o":"m 278 -301 q 116 -258 176 -301 q 56 -135 56 -215 q 110 -6 56 -57 q 250 53 164 44 l 401 0 q 314 -42 344 -17 q 283 -107 283 -67 q 296 -144 283 -132 q 332 -157 308 -157 q 358 -152 346 -157 q 385 -142 371 -147 l 433 -264 q 363 -292 401 -282 q 278 -301 325 -301 z "},"¨":{"ha":713,"x_min":74,"x_max":639,"o":"m 200 754 q 110 792 146 754 q 74 883 74 829 q 110 975 74 938 q 200 1013 146 1013 q 291 975 256 1013 q 326 883 326 938 q 291 792 326 829 q 200 754 256 754 m 513 754 q 422 792 458 754 q 386 883 386 829 q 422 975 386 938 q 513 1013 458 1013 q 603 975 568 1013 q 639 883 639 938 q 603 792 639 829 q 513 754 568 754 z "},"˙":{"ha":504,"x_min":125,"x_max":379,"o":"m 251 754 q 161 792 197 754 q 125 883 125 829 q 161 975 125 938 q 251 1013 197 1013 q 344 975 308 1013 q 379 883 379 938 q 344 792 379 829 q 251 754 308 754 z "},"`":{"ha":469,"x_min":56,"x_max":414,"o":"m 344 751 l 56 879 l 172 1068 l 414 871 l 344 751 z "},"´":{"ha":469,"x_min":56,"x_max":414,"o":"m 125 744 l 56 864 l 299 1061 l 414 872 l 125 744 z "},"˝":{"ha":775,"x_min":56,"x_max":719,"o":"m 169 714 l 56 792 l 193 1074 l 376 951 l 169 714 m 513 714 l 399 792 l 536 1074 l 719 951 l 513 714 z "},"ˆ":{"ha":657,"x_min":56,"x_max":601,"o":"m 125 739 l 56 842 l 265 1036 l 392 1036 l 601 842 l 532 739 l 233 901 l 424 900 l 125 739 z "},"ˇ":{"ha":657,"x_min":56,"x_max":601,"o":"m 532 1036 l 601 933 l 392 739 l 265 739 l 56 933 l 125 1036 l 422 875 l 232 875 l 532 1036 z "},"˘":{"ha":657,"x_min":56,"x_max":601,"o":"m 601 1007 q 565 870 601 932 q 468 772 529 808 q 331 736 407 736 q 190 772 251 736 q 92 869 128 808 q 56 1007 56 931 l 235 1007 q 262 938 235 965 q 331 910 289 910 q 377 922 357 910 q 409 957 397 935 q 421 1007 421 979 l 601 1007 z "},"˚":{"ha":483,"x_min":56,"x_max":428,"o":"m 243 736 q 147 761 189 736 q 80 827 104 786 q 56 919 56 868 q 80 1014 56 972 q 147 1080 104 1056 q 242 1104 189 1104 q 337 1080 294 1104 q 403 1014 379 1056 q 428 921 428 972 q 403 826 428 868 q 337 760 379 785 q 243 736 294 736 m 243 858 q 285 876 268 858 q 301 921 301 894 q 285 965 301 947 q 243 982 268 982 q 199 964 215 982 q 182 919 182 946 q 199 876 182 894 q 243 858 215 858 z "},"˜":{"ha":710,"x_min":56,"x_max":654,"o":"m 458 747 q 381 763 414 747 q 321 792 349 778 q 263 807 293 807 q 208 794 231 807 q 165 751 185 781 l 56 863 q 142 958 94 929 q 253 988 190 988 q 330 973 297 988 q 390 943 363 958 q 447 928 418 928 q 503 942 481 928 q 544 983 526 956 l 654 874 q 568 777 615 807 q 458 747 521 747 z "},"¯":{"ha":650,"x_min":56,"x_max":594,"o":"m 56 974 l 594 974 l 594 800 l 56 800 l 56 974 z "},"¸":{"ha":442,"x_min":35,"x_max":406,"o":"m 213 -301 q 115 -289 154 -301 q 35 -253 76 -276 l 103 -162 q 143 -182 122 -175 q 186 -189 164 -189 q 223 -181 213 -189 q 233 -161 233 -174 q 219 -140 233 -149 q 172 -132 204 -132 l 142 -132 l 188 17 l 313 17 l 274 -86 l 210 -32 q 356 -69 306 -32 q 406 -167 406 -106 q 353 -263 406 -225 q 213 -301 300 -301 z "},"˛":{"ha":489,"x_min":56,"x_max":433,"o":"m 278 -301 q 116 -258 176 -301 q 56 -135 56 -215 q 110 -6 56 -57 q 250 53 164 44 l 401 0 q 314 -42 344 -17 q 283 -107 283 -67 q 296 -144 283 -132 q 332 -157 308 -157 q 358 -152 346 -157 q 385 -142 371 -147 l 433 -264 q 363 -292 401 -282 q 278 -301 325 -301 z "},"ʼ":{"ha":381,"x_min":39,"x_max":343,"o":"m 39 592 l 171 789 l 242 807 q 214 770 229 785 q 179 756 199 756 q 100 792 136 756 q 64 883 64 828 q 103 984 64 942 q 203 1026 143 1026 q 301 985 260 1026 q 343 883 343 944 q 333 826 343 860 q 292 743 324 792 l 153 529 l 39 592 z "}}}
